solid STL generated by MeshLab
  facet normal  0.000000e+00 -1.000000e+00  0.000000e+00
    outer loop
      vertex   0.000000e+00  0.000000e+00  0.000000e+00
      vertex   2.000000e+00  0.000000e+00  0.000000e+00
      vertex   1.989044e+00  0.000000e+00  2.090569e-01
    endloop
  endfacet
  facet normal  0.000000e+00 -1.000000e+00  0.000000e+00
    outer loop
      vertex   0.000000e+00  0.000000e+00  0.000000e+00
      vertex   1.989044e+00  0.000000e+00  2.090569e-01
      vertex   1.956295e+00  0.000000e+00  4.158234e-01
    endloop
  endfacet
  facet normal  0.000000e+00 -1.000000e+00  0.000000e+00
    outer loop
      vertex   0.000000e+00  0.000000e+00  0.000000e+00
      vertex   1.956295e+00  0.000000e+00  4.158234e-01
      vertex   1.902113e+00  0.000000e+00  6.180340e-01
    endloop
  endfacet
  facet normal  0.000000e+00 -1.000000e+00  0.000000e+00
    outer loop
      vertex   0.000000e+00  0.000000e+00  0.000000e+00
      vertex   1.902113e+00  0.000000e+00  6.180340e-01
      vertex   1.827091e+00  0.000000e+00  8.134733e-01
    endloop
  endfacet
  facet normal  0.000000e+00 -1.000000e+00  0.000000e+00
    outer loop
      vertex   0.000000e+00  0.000000e+00  0.000000e+00
      vertex   1.827091e+00  0.000000e+00  8.134733e-01
      vertex   1.732051e+00  0.000000e+00  1.000000e+00
    endloop
  endfacet
  facet normal  0.000000e+00 -1.000000e+00  0.000000e+00
    outer loop
      vertex   0.000000e+00  0.000000e+00  0.000000e+00
      vertex   1.732051e+00  0.000000e+00  1.000000e+00
      vertex   1.618034e+00  0.000000e+00  1.175570e+00
    endloop
  endfacet
  facet normal  0.000000e+00 -1.000000e+00  0.000000e+00
    outer loop
      vertex   0.000000e+00  0.000000e+00  0.000000e+00
      vertex   1.618034e+00  0.000000e+00  1.175570e+00
      vertex   1.486290e+00  0.000000e+00  1.338261e+00
    endloop
  endfacet
  facet normal  0.000000e+00 -1.000000e+00  0.000000e+00
    outer loop
      vertex   0.000000e+00  0.000000e+00  0.000000e+00
      vertex   1.486290e+00  0.000000e+00  1.338261e+00
      vertex   1.338261e+00  0.000000e+00  1.486290e+00
    endloop
  endfacet
  facet normal  0.000000e+00 -1.000000e+00  0.000000e+00
    outer loop
      vertex   0.000000e+00  0.000000e+00  0.000000e+00
      vertex   1.338261e+00  0.000000e+00  1.486290e+00
      vertex   1.175570e+00  0.000000e+00  1.618034e+00
    endloop
  endfacet
  facet normal  0.000000e+00 -1.000000e+00  0.000000e+00
    outer loop
      vertex   0.000000e+00  0.000000e+00  0.000000e+00
      vertex   1.175570e+00  0.000000e+00  1.618034e+00
      vertex   1.000000e+00  0.000000e+00  1.732051e+00
    endloop
  endfacet
  facet normal  0.000000e+00 -1.000000e+00  0.000000e+00
    outer loop
      vertex   0.000000e+00  0.000000e+00  0.000000e+00
      vertex   1.000000e+00  0.000000e+00  1.732051e+00
      vertex   8.134733e-01  0.000000e+00  1.827091e+00
    endloop
  endfacet
  facet normal  0.000000e+00 -1.000000e+00  0.000000e+00
    outer loop
      vertex   0.000000e+00  0.000000e+00  0.000000e+00
      vertex   8.134733e-01  0.000000e+00  1.827091e+00
      vertex   6.180340e-01  0.000000e+00  1.902113e+00
    endloop
  endfacet
  facet normal  0.000000e+00 -1.000000e+00  0.000000e+00
    outer loop
      vertex   0.000000e+00  0.000000e+00  0.000000e+00
      vertex   6.180340e-01  0.000000e+00  1.902113e+00
      vertex   4.158234e-01  0.000000e+00  1.956295e+00
    endloop
  endfacet
  facet normal  0.000000e+00 -1.000000e+00  0.000000e+00
    outer loop
      vertex   0.000000e+00  0.000000e+00  0.000000e+00
      vertex   4.158234e-01  0.000000e+00  1.956295e+00
      vertex   2.090569e-01  0.000000e+00  1.989044e+00
    endloop
  endfacet
  facet normal  0.000000e+00 -1.000000e+00  0.000000e+00
    outer loop
      vertex   0.000000e+00  0.000000e+00  0.000000e+00
      vertex   2.090569e-01  0.000000e+00  1.989044e+00
      vertex   1.224647e-16  0.000000e+00  2.000000e+00
    endloop
  endfacet
  facet normal  0.000000e+00 -1.000000e+00  0.000000e+00
    outer loop
      vertex   0.000000e+00  0.000000e+00  0.000000e+00
      vertex   1.224647e-16  0.000000e+00  2.000000e+00
      vertex  -2.090569e-01  0.000000e+00  1.989044e+00
    endloop
  endfacet
  facet normal  0.000000e+00 -1.000000e+00  0.000000e+00
    outer loop
      vertex   0.000000e+00  0.000000e+00  0.000000e+00
      vertex  -2.090569e-01  0.000000e+00  1.989044e+00
      vertex  -4.158234e-01  0.000000e+00  1.956295e+00
    endloop
  endfacet
  facet normal  0.000000e+00 -1.000000e+00  0.000000e+00
    outer loop
      vertex   0.000000e+00  0.000000e+00  0.000000e+00
      vertex  -4.158234e-01  0.000000e+00  1.956295e+00
      vertex  -6.180340e-01  0.000000e+00  1.902113e+00
    endloop
  endfacet
  facet normal  0.000000e+00 -1.000000e+00  0.000000e+00
    outer loop
      vertex   0.000000e+00  0.000000e+00  0.000000e+00
      vertex  -6.180340e-01  0.000000e+00  1.902113e+00
      vertex  -8.134733e-01  0.000000e+00  1.827091e+00
    endloop
  endfacet
  facet normal  0.000000e+00 -1.000000e+00  0.000000e+00
    outer loop
      vertex   0.000000e+00  0.000000e+00  0.000000e+00
      vertex  -8.134733e-01  0.000000e+00  1.827091e+00
      vertex  -1.000000e+00  0.000000e+00  1.732051e+00
    endloop
  endfacet
  facet normal  0.000000e+00 -1.000000e+00  0.000000e+00
    outer loop
      vertex   0.000000e+00  0.000000e+00  0.000000e+00
      vertex  -1.000000e+00  0.000000e+00  1.732051e+00
      vertex  -1.175570e+00  0.000000e+00  1.618034e+00
    endloop
  endfacet
  facet normal  0.000000e+00 -1.000000e+00  0.000000e+00
    outer loop
      vertex   0.000000e+00  0.000000e+00  0.000000e+00
      vertex  -1.175570e+00  0.000000e+00  1.618034e+00
      vertex  -1.338261e+00  0.000000e+00  1.486290e+00
    endloop
  endfacet
  facet normal  0.000000e+00 -1.000000e+00  0.000000e+00
    outer loop
      vertex   0.000000e+00  0.000000e+00  0.000000e+00
      vertex  -1.338261e+00  0.000000e+00  1.486290e+00
      vertex  -1.486290e+00  0.000000e+00  1.338261e+00
    endloop
  endfacet
  facet normal  0.000000e+00 -1.000000e+00  0.000000e+00
    outer loop
      vertex   0.000000e+00  0.000000e+00  0.000000e+00
      vertex  -1.486290e+00  0.000000e+00  1.338261e+00
      vertex  -1.618034e+00  0.000000e+00  1.175570e+00
    endloop
  endfacet
  facet normal  0.000000e+00 -1.000000e+00  0.000000e+00
    outer loop
      vertex   0.000000e+00  0.000000e+00  0.000000e+00
      vertex  -1.618034e+00  0.000000e+00  1.175570e+00
      vertex  -1.732051e+00  0.000000e+00  1.000000e+00
    endloop
  endfacet
  facet normal  0.000000e+00 -1.000000e+00  0.000000e+00
    outer loop
      vertex   0.000000e+00  0.000000e+00  0.000000e+00
      vertex  -1.732051e+00  0.000000e+00  1.000000e+00
      vertex  -1.827091e+00  0.000000e+00  8.134733e-01
    endloop
  endfacet
  facet normal  0.000000e+00 -1.000000e+00  0.000000e+00
    outer loop
      vertex   0.000000e+00  0.000000e+00  0.000000e+00
      vertex  -1.827091e+00  0.000000e+00  8.134733e-01
      vertex  -1.902113e+00  0.000000e+00  6.180340e-01
    endloop
  endfacet
  facet normal  0.000000e+00 -1.000000e+00  0.000000e+00
    outer loop
      vertex   0.000000e+00  0.000000e+00  0.000000e+00
      vertex  -1.902113e+00  0.000000e+00  6.180340e-01
      vertex  -1.956295e+00  0.000000e+00  4.158234e-01
    endloop
  endfacet
  facet normal  0.000000e+00 -1.000000e+00  0.000000e+00
    outer loop
      vertex   0.000000e+00  0.000000e+00  0.000000e+00
      vertex  -1.956295e+00  0.000000e+00  4.158234e-01
      vertex  -1.989044e+00  0.000000e+00  2.090569e-01
    endloop
  endfacet
  facet normal  0.000000e+00 -1.000000e+00  0.000000e+00
    outer loop
      vertex   0.000000e+00  0.000000e+00  0.000000e+00
      vertex  -1.989044e+00  0.000000e+00  2.090569e-01
      vertex  -2.000000e+00  0.000000e+00  2.449294e-16
    endloop
  endfacet
  facet normal -0.000000e+00 -1.000000e+00  0.000000e+00
    outer loop
      vertex   0.000000e+00  0.000000e+00  0.000000e+00
      vertex  -2.000000e+00  0.000000e+00  2.449294e-16
      vertex  -1.989044e+00  0.000000e+00 -2.090569e-01
    endloop
  endfacet
  facet normal  0.000000e+00 -1.000000e+00  0.000000e+00
    outer loop
      vertex   0.000000e+00  0.000000e+00  0.000000e+00
      vertex  -1.989044e+00  0.000000e+00 -2.090569e-01
      vertex  -1.956295e+00  0.000000e+00 -4.158234e-01
    endloop
  endfacet
  facet normal  0.000000e+00 -1.000000e+00  0.000000e+00
    outer loop
      vertex   0.000000e+00  0.000000e+00  0.000000e+00
      vertex  -1.956295e+00  0.000000e+00 -4.158234e-01
      vertex  -1.902113e+00  0.000000e+00 -6.180340e-01
    endloop
  endfacet
  facet normal  0.000000e+00 -1.000000e+00  0.000000e+00
    outer loop
      vertex   0.000000e+00  0.000000e+00  0.000000e+00
      vertex  -1.902113e+00  0.000000e+00 -6.180340e-01
      vertex  -1.827091e+00  0.000000e+00 -8.134733e-01
    endloop
  endfacet
  facet normal  0.000000e+00 -1.000000e+00  0.000000e+00
    outer loop
      vertex   0.000000e+00  0.000000e+00  0.000000e+00
      vertex  -1.827091e+00  0.000000e+00 -8.134733e-01
      vertex  -1.732051e+00  0.000000e+00 -1.000000e+00
    endloop
  endfacet
  facet normal  0.000000e+00 -1.000000e+00  0.000000e+00
    outer loop
      vertex   0.000000e+00  0.000000e+00  0.000000e+00
      vertex  -1.732051e+00  0.000000e+00 -1.000000e+00
      vertex  -1.618034e+00  0.000000e+00 -1.175570e+00
    endloop
  endfacet
  facet normal  0.000000e+00 -1.000000e+00  0.000000e+00
    outer loop
      vertex   0.000000e+00  0.000000e+00  0.000000e+00
      vertex  -1.618034e+00  0.000000e+00 -1.175570e+00
      vertex  -1.486290e+00  0.000000e+00 -1.338261e+00
    endloop
  endfacet
  facet normal  0.000000e+00 -1.000000e+00  0.000000e+00
    outer loop
      vertex   0.000000e+00  0.000000e+00  0.000000e+00
      vertex  -1.486290e+00  0.000000e+00 -1.338261e+00
      vertex  -1.338261e+00  0.000000e+00 -1.486290e+00
    endloop
  endfacet
  facet normal  0.000000e+00 -1.000000e+00  0.000000e+00
    outer loop
      vertex   0.000000e+00  0.000000e+00  0.000000e+00
      vertex  -1.338261e+00  0.000000e+00 -1.486290e+00
      vertex  -1.175570e+00  0.000000e+00 -1.618034e+00
    endloop
  endfacet
  facet normal  0.000000e+00 -1.000000e+00  0.000000e+00
    outer loop
      vertex   0.000000e+00  0.000000e+00  0.000000e+00
      vertex  -1.175570e+00  0.000000e+00 -1.618034e+00
      vertex  -1.000000e+00  0.000000e+00 -1.732051e+00
    endloop
  endfacet
  facet normal  0.000000e+00 -1.000000e+00  0.000000e+00
    outer loop
      vertex   0.000000e+00  0.000000e+00  0.000000e+00
      vertex  -1.000000e+00  0.000000e+00 -1.732051e+00
      vertex  -8.134733e-01  0.000000e+00 -1.827091e+00
    endloop
  endfacet
  facet normal  0.000000e+00 -1.000000e+00  0.000000e+00
    outer loop
      vertex   0.000000e+00  0.000000e+00  0.000000e+00
      vertex  -8.134733e-01  0.000000e+00 -1.827091e+00
      vertex  -6.180340e-01  0.000000e+00 -1.902113e+00
    endloop
  endfacet
  facet normal  0.000000e+00 -1.000000e+00  0.000000e+00
    outer loop
      vertex   0.000000e+00  0.000000e+00  0.000000e+00
      vertex  -6.180340e-01  0.000000e+00 -1.902113e+00
      vertex  -4.158234e-01  0.000000e+00 -1.956295e+00
    endloop
  endfacet
  facet normal  0.000000e+00 -1.000000e+00  0.000000e+00
    outer loop
      vertex   0.000000e+00  0.000000e+00  0.000000e+00
      vertex  -4.158234e-01  0.000000e+00 -1.956295e+00
      vertex  -2.090569e-01  0.000000e+00 -1.989044e+00
    endloop
  endfacet
  facet normal  0.000000e+00 -1.000000e+00  0.000000e+00
    outer loop
      vertex   0.000000e+00  0.000000e+00  0.000000e+00
      vertex  -2.090569e-01  0.000000e+00 -1.989044e+00
      vertex  -3.673940e-16  0.000000e+00 -2.000000e+00
    endloop
  endfacet
  facet normal  0.000000e+00 -1.000000e+00 -0.000000e+00
    outer loop
      vertex   0.000000e+00  0.000000e+00  0.000000e+00
      vertex  -3.673940e-16  0.000000e+00 -2.000000e+00
      vertex   2.090569e-01  0.000000e+00 -1.989044e+00
    endloop
  endfacet
  facet normal  0.000000e+00 -1.000000e+00  0.000000e+00
    outer loop
      vertex   0.000000e+00  0.000000e+00  0.000000e+00
      vertex   2.090569e-01  0.000000e+00 -1.989044e+00
      vertex   4.158234e-01  0.000000e+00 -1.956295e+00
    endloop
  endfacet
  facet normal  0.000000e+00 -1.000000e+00  0.000000e+00
    outer loop
      vertex   0.000000e+00  0.000000e+00  0.000000e+00
      vertex   4.158234e-01  0.000000e+00 -1.956295e+00
      vertex   6.180340e-01  0.000000e+00 -1.902113e+00
    endloop
  endfacet
  facet normal  0.000000e+00 -1.000000e+00  0.000000e+00
    outer loop
      vertex   0.000000e+00  0.000000e+00  0.000000e+00
      vertex   6.180340e-01  0.000000e+00 -1.902113e+00
      vertex   8.134733e-01  0.000000e+00 -1.827091e+00
    endloop
  endfacet
  facet normal  0.000000e+00 -1.000000e+00  0.000000e+00
    outer loop
      vertex   0.000000e+00  0.000000e+00  0.000000e+00
      vertex   8.134733e-01  0.000000e+00 -1.827091e+00
      vertex   1.000000e+00  0.000000e+00 -1.732051e+00
    endloop
  endfacet
  facet normal  0.000000e+00 -1.000000e+00  0.000000e+00
    outer loop
      vertex   0.000000e+00  0.000000e+00  0.000000e+00
      vertex   1.000000e+00  0.000000e+00 -1.732051e+00
      vertex   1.175570e+00  0.000000e+00 -1.618034e+00
    endloop
  endfacet
  facet normal  0.000000e+00 -1.000000e+00  0.000000e+00
    outer loop
      vertex   0.000000e+00  0.000000e+00  0.000000e+00
      vertex   1.175570e+00  0.000000e+00 -1.618034e+00
      vertex   1.338261e+00  0.000000e+00 -1.486290e+00
    endloop
  endfacet
  facet normal  0.000000e+00 -1.000000e+00  0.000000e+00
    outer loop
      vertex   0.000000e+00  0.000000e+00  0.000000e+00
      vertex   1.338261e+00  0.000000e+00 -1.486290e+00
      vertex   1.486290e+00  0.000000e+00 -1.338261e+00
    endloop
  endfacet
  facet normal  0.000000e+00 -1.000000e+00  0.000000e+00
    outer loop
      vertex   0.000000e+00  0.000000e+00  0.000000e+00
      vertex   1.486290e+00  0.000000e+00 -1.338261e+00
      vertex   1.618034e+00  0.000000e+00 -1.175570e+00
    endloop
  endfacet
  facet normal  0.000000e+00 -1.000000e+00  0.000000e+00
    outer loop
      vertex   0.000000e+00  0.000000e+00  0.000000e+00
      vertex   1.618034e+00  0.000000e+00 -1.175570e+00
      vertex   1.732051e+00  0.000000e+00 -1.000000e+00
    endloop
  endfacet
  facet normal  0.000000e+00 -1.000000e+00  0.000000e+00
    outer loop
      vertex   0.000000e+00  0.000000e+00  0.000000e+00
      vertex   1.732051e+00  0.000000e+00 -1.000000e+00
      vertex   1.827091e+00  0.000000e+00 -8.134733e-01
    endloop
  endfacet
  facet normal  0.000000e+00 -1.000000e+00  0.000000e+00
    outer loop
      vertex   0.000000e+00  0.000000e+00  0.000000e+00
      vertex   1.827091e+00  0.000000e+00 -8.134733e-01
      vertex   1.902113e+00  0.000000e+00 -6.180340e-01
    endloop
  endfacet
  facet normal  0.000000e+00 -1.000000e+00  0.000000e+00
    outer loop
      vertex   0.000000e+00  0.000000e+00  0.000000e+00
      vertex   1.902113e+00  0.000000e+00 -6.180340e-01
      vertex   1.956295e+00  0.000000e+00 -4.158234e-01
    endloop
  endfacet
  facet normal  0.000000e+00 -1.000000e+00  0.000000e+00
    outer loop
      vertex   0.000000e+00  0.000000e+00  0.000000e+00
      vertex   1.956295e+00  0.000000e+00 -4.158234e-01
      vertex   1.989044e+00  0.000000e+00 -2.090569e-01
    endloop
  endfacet
  facet normal  0.000000e+00 -1.000000e+00  0.000000e+00
    outer loop
      vertex   0.000000e+00  0.000000e+00  0.000000e+00
      vertex   1.989044e+00  0.000000e+00 -2.090569e-01
      vertex   2.000000e+00  0.000000e+00  0.000000e+00
    endloop
  endfacet
  facet normal  0.000000e+00  1.000000e+00  0.000000e+00
    outer loop
      vertex   0.000000e+00  2.000000e+01  0.000000e+00
      vertex   1.989044e+00  2.000000e+01  2.090569e-01
      vertex   2.000000e+00  2.000000e+01  0.000000e+00
    endloop
  endfacet
  facet normal  0.000000e+00  1.000000e+00  0.000000e+00
    outer loop
      vertex   0.000000e+00  2.000000e+01  0.000000e+00
      vertex   1.956295e+00  2.000000e+01  4.158234e-01
      vertex   1.989044e+00  2.000000e+01  2.090569e-01
    endloop
  endfacet
  facet normal  0.000000e+00  1.000000e+00  0.000000e+00
    outer loop
      vertex   0.000000e+00  2.000000e+01  0.000000e+00
      vertex   1.902113e+00  2.000000e+01  6.180340e-01
      vertex   1.956295e+00  2.000000e+01  4.158234e-01
    endloop
  endfacet
  facet normal  0.000000e+00  1.000000e+00  0.000000e+00
    outer loop
      vertex   0.000000e+00  2.000000e+01  0.000000e+00
      vertex   1.827091e+00  2.000000e+01  8.134733e-01
      vertex   1.902113e+00  2.000000e+01  6.180340e-01
    endloop
  endfacet
  facet normal  0.000000e+00  1.000000e+00  0.000000e+00
    outer loop
      vertex   0.000000e+00  2.000000e+01  0.000000e+00
      vertex   1.732051e+00  2.000000e+01  1.000000e+00
      vertex   1.827091e+00  2.000000e+01  8.134733e-01
    endloop
  endfacet
  facet normal  0.000000e+00  1.000000e+00  0.000000e+00
    outer loop
      vertex   0.000000e+00  2.000000e+01  0.000000e+00
      vertex   1.618034e+00  2.000000e+01  1.175570e+00
      vertex   1.732051e+00  2.000000e+01  1.000000e+00
    endloop
  endfacet
  facet normal  0.000000e+00  1.000000e+00  0.000000e+00
    outer loop
      vertex   0.000000e+00  2.000000e+01  0.000000e+00
      vertex   1.486290e+00  2.000000e+01  1.338261e+00
      vertex   1.618034e+00  2.000000e+01  1.175570e+00
    endloop
  endfacet
  facet normal  0.000000e+00  1.000000e+00  0.000000e+00
    outer loop
      vertex   0.000000e+00  2.000000e+01  0.000000e+00
      vertex   1.338261e+00  2.000000e+01  1.486290e+00
      vertex   1.486290e+00  2.000000e+01  1.338261e+00
    endloop
  endfacet
  facet normal  0.000000e+00  1.000000e+00  0.000000e+00
    outer loop
      vertex   0.000000e+00  2.000000e+01  0.000000e+00
      vertex   1.175570e+00  2.000000e+01  1.618034e+00
      vertex   1.338261e+00  2.000000e+01  1.486290e+00
    endloop
  endfacet
  facet normal  0.000000e+00  1.000000e+00  0.000000e+00
    outer loop
      vertex   0.000000e+00  2.000000e+01  0.000000e+00
      vertex   1.000000e+00  2.000000e+01  1.732051e+00
      vertex   1.175570e+00  2.000000e+01  1.618034e+00
    endloop
  endfacet
  facet normal  0.000000e+00  1.000000e+00  0.000000e+00
    outer loop
      vertex   0.000000e+00  2.000000e+01  0.000000e+00
      vertex   8.134733e-01  2.000000e+01  1.827091e+00
      vertex   1.000000e+00  2.000000e+01  1.732051e+00
    endloop
  endfacet
  facet normal  0.000000e+00  1.000000e+00  0.000000e+00
    outer loop
      vertex   0.000000e+00  2.000000e+01  0.000000e+00
      vertex   6.180340e-01  2.000000e+01  1.902113e+00
      vertex   8.134733e-01  2.000000e+01  1.827091e+00
    endloop
  endfacet
  facet normal  0.000000e+00  1.000000e+00  0.000000e+00
    outer loop
      vertex   0.000000e+00  2.000000e+01  0.000000e+00
      vertex   4.158234e-01  2.000000e+01  1.956295e+00
      vertex   6.180340e-01  2.000000e+01  1.902113e+00
    endloop
  endfacet
  facet normal  0.000000e+00  1.000000e+00  0.000000e+00
    outer loop
      vertex   0.000000e+00  2.000000e+01  0.000000e+00
      vertex   2.090569e-01  2.000000e+01  1.989044e+00
      vertex   4.158234e-01  2.000000e+01  1.956295e+00
    endloop
  endfacet
  facet normal  0.000000e+00  1.000000e+00  0.000000e+00
    outer loop
      vertex   0.000000e+00  2.000000e+01  0.000000e+00
      vertex   1.224647e-16  2.000000e+01  2.000000e+00
      vertex   2.090569e-01  2.000000e+01  1.989044e+00
    endloop
  endfacet
  facet normal  0.000000e+00  1.000000e+00 -0.000000e+00
    outer loop
      vertex   0.000000e+00  2.000000e+01  0.000000e+00
      vertex  -2.090569e-01  2.000000e+01  1.989044e+00
      vertex   1.224647e-16  2.000000e+01  2.000000e+00
    endloop
  endfacet
  facet normal  0.000000e+00  1.000000e+00  0.000000e+00
    outer loop
      vertex   0.000000e+00  2.000000e+01  0.000000e+00
      vertex  -4.158234e-01  2.000000e+01  1.956295e+00
      vertex  -2.090569e-01  2.000000e+01  1.989044e+00
    endloop
  endfacet
  facet normal  0.000000e+00  1.000000e+00  0.000000e+00
    outer loop
      vertex   0.000000e+00  2.000000e+01  0.000000e+00
      vertex  -6.180340e-01  2.000000e+01  1.902113e+00
      vertex  -4.158234e-01  2.000000e+01  1.956295e+00
    endloop
  endfacet
  facet normal  0.000000e+00  1.000000e+00  0.000000e+00
    outer loop
      vertex   0.000000e+00  2.000000e+01  0.000000e+00
      vertex  -8.134733e-01  2.000000e+01  1.827091e+00
      vertex  -6.180340e-01  2.000000e+01  1.902113e+00
    endloop
  endfacet
  facet normal  0.000000e+00  1.000000e+00  0.000000e+00
    outer loop
      vertex   0.000000e+00  2.000000e+01  0.000000e+00
      vertex  -1.000000e+00  2.000000e+01  1.732051e+00
      vertex  -8.134733e-01  2.000000e+01  1.827091e+00
    endloop
  endfacet
  facet normal  0.000000e+00  1.000000e+00  0.000000e+00
    outer loop
      vertex   0.000000e+00  2.000000e+01  0.000000e+00
      vertex  -1.175570e+00  2.000000e+01  1.618034e+00
      vertex  -1.000000e+00  2.000000e+01  1.732051e+00
    endloop
  endfacet
  facet normal  0.000000e+00  1.000000e+00  0.000000e+00
    outer loop
      vertex   0.000000e+00  2.000000e+01  0.000000e+00
      vertex  -1.338261e+00  2.000000e+01  1.486290e+00
      vertex  -1.175570e+00  2.000000e+01  1.618034e+00
    endloop
  endfacet
  facet normal  0.000000e+00  1.000000e+00  0.000000e+00
    outer loop
      vertex   0.000000e+00  2.000000e+01  0.000000e+00
      vertex  -1.486290e+00  2.000000e+01  1.338261e+00
      vertex  -1.338261e+00  2.000000e+01  1.486290e+00
    endloop
  endfacet
  facet normal  0.000000e+00  1.000000e+00  0.000000e+00
    outer loop
      vertex   0.000000e+00  2.000000e+01  0.000000e+00
      vertex  -1.618034e+00  2.000000e+01  1.175570e+00
      vertex  -1.486290e+00  2.000000e+01  1.338261e+00
    endloop
  endfacet
  facet normal  0.000000e+00  1.000000e+00  0.000000e+00
    outer loop
      vertex   0.000000e+00  2.000000e+01  0.000000e+00
      vertex  -1.732051e+00  2.000000e+01  1.000000e+00
      vertex  -1.618034e+00  2.000000e+01  1.175570e+00
    endloop
  endfacet
  facet normal  0.000000e+00  1.000000e+00  0.000000e+00
    outer loop
      vertex   0.000000e+00  2.000000e+01  0.000000e+00
      vertex  -1.827091e+00  2.000000e+01  8.134733e-01
      vertex  -1.732051e+00  2.000000e+01  1.000000e+00
    endloop
  endfacet
  facet normal  0.000000e+00  1.000000e+00  0.000000e+00
    outer loop
      vertex   0.000000e+00  2.000000e+01  0.000000e+00
      vertex  -1.902113e+00  2.000000e+01  6.180340e-01
      vertex  -1.827091e+00  2.000000e+01  8.134733e-01
    endloop
  endfacet
  facet normal  0.000000e+00  1.000000e+00  0.000000e+00
    outer loop
      vertex   0.000000e+00  2.000000e+01  0.000000e+00
      vertex  -1.956295e+00  2.000000e+01  4.158234e-01
      vertex  -1.902113e+00  2.000000e+01  6.180340e-01
    endloop
  endfacet
  facet normal  0.000000e+00  1.000000e+00  0.000000e+00
    outer loop
      vertex   0.000000e+00  2.000000e+01  0.000000e+00
      vertex  -1.989044e+00  2.000000e+01  2.090569e-01
      vertex  -1.956295e+00  2.000000e+01  4.158234e-01
    endloop
  endfacet
  facet normal  0.000000e+00  1.000000e+00  0.000000e+00
    outer loop
      vertex   0.000000e+00  2.000000e+01  0.000000e+00
      vertex  -2.000000e+00  2.000000e+01  2.449294e-16
      vertex  -1.989044e+00  2.000000e+01  2.090569e-01
    endloop
  endfacet
  facet normal  0.000000e+00  1.000000e+00  0.000000e+00
    outer loop
      vertex   0.000000e+00  2.000000e+01  0.000000e+00
      vertex  -1.989044e+00  2.000000e+01 -2.090569e-01
      vertex  -2.000000e+00  2.000000e+01  2.449294e-16
    endloop
  endfacet
  facet normal  0.000000e+00  1.000000e+00  0.000000e+00
    outer loop
      vertex   0.000000e+00  2.000000e+01  0.000000e+00
      vertex  -1.956295e+00  2.000000e+01 -4.158234e-01
      vertex  -1.989044e+00  2.000000e+01 -2.090569e-01
    endloop
  endfacet
  facet normal  0.000000e+00  1.000000e+00  0.000000e+00
    outer loop
      vertex   0.000000e+00  2.000000e+01  0.000000e+00
      vertex  -1.902113e+00  2.000000e+01 -6.180340e-01
      vertex  -1.956295e+00  2.000000e+01 -4.158234e-01
    endloop
  endfacet
  facet normal  0.000000e+00  1.000000e+00  0.000000e+00
    outer loop
      vertex   0.000000e+00  2.000000e+01  0.000000e+00
      vertex  -1.827091e+00  2.000000e+01 -8.134733e-01
      vertex  -1.902113e+00  2.000000e+01 -6.180340e-01
    endloop
  endfacet
  facet normal  0.000000e+00  1.000000e+00  0.000000e+00
    outer loop
      vertex   0.000000e+00  2.000000e+01  0.000000e+00
      vertex  -1.732051e+00  2.000000e+01 -1.000000e+00
      vertex  -1.827091e+00  2.000000e+01 -8.134733e-01
    endloop
  endfacet
  facet normal  0.000000e+00  1.000000e+00  0.000000e+00
    outer loop
      vertex   0.000000e+00  2.000000e+01  0.000000e+00
      vertex  -1.618034e+00  2.000000e+01 -1.175570e+00
      vertex  -1.732051e+00  2.000000e+01 -1.000000e+00
    endloop
  endfacet
  facet normal  0.000000e+00  1.000000e+00  0.000000e+00
    outer loop
      vertex   0.000000e+00  2.000000e+01  0.000000e+00
      vertex  -1.486290e+00  2.000000e+01 -1.338261e+00
      vertex  -1.618034e+00  2.000000e+01 -1.175570e+00
    endloop
  endfacet
  facet normal  0.000000e+00  1.000000e+00  0.000000e+00
    outer loop
      vertex   0.000000e+00  2.000000e+01  0.000000e+00
      vertex  -1.338261e+00  2.000000e+01 -1.486290e+00
      vertex  -1.486290e+00  2.000000e+01 -1.338261e+00
    endloop
  endfacet
  facet normal  0.000000e+00  1.000000e+00  0.000000e+00
    outer loop
      vertex   0.000000e+00  2.000000e+01  0.000000e+00
      vertex  -1.175570e+00  2.000000e+01 -1.618034e+00
      vertex  -1.338261e+00  2.000000e+01 -1.486290e+00
    endloop
  endfacet
  facet normal  0.000000e+00  1.000000e+00  0.000000e+00
    outer loop
      vertex   0.000000e+00  2.000000e+01  0.000000e+00
      vertex  -1.000000e+00  2.000000e+01 -1.732051e+00
      vertex  -1.175570e+00  2.000000e+01 -1.618034e+00
    endloop
  endfacet
  facet normal  0.000000e+00  1.000000e+00  0.000000e+00
    outer loop
      vertex   0.000000e+00  2.000000e+01  0.000000e+00
      vertex  -8.134733e-01  2.000000e+01 -1.827091e+00
      vertex  -1.000000e+00  2.000000e+01 -1.732051e+00
    endloop
  endfacet
  facet normal  0.000000e+00  1.000000e+00  0.000000e+00
    outer loop
      vertex   0.000000e+00  2.000000e+01  0.000000e+00
      vertex  -6.180340e-01  2.000000e+01 -1.902113e+00
      vertex  -8.134733e-01  2.000000e+01 -1.827091e+00
    endloop
  endfacet
  facet normal  0.000000e+00  1.000000e+00  0.000000e+00
    outer loop
      vertex   0.000000e+00  2.000000e+01  0.000000e+00
      vertex  -4.158234e-01  2.000000e+01 -1.956295e+00
      vertex  -6.180340e-01  2.000000e+01 -1.902113e+00
    endloop
  endfacet
  facet normal  0.000000e+00  1.000000e+00  0.000000e+00
    outer loop
      vertex   0.000000e+00  2.000000e+01  0.000000e+00
      vertex  -2.090569e-01  2.000000e+01 -1.989044e+00
      vertex  -4.158234e-01  2.000000e+01 -1.956295e+00
    endloop
  endfacet
  facet normal  0.000000e+00  1.000000e+00  0.000000e+00
    outer loop
      vertex   0.000000e+00  2.000000e+01  0.000000e+00
      vertex  -3.673940e-16  2.000000e+01 -2.000000e+00
      vertex  -2.090569e-01  2.000000e+01 -1.989044e+00
    endloop
  endfacet
  facet normal  0.000000e+00  1.000000e+00  0.000000e+00
    outer loop
      vertex   0.000000e+00  2.000000e+01  0.000000e+00
      vertex   2.090569e-01  2.000000e+01 -1.989044e+00
      vertex  -3.673940e-16  2.000000e+01 -2.000000e+00
    endloop
  endfacet
  facet normal  0.000000e+00  1.000000e+00  0.000000e+00
    outer loop
      vertex   0.000000e+00  2.000000e+01  0.000000e+00
      vertex   4.158234e-01  2.000000e+01 -1.956295e+00
      vertex   2.090569e-01  2.000000e+01 -1.989044e+00
    endloop
  endfacet
  facet normal  0.000000e+00  1.000000e+00  0.000000e+00
    outer loop
      vertex   0.000000e+00  2.000000e+01  0.000000e+00
      vertex   6.180340e-01  2.000000e+01 -1.902113e+00
      vertex   4.158234e-01  2.000000e+01 -1.956295e+00
    endloop
  endfacet
  facet normal  0.000000e+00  1.000000e+00  0.000000e+00
    outer loop
      vertex   0.000000e+00  2.000000e+01  0.000000e+00
      vertex   8.134733e-01  2.000000e+01 -1.827091e+00
      vertex   6.180340e-01  2.000000e+01 -1.902113e+00
    endloop
  endfacet
  facet normal  0.000000e+00  1.000000e+00  0.000000e+00
    outer loop
      vertex   0.000000e+00  2.000000e+01  0.000000e+00
      vertex   1.000000e+00  2.000000e+01 -1.732051e+00
      vertex   8.134733e-01  2.000000e+01 -1.827091e+00
    endloop
  endfacet
  facet normal  0.000000e+00  1.000000e+00  0.000000e+00
    outer loop
      vertex   0.000000e+00  2.000000e+01  0.000000e+00
      vertex   1.175570e+00  2.000000e+01 -1.618034e+00
      vertex   1.000000e+00  2.000000e+01 -1.732051e+00
    endloop
  endfacet
  facet normal  0.000000e+00  1.000000e+00  0.000000e+00
    outer loop
      vertex   0.000000e+00  2.000000e+01  0.000000e+00
      vertex   1.338261e+00  2.000000e+01 -1.486290e+00
      vertex   1.175570e+00  2.000000e+01 -1.618034e+00
    endloop
  endfacet
  facet normal  0.000000e+00  1.000000e+00  0.000000e+00
    outer loop
      vertex   0.000000e+00  2.000000e+01  0.000000e+00
      vertex   1.486290e+00  2.000000e+01 -1.338261e+00
      vertex   1.338261e+00  2.000000e+01 -1.486290e+00
    endloop
  endfacet
  facet normal  0.000000e+00  1.000000e+00  0.000000e+00
    outer loop
      vertex   0.000000e+00  2.000000e+01  0.000000e+00
      vertex   1.618034e+00  2.000000e+01 -1.175570e+00
      vertex   1.486290e+00  2.000000e+01 -1.338261e+00
    endloop
  endfacet
  facet normal  0.000000e+00  1.000000e+00  0.000000e+00
    outer loop
      vertex   0.000000e+00  2.000000e+01  0.000000e+00
      vertex   1.732051e+00  2.000000e+01 -1.000000e+00
      vertex   1.618034e+00  2.000000e+01 -1.175570e+00
    endloop
  endfacet
  facet normal  0.000000e+00  1.000000e+00  0.000000e+00
    outer loop
      vertex   0.000000e+00  2.000000e+01  0.000000e+00
      vertex   1.827091e+00  2.000000e+01 -8.134733e-01
      vertex   1.732051e+00  2.000000e+01 -1.000000e+00
    endloop
  endfacet
  facet normal  0.000000e+00  1.000000e+00  0.000000e+00
    outer loop
      vertex   0.000000e+00  2.000000e+01  0.000000e+00
      vertex   1.902113e+00  2.000000e+01 -6.180340e-01
      vertex   1.827091e+00  2.000000e+01 -8.134733e-01
    endloop
  endfacet
  facet normal  0.000000e+00  1.000000e+00  0.000000e+00
    outer loop
      vertex   0.000000e+00  2.000000e+01  0.000000e+00
      vertex   1.956295e+00  2.000000e+01 -4.158234e-01
      vertex   1.902113e+00  2.000000e+01 -6.180340e-01
    endloop
  endfacet
  facet normal  0.000000e+00  1.000000e+00  0.000000e+00
    outer loop
      vertex   0.000000e+00  2.000000e+01  0.000000e+00
      vertex   1.989044e+00  2.000000e+01 -2.090569e-01
      vertex   1.956295e+00  2.000000e+01 -4.158234e-01
    endloop
  endfacet
  facet normal -0.000000e+00  1.000000e+00  0.000000e+00
    outer loop
      vertex   0.000000e+00  2.000000e+01  0.000000e+00
      vertex   2.000000e+00  2.000000e+01  0.000000e+00
      vertex   1.989044e+00  2.000000e+01 -2.090569e-01
    endloop
  endfacet
  facet normal  9.986296e-01 -0.000000e+00  5.233576e-02
    outer loop
      vertex   2.000000e+00  0.000000e+00  0.000000e+00
      vertex   2.000000e+00  2.000000e+01  0.000000e+00
      vertex   1.989044e+00  2.000000e+01  2.090569e-01
    endloop
  endfacet
  facet normal  9.986296e-01  0.000000e+00  5.233576e-02
    outer loop
      vertex   2.000000e+00  0.000000e+00  0.000000e+00
      vertex   1.989044e+00  2.000000e+01  2.090569e-01
      vertex   1.989044e+00  0.000000e+00  2.090569e-01
    endloop
  endfacet
  facet normal  9.876883e-01 -0.000000e+00  1.564344e-01
    outer loop
      vertex   1.989044e+00  0.000000e+00  2.090569e-01
      vertex   1.989044e+00  2.000000e+01  2.090569e-01
      vertex   1.956295e+00  2.000000e+01  4.158234e-01
    endloop
  endfacet
  facet normal  9.876883e-01  0.000000e+00  1.564344e-01
    outer loop
      vertex   1.989044e+00  0.000000e+00  2.090569e-01
      vertex   1.956295e+00  2.000000e+01  4.158234e-01
      vertex   1.956295e+00  0.000000e+00  4.158234e-01
    endloop
  endfacet
  facet normal  9.659258e-01 -0.000000e+00  2.588190e-01
    outer loop
      vertex   1.956295e+00  0.000000e+00  4.158234e-01
      vertex   1.956295e+00  2.000000e+01  4.158234e-01
      vertex   1.902113e+00  2.000000e+01  6.180340e-01
    endloop
  endfacet
  facet normal  9.659258e-01  0.000000e+00  2.588190e-01
    outer loop
      vertex   1.956295e+00  0.000000e+00  4.158234e-01
      vertex   1.902113e+00  2.000000e+01  6.180340e-01
      vertex   1.902113e+00  0.000000e+00  6.180340e-01
    endloop
  endfacet
  facet normal  9.335803e-01 -0.000000e+00  3.583684e-01
    outer loop
      vertex   1.902113e+00  0.000000e+00  6.180340e-01
      vertex   1.902113e+00  2.000000e+01  6.180340e-01
      vertex   1.827091e+00  2.000000e+01  8.134733e-01
    endloop
  endfacet
  facet normal  9.335803e-01  0.000000e+00  3.583684e-01
    outer loop
      vertex   1.902113e+00  0.000000e+00  6.180340e-01
      vertex   1.827091e+00  2.000000e+01  8.134733e-01
      vertex   1.827091e+00  0.000000e+00  8.134733e-01
    endloop
  endfacet
  facet normal  8.910066e-01 -0.000000e+00  4.539904e-01
    outer loop
      vertex   1.827091e+00  0.000000e+00  8.134733e-01
      vertex   1.827091e+00  2.000000e+01  8.134733e-01
      vertex   1.732051e+00  2.000000e+01  1.000000e+00
    endloop
  endfacet
  facet normal  8.910066e-01  0.000000e+00  4.539904e-01
    outer loop
      vertex   1.827091e+00  0.000000e+00  8.134733e-01
      vertex   1.732051e+00  2.000000e+01  1.000000e+00
      vertex   1.732051e+00  0.000000e+00  1.000000e+00
    endloop
  endfacet
  facet normal  8.386706e-01 -0.000000e+00  5.446389e-01
    outer loop
      vertex   1.732051e+00  0.000000e+00  1.000000e+00
      vertex   1.732051e+00  2.000000e+01  1.000000e+00
      vertex   1.618034e+00  2.000000e+01  1.175570e+00
    endloop
  endfacet
  facet normal  8.386706e-01  0.000000e+00  5.446389e-01
    outer loop
      vertex   1.732051e+00  0.000000e+00  1.000000e+00
      vertex   1.618034e+00  2.000000e+01  1.175570e+00
      vertex   1.618034e+00  0.000000e+00  1.175570e+00
    endloop
  endfacet
  facet normal  7.771459e-01 -0.000000e+00  6.293204e-01
    outer loop
      vertex   1.618034e+00  0.000000e+00  1.175570e+00
      vertex   1.618034e+00  2.000000e+01  1.175570e+00
      vertex   1.486290e+00  2.000000e+01  1.338261e+00
    endloop
  endfacet
  facet normal  7.771459e-01  0.000000e+00  6.293204e-01
    outer loop
      vertex   1.618034e+00  0.000000e+00  1.175570e+00
      vertex   1.486290e+00  2.000000e+01  1.338261e+00
      vertex   1.486290e+00  0.000000e+00  1.338261e+00
    endloop
  endfacet
  facet normal  7.071068e-01 -0.000000e+00  7.071068e-01
    outer loop
      vertex   1.486290e+00  0.000000e+00  1.338261e+00
      vertex   1.486290e+00  2.000000e+01  1.338261e+00
      vertex   1.338261e+00  2.000000e+01  1.486290e+00
    endloop
  endfacet
  facet normal  7.071068e-01  0.000000e+00  7.071068e-01
    outer loop
      vertex   1.486290e+00  0.000000e+00  1.338261e+00
      vertex   1.338261e+00  2.000000e+01  1.486290e+00
      vertex   1.338261e+00  0.000000e+00  1.486290e+00
    endloop
  endfacet
  facet normal  6.293204e-01 -0.000000e+00  7.771459e-01
    outer loop
      vertex   1.338261e+00  0.000000e+00  1.486290e+00
      vertex   1.338261e+00  2.000000e+01  1.486290e+00
      vertex   1.175570e+00  2.000000e+01  1.618034e+00
    endloop
  endfacet
  facet normal  6.293204e-01  0.000000e+00  7.771459e-01
    outer loop
      vertex   1.338261e+00  0.000000e+00  1.486290e+00
      vertex   1.175570e+00  2.000000e+01  1.618034e+00
      vertex   1.175570e+00  0.000000e+00  1.618034e+00
    endloop
  endfacet
  facet normal  5.446389e-01 -0.000000e+00  8.386706e-01
    outer loop
      vertex   1.175570e+00  0.000000e+00  1.618034e+00
      vertex   1.175570e+00  2.000000e+01  1.618034e+00
      vertex   1.000000e+00  2.000000e+01  1.732051e+00
    endloop
  endfacet
  facet normal  5.446389e-01  0.000000e+00  8.386706e-01
    outer loop
      vertex   1.175570e+00  0.000000e+00  1.618034e+00
      vertex   1.000000e+00  2.000000e+01  1.732051e+00
      vertex   1.000000e+00  0.000000e+00  1.732051e+00
    endloop
  endfacet
  facet normal  4.539904e-01 -0.000000e+00  8.910066e-01
    outer loop
      vertex   1.000000e+00  0.000000e+00  1.732051e+00
      vertex   1.000000e+00  2.000000e+01  1.732051e+00
      vertex   8.134733e-01  2.000000e+01  1.827091e+00
    endloop
  endfacet
  facet normal  4.539904e-01  0.000000e+00  8.910066e-01
    outer loop
      vertex   1.000000e+00  0.000000e+00  1.732051e+00
      vertex   8.134733e-01  2.000000e+01  1.827091e+00
      vertex   8.134733e-01  0.000000e+00  1.827091e+00
    endloop
  endfacet
  facet normal  3.583684e-01 -0.000000e+00  9.335803e-01
    outer loop
      vertex   8.134733e-01  0.000000e+00  1.827091e+00
      vertex   8.134733e-01  2.000000e+01  1.827091e+00
      vertex   6.180340e-01  2.000000e+01  1.902113e+00
    endloop
  endfacet
  facet normal  3.583684e-01  0.000000e+00  9.335803e-01
    outer loop
      vertex   8.134733e-01  0.000000e+00  1.827091e+00
      vertex   6.180340e-01  2.000000e+01  1.902113e+00
      vertex   6.180340e-01  0.000000e+00  1.902113e+00
    endloop
  endfacet
  facet normal  2.588190e-01 -0.000000e+00  9.659258e-01
    outer loop
      vertex   6.180340e-01  0.000000e+00  1.902113e+00
      vertex   6.180340e-01  2.000000e+01  1.902113e+00
      vertex   4.158234e-01  2.000000e+01  1.956295e+00
    endloop
  endfacet
  facet normal  2.588190e-01  0.000000e+00  9.659258e-01
    outer loop
      vertex   6.180340e-01  0.000000e+00  1.902113e+00
      vertex   4.158234e-01  2.000000e+01  1.956295e+00
      vertex   4.158234e-01  0.000000e+00  1.956295e+00
    endloop
  endfacet
  facet normal  1.564344e-01 -0.000000e+00  9.876883e-01
    outer loop
      vertex   4.158234e-01  0.000000e+00  1.956295e+00
      vertex   4.158234e-01  2.000000e+01  1.956295e+00
      vertex   2.090569e-01  2.000000e+01  1.989044e+00
    endloop
  endfacet
  facet normal  1.564344e-01  0.000000e+00  9.876883e-01
    outer loop
      vertex   4.158234e-01  0.000000e+00  1.956295e+00
      vertex   2.090569e-01  2.000000e+01  1.989044e+00
      vertex   2.090569e-01  0.000000e+00  1.989044e+00
    endloop
  endfacet
  facet normal  5.233576e-02 -0.000000e+00  9.986296e-01
    outer loop
      vertex   2.090569e-01  0.000000e+00  1.989044e+00
      vertex   2.090569e-01  2.000000e+01  1.989044e+00
      vertex   1.224647e-16  2.000000e+01  2.000000e+00
    endloop
  endfacet
  facet normal  5.233576e-02  0.000000e+00  9.986296e-01
    outer loop
      vertex   2.090569e-01  0.000000e+00  1.989044e+00
      vertex   1.224647e-16  2.000000e+01  2.000000e+00
      vertex   1.224647e-16  0.000000e+00  2.000000e+00
    endloop
  endfacet
  facet normal -5.233576e-02  0.000000e+00  9.986296e-01
    outer loop
      vertex   1.224647e-16  0.000000e+00  2.000000e+00
      vertex   1.224647e-16  2.000000e+01  2.000000e+00
      vertex  -2.090569e-01  2.000000e+01  1.989044e+00
    endloop
  endfacet
  facet normal -5.233576e-02  0.000000e+00  9.986296e-01
    outer loop
      vertex   1.224647e-16  0.000000e+00  2.000000e+00
      vertex  -2.090569e-01  2.000000e+01  1.989044e+00
      vertex  -2.090569e-01  0.000000e+00  1.989044e+00
    endloop
  endfacet
  facet normal -1.564344e-01  0.000000e+00  9.876883e-01
    outer loop
      vertex  -2.090569e-01  0.000000e+00  1.989044e+00
      vertex  -2.090569e-01  2.000000e+01  1.989044e+00
      vertex  -4.158234e-01  2.000000e+01  1.956295e+00
    endloop
  endfacet
  facet normal -1.564344e-01  0.000000e+00  9.876883e-01
    outer loop
      vertex  -2.090569e-01  0.000000e+00  1.989044e+00
      vertex  -4.158234e-01  2.000000e+01  1.956295e+00
      vertex  -4.158234e-01  0.000000e+00  1.956295e+00
    endloop
  endfacet
  facet normal -2.588190e-01  0.000000e+00  9.659258e-01
    outer loop
      vertex  -4.158234e-01  0.000000e+00  1.956295e+00
      vertex  -4.158234e-01  2.000000e+01  1.956295e+00
      vertex  -6.180340e-01  2.000000e+01  1.902113e+00
    endloop
  endfacet
  facet normal -2.588190e-01  0.000000e+00  9.659258e-01
    outer loop
      vertex  -4.158234e-01  0.000000e+00  1.956295e+00
      vertex  -6.180340e-01  2.000000e+01  1.902113e+00
      vertex  -6.180340e-01  0.000000e+00  1.902113e+00
    endloop
  endfacet
  facet normal -3.583684e-01  0.000000e+00  9.335803e-01
    outer loop
      vertex  -6.180340e-01  0.000000e+00  1.902113e+00
      vertex  -6.180340e-01  2.000000e+01  1.902113e+00
      vertex  -8.134733e-01  2.000000e+01  1.827091e+00
    endloop
  endfacet
  facet normal -3.583684e-01  0.000000e+00  9.335803e-01
    outer loop
      vertex  -6.180340e-01  0.000000e+00  1.902113e+00
      vertex  -8.134733e-01  2.000000e+01  1.827091e+00
      vertex  -8.134733e-01  0.000000e+00  1.827091e+00
    endloop
  endfacet
  facet normal -4.539904e-01  0.000000e+00  8.910066e-01
    outer loop
      vertex  -8.134733e-01  0.000000e+00  1.827091e+00
      vertex  -8.134733e-01  2.000000e+01  1.827091e+00
      vertex  -1.000000e+00  2.000000e+01  1.732051e+00
    endloop
  endfacet
  facet normal -4.539904e-01  0.000000e+00  8.910066e-01
    outer loop
      vertex  -8.134733e-01  0.000000e+00  1.827091e+00
      vertex  -1.000000e+00  2.000000e+01  1.732051e+00
      vertex  -1.000000e+00  0.000000e+00  1.732051e+00
    endloop
  endfacet
  facet normal -5.446389e-01  0.000000e+00  8.386706e-01
    outer loop
      vertex  -1.000000e+00  0.000000e+00  1.732051e+00
      vertex  -1.000000e+00  2.000000e+01  1.732051e+00
      vertex  -1.175570e+00  2.000000e+01  1.618034e+00
    endloop
  endfacet
  facet normal -5.446389e-01  0.000000e+00  8.386706e-01
    outer loop
      vertex  -1.000000e+00  0.000000e+00  1.732051e+00
      vertex  -1.175570e+00  2.000000e+01  1.618034e+00
      vertex  -1.175570e+00  0.000000e+00  1.618034e+00
    endloop
  endfacet
  facet normal -6.293204e-01  0.000000e+00  7.771459e-01
    outer loop
      vertex  -1.175570e+00  0.000000e+00  1.618034e+00
      vertex  -1.175570e+00  2.000000e+01  1.618034e+00
      vertex  -1.338261e+00  2.000000e+01  1.486290e+00
    endloop
  endfacet
  facet normal -6.293204e-01  0.000000e+00  7.771459e-01
    outer loop
      vertex  -1.175570e+00  0.000000e+00  1.618034e+00
      vertex  -1.338261e+00  2.000000e+01  1.486290e+00
      vertex  -1.338261e+00  0.000000e+00  1.486290e+00
    endloop
  endfacet
  facet normal -7.071068e-01  0.000000e+00  7.071068e-01
    outer loop
      vertex  -1.338261e+00  0.000000e+00  1.486290e+00
      vertex  -1.338261e+00  2.000000e+01  1.486290e+00
      vertex  -1.486290e+00  2.000000e+01  1.338261e+00
    endloop
  endfacet
  facet normal -7.071068e-01  0.000000e+00  7.071068e-01
    outer loop
      vertex  -1.338261e+00  0.000000e+00  1.486290e+00
      vertex  -1.486290e+00  2.000000e+01  1.338261e+00
      vertex  -1.486290e+00  0.000000e+00  1.338261e+00
    endloop
  endfacet
  facet normal -7.771459e-01  0.000000e+00  6.293204e-01
    outer loop
      vertex  -1.486290e+00  0.000000e+00  1.338261e+00
      vertex  -1.486290e+00  2.000000e+01  1.338261e+00
      vertex  -1.618034e+00  2.000000e+01  1.175570e+00
    endloop
  endfacet
  facet normal -7.771459e-01  0.000000e+00  6.293204e-01
    outer loop
      vertex  -1.486290e+00  0.000000e+00  1.338261e+00
      vertex  -1.618034e+00  2.000000e+01  1.175570e+00
      vertex  -1.618034e+00  0.000000e+00  1.175570e+00
    endloop
  endfacet
  facet normal -8.386706e-01  0.000000e+00  5.446389e-01
    outer loop
      vertex  -1.618034e+00  0.000000e+00  1.175570e+00
      vertex  -1.618034e+00  2.000000e+01  1.175570e+00
      vertex  -1.732051e+00  2.000000e+01  1.000000e+00
    endloop
  endfacet
  facet normal -8.386706e-01  0.000000e+00  5.446389e-01
    outer loop
      vertex  -1.618034e+00  0.000000e+00  1.175570e+00
      vertex  -1.732051e+00  2.000000e+01  1.000000e+00
      vertex  -1.732051e+00  0.000000e+00  1.000000e+00
    endloop
  endfacet
  facet normal -8.910066e-01  0.000000e+00  4.539904e-01
    outer loop
      vertex  -1.732051e+00  0.000000e+00  1.000000e+00
      vertex  -1.732051e+00  2.000000e+01  1.000000e+00
      vertex  -1.827091e+00  2.000000e+01  8.134733e-01
    endloop
  endfacet
  facet normal -8.910066e-01  0.000000e+00  4.539904e-01
    outer loop
      vertex  -1.732051e+00  0.000000e+00  1.000000e+00
      vertex  -1.827091e+00  2.000000e+01  8.134733e-01
      vertex  -1.827091e+00  0.000000e+00  8.134733e-01
    endloop
  endfacet
  facet normal -9.335803e-01  0.000000e+00  3.583684e-01
    outer loop
      vertex  -1.827091e+00  0.000000e+00  8.134733e-01
      vertex  -1.827091e+00  2.000000e+01  8.134733e-01
      vertex  -1.902113e+00  2.000000e+01  6.180340e-01
    endloop
  endfacet
  facet normal -9.335803e-01  0.000000e+00  3.583684e-01
    outer loop
      vertex  -1.827091e+00  0.000000e+00  8.134733e-01
      vertex  -1.902113e+00  2.000000e+01  6.180340e-01
      vertex  -1.902113e+00  0.000000e+00  6.180340e-01
    endloop
  endfacet
  facet normal -9.659258e-01  0.000000e+00  2.588190e-01
    outer loop
      vertex  -1.902113e+00  0.000000e+00  6.180340e-01
      vertex  -1.902113e+00  2.000000e+01  6.180340e-01
      vertex  -1.956295e+00  2.000000e+01  4.158234e-01
    endloop
  endfacet
  facet normal -9.659258e-01  0.000000e+00  2.588190e-01
    outer loop
      vertex  -1.902113e+00  0.000000e+00  6.180340e-01
      vertex  -1.956295e+00  2.000000e+01  4.158234e-01
      vertex  -1.956295e+00  0.000000e+00  4.158234e-01
    endloop
  endfacet
  facet normal -9.876883e-01  0.000000e+00  1.564344e-01
    outer loop
      vertex  -1.956295e+00  0.000000e+00  4.158234e-01
      vertex  -1.956295e+00  2.000000e+01  4.158234e-01
      vertex  -1.989044e+00  2.000000e+01  2.090569e-01
    endloop
  endfacet
  facet normal -9.876883e-01  0.000000e+00  1.564344e-01
    outer loop
      vertex  -1.956295e+00  0.000000e+00  4.158234e-01
      vertex  -1.989044e+00  2.000000e+01  2.090569e-01
      vertex  -1.989044e+00  0.000000e+00  2.090569e-01
    endloop
  endfacet
  facet normal -9.986296e-01  0.000000e+00  5.233576e-02
    outer loop
      vertex  -1.989044e+00  0.000000e+00  2.090569e-01
      vertex  -1.989044e+00  2.000000e+01  2.090569e-01
      vertex  -2.000000e+00  2.000000e+01  2.449294e-16
    endloop
  endfacet
  facet normal -9.986296e-01  0.000000e+00  5.233576e-02
    outer loop
      vertex  -1.989044e+00  0.000000e+00  2.090569e-01
      vertex  -2.000000e+00  2.000000e+01  2.449294e-16
      vertex  -2.000000e+00  0.000000e+00  2.449294e-16
    endloop
  endfacet
  facet normal -9.986296e-01  0.000000e+00 -5.233576e-02
    outer loop
      vertex  -2.000000e+00  0.000000e+00  2.449294e-16
      vertex  -2.000000e+00  2.000000e+01  2.449294e-16
      vertex  -1.989044e+00  2.000000e+01 -2.090569e-01
    endloop
  endfacet
  facet normal -9.986296e-01  0.000000e+00 -5.233576e-02
    outer loop
      vertex  -2.000000e+00  0.000000e+00  2.449294e-16
      vertex  -1.989044e+00  2.000000e+01 -2.090569e-01
      vertex  -1.989044e+00  0.000000e+00 -2.090569e-01
    endloop
  endfacet
  facet normal -9.876883e-01  0.000000e+00 -1.564344e-01
    outer loop
      vertex  -1.989044e+00  0.000000e+00 -2.090569e-01
      vertex  -1.989044e+00  2.000000e+01 -2.090569e-01
      vertex  -1.956295e+00  2.000000e+01 -4.158234e-01
    endloop
  endfacet
  facet normal -9.876883e-01  0.000000e+00 -1.564344e-01
    outer loop
      vertex  -1.989044e+00  0.000000e+00 -2.090569e-01
      vertex  -1.956295e+00  2.000000e+01 -4.158234e-01
      vertex  -1.956295e+00  0.000000e+00 -4.158234e-01
    endloop
  endfacet
  facet normal -9.659258e-01  0.000000e+00 -2.588190e-01
    outer loop
      vertex  -1.956295e+00  0.000000e+00 -4.158234e-01
      vertex  -1.956295e+00  2.000000e+01 -4.158234e-01
      vertex  -1.902113e+00  2.000000e+01 -6.180340e-01
    endloop
  endfacet
  facet normal -9.659258e-01  0.000000e+00 -2.588190e-01
    outer loop
      vertex  -1.956295e+00  0.000000e+00 -4.158234e-01
      vertex  -1.902113e+00  2.000000e+01 -6.180340e-01
      vertex  -1.902113e+00  0.000000e+00 -6.180340e-01
    endloop
  endfacet
  facet normal -9.335803e-01  0.000000e+00 -3.583684e-01
    outer loop
      vertex  -1.902113e+00  0.000000e+00 -6.180340e-01
      vertex  -1.902113e+00  2.000000e+01 -6.180340e-01
      vertex  -1.827091e+00  2.000000e+01 -8.134733e-01
    endloop
  endfacet
  facet normal -9.335803e-01  0.000000e+00 -3.583684e-01
    outer loop
      vertex  -1.902113e+00  0.000000e+00 -6.180340e-01
      vertex  -1.827091e+00  2.000000e+01 -8.134733e-01
      vertex  -1.827091e+00  0.000000e+00 -8.134733e-01
    endloop
  endfacet
  facet normal -8.910066e-01  0.000000e+00 -4.539904e-01
    outer loop
      vertex  -1.827091e+00  0.000000e+00 -8.134733e-01
      vertex  -1.827091e+00  2.000000e+01 -8.134733e-01
      vertex  -1.732051e+00  2.000000e+01 -1.000000e+00
    endloop
  endfacet
  facet normal -8.910066e-01  0.000000e+00 -4.539904e-01
    outer loop
      vertex  -1.827091e+00  0.000000e+00 -8.134733e-01
      vertex  -1.732051e+00  2.000000e+01 -1.000000e+00
      vertex  -1.732051e+00  0.000000e+00 -1.000000e+00
    endloop
  endfacet
  facet normal -8.386706e-01  0.000000e+00 -5.446389e-01
    outer loop
      vertex  -1.732051e+00  0.000000e+00 -1.000000e+00
      vertex  -1.732051e+00  2.000000e+01 -1.000000e+00
      vertex  -1.618034e+00  2.000000e+01 -1.175570e+00
    endloop
  endfacet
  facet normal -8.386706e-01  0.000000e+00 -5.446389e-01
    outer loop
      vertex  -1.732051e+00  0.000000e+00 -1.000000e+00
      vertex  -1.618034e+00  2.000000e+01 -1.175570e+00
      vertex  -1.618034e+00  0.000000e+00 -1.175570e+00
    endloop
  endfacet
  facet normal -7.771459e-01  0.000000e+00 -6.293204e-01
    outer loop
      vertex  -1.618034e+00  0.000000e+00 -1.175570e+00
      vertex  -1.618034e+00  2.000000e+01 -1.175570e+00
      vertex  -1.486290e+00  2.000000e+01 -1.338261e+00
    endloop
  endfacet
  facet normal -7.771459e-01  0.000000e+00 -6.293204e-01
    outer loop
      vertex  -1.618034e+00  0.000000e+00 -1.175570e+00
      vertex  -1.486290e+00  2.000000e+01 -1.338261e+00
      vertex  -1.486290e+00  0.000000e+00 -1.338261e+00
    endloop
  endfacet
  facet normal -7.071068e-01  0.000000e+00 -7.071068e-01
    outer loop
      vertex  -1.486290e+00  0.000000e+00 -1.338261e+00
      vertex  -1.486290e+00  2.000000e+01 -1.338261e+00
      vertex  -1.338261e+00  2.000000e+01 -1.486290e+00
    endloop
  endfacet
  facet normal -7.071068e-01  0.000000e+00 -7.071068e-01
    outer loop
      vertex  -1.486290e+00  0.000000e+00 -1.338261e+00
      vertex  -1.338261e+00  2.000000e+01 -1.486290e+00
      vertex  -1.338261e+00  0.000000e+00 -1.486290e+00
    endloop
  endfacet
  facet normal -6.293204e-01  0.000000e+00 -7.771459e-01
    outer loop
      vertex  -1.338261e+00  0.000000e+00 -1.486290e+00
      vertex  -1.338261e+00  2.000000e+01 -1.486290e+00
      vertex  -1.175570e+00  2.000000e+01 -1.618034e+00
    endloop
  endfacet
  facet normal -6.293204e-01  0.000000e+00 -7.771459e-01
    outer loop
      vertex  -1.338261e+00  0.000000e+00 -1.486290e+00
      vertex  -1.175570e+00  2.000000e+01 -1.618034e+00
      vertex  -1.175570e+00  0.000000e+00 -1.618034e+00
    endloop
  endfacet
  facet normal -5.446389e-01  0.000000e+00 -8.386706e-01
    outer loop
      vertex  -1.175570e+00  0.000000e+00 -1.618034e+00
      vertex  -1.175570e+00  2.000000e+01 -1.618034e+00
      vertex  -1.000000e+00  2.000000e+01 -1.732051e+00
    endloop
  endfacet
  facet normal -5.446389e-01  0.000000e+00 -8.386706e-01
    outer loop
      vertex  -1.175570e+00  0.000000e+00 -1.618034e+00
      vertex  -1.000000e+00  2.000000e+01 -1.732051e+00
      vertex  -1.000000e+00  0.000000e+00 -1.732051e+00
    endloop
  endfacet
  facet normal -4.539904e-01  0.000000e+00 -8.910066e-01
    outer loop
      vertex  -1.000000e+00  0.000000e+00 -1.732051e+00
      vertex  -1.000000e+00  2.000000e+01 -1.732051e+00
      vertex  -8.134733e-01  2.000000e+01 -1.827091e+00
    endloop
  endfacet
  facet normal -4.539904e-01  0.000000e+00 -8.910066e-01
    outer loop
      vertex  -1.000000e+00  0.000000e+00 -1.732051e+00
      vertex  -8.134733e-01  2.000000e+01 -1.827091e+00
      vertex  -8.134733e-01  0.000000e+00 -1.827091e+00
    endloop
  endfacet
  facet normal -3.583684e-01  0.000000e+00 -9.335803e-01
    outer loop
      vertex  -8.134733e-01  0.000000e+00 -1.827091e+00
      vertex  -8.134733e-01  2.000000e+01 -1.827091e+00
      vertex  -6.180340e-01  2.000000e+01 -1.902113e+00
    endloop
  endfacet
  facet normal -3.583684e-01  0.000000e+00 -9.335803e-01
    outer loop
      vertex  -8.134733e-01  0.000000e+00 -1.827091e+00
      vertex  -6.180340e-01  2.000000e+01 -1.902113e+00
      vertex  -6.180340e-01  0.000000e+00 -1.902113e+00
    endloop
  endfacet
  facet normal -2.588190e-01  0.000000e+00 -9.659258e-01
    outer loop
      vertex  -6.180340e-01  0.000000e+00 -1.902113e+00
      vertex  -6.180340e-01  2.000000e+01 -1.902113e+00
      vertex  -4.158234e-01  2.000000e+01 -1.956295e+00
    endloop
  endfacet
  facet normal -2.588190e-01  0.000000e+00 -9.659258e-01
    outer loop
      vertex  -6.180340e-01  0.000000e+00 -1.902113e+00
      vertex  -4.158234e-01  2.000000e+01 -1.956295e+00
      vertex  -4.158234e-01  0.000000e+00 -1.956295e+00
    endloop
  endfacet
  facet normal -1.564344e-01  0.000000e+00 -9.876883e-01
    outer loop
      vertex  -4.158234e-01  0.000000e+00 -1.956295e+00
      vertex  -4.158234e-01  2.000000e+01 -1.956295e+00
      vertex  -2.090569e-01  2.000000e+01 -1.989044e+00
    endloop
  endfacet
  facet normal -1.564344e-01  0.000000e+00 -9.876883e-01
    outer loop
      vertex  -4.158234e-01  0.000000e+00 -1.956295e+00
      vertex  -2.090569e-01  2.000000e+01 -1.989044e+00
      vertex  -2.090569e-01  0.000000e+00 -1.989044e+00
    endloop
  endfacet
  facet normal -5.233576e-02  0.000000e+00 -9.986296e-01
    outer loop
      vertex  -2.090569e-01  0.000000e+00 -1.989044e+00
      vertex  -2.090569e-01  2.000000e+01 -1.989044e+00
      vertex  -3.673940e-16  2.000000e+01 -2.000000e+00
    endloop
  endfacet
  facet normal -5.233576e-02  0.000000e+00 -9.986296e-01
    outer loop
      vertex  -2.090569e-01  0.000000e+00 -1.989044e+00
      vertex  -3.673940e-16  2.000000e+01 -2.000000e+00
      vertex  -3.673940e-16  0.000000e+00 -2.000000e+00
    endloop
  endfacet
  facet normal  5.233576e-02  0.000000e+00 -9.986296e-01
    outer loop
      vertex  -3.673940e-16  0.000000e+00 -2.000000e+00
      vertex  -3.673940e-16  2.000000e+01 -2.000000e+00
      vertex   2.090569e-01  2.000000e+01 -1.989044e+00
    endloop
  endfacet
  facet normal  5.233576e-02  0.000000e+00 -9.986296e-01
    outer loop
      vertex  -3.673940e-16  0.000000e+00 -2.000000e+00
      vertex   2.090569e-01  2.000000e+01 -1.989044e+00
      vertex   2.090569e-01  0.000000e+00 -1.989044e+00
    endloop
  endfacet
  facet normal  1.564344e-01  0.000000e+00 -9.876883e-01
    outer loop
      vertex   2.090569e-01  0.000000e+00 -1.989044e+00
      vertex   2.090569e-01  2.000000e+01 -1.989044e+00
      vertex   4.158234e-01  2.000000e+01 -1.956295e+00
    endloop
  endfacet
  facet normal  1.564344e-01  0.000000e+00 -9.876883e-01
    outer loop
      vertex   2.090569e-01  0.000000e+00 -1.989044e+00
      vertex   4.158234e-01  2.000000e+01 -1.956295e+00
      vertex   4.158234e-01  0.000000e+00 -1.956295e+00
    endloop
  endfacet
  facet normal  2.588190e-01  0.000000e+00 -9.659258e-01
    outer loop
      vertex   4.158234e-01  0.000000e+00 -1.956295e+00
      vertex   4.158234e-01  2.000000e+01 -1.956295e+00
      vertex   6.180340e-01  2.000000e+01 -1.902113e+00
    endloop
  endfacet
  facet normal  2.588190e-01  0.000000e+00 -9.659258e-01
    outer loop
      vertex   4.158234e-01  0.000000e+00 -1.956295e+00
      vertex   6.180340e-01  2.000000e+01 -1.902113e+00
      vertex   6.180340e-01  0.000000e+00 -1.902113e+00
    endloop
  endfacet
  facet normal  3.583684e-01  0.000000e+00 -9.335803e-01
    outer loop
      vertex   6.180340e-01  0.000000e+00 -1.902113e+00
      vertex   6.180340e-01  2.000000e+01 -1.902113e+00
      vertex   8.134733e-01  2.000000e+01 -1.827091e+00
    endloop
  endfacet
  facet normal  3.583684e-01  0.000000e+00 -9.335803e-01
    outer loop
      vertex   6.180340e-01  0.000000e+00 -1.902113e+00
      vertex   8.134733e-01  2.000000e+01 -1.827091e+00
      vertex   8.134733e-01  0.000000e+00 -1.827091e+00
    endloop
  endfacet
  facet normal  4.539904e-01  0.000000e+00 -8.910066e-01
    outer loop
      vertex   8.134733e-01  0.000000e+00 -1.827091e+00
      vertex   8.134733e-01  2.000000e+01 -1.827091e+00
      vertex   1.000000e+00  2.000000e+01 -1.732051e+00
    endloop
  endfacet
  facet normal  4.539904e-01  0.000000e+00 -8.910066e-01
    outer loop
      vertex   8.134733e-01  0.000000e+00 -1.827091e+00
      vertex   1.000000e+00  2.000000e+01 -1.732051e+00
      vertex   1.000000e+00  0.000000e+00 -1.732051e+00
    endloop
  endfacet
  facet normal  5.446389e-01  0.000000e+00 -8.386706e-01
    outer loop
      vertex   1.000000e+00  0.000000e+00 -1.732051e+00
      vertex   1.000000e+00  2.000000e+01 -1.732051e+00
      vertex   1.175570e+00  2.000000e+01 -1.618034e+00
    endloop
  endfacet
  facet normal  5.446389e-01  0.000000e+00 -8.386706e-01
    outer loop
      vertex   1.000000e+00  0.000000e+00 -1.732051e+00
      vertex   1.175570e+00  2.000000e+01 -1.618034e+00
      vertex   1.175570e+00  0.000000e+00 -1.618034e+00
    endloop
  endfacet
  facet normal  6.293204e-01  0.000000e+00 -7.771459e-01
    outer loop
      vertex   1.175570e+00  0.000000e+00 -1.618034e+00
      vertex   1.175570e+00  2.000000e+01 -1.618034e+00
      vertex   1.338261e+00  2.000000e+01 -1.486290e+00
    endloop
  endfacet
  facet normal  6.293204e-01  0.000000e+00 -7.771459e-01
    outer loop
      vertex   1.175570e+00  0.000000e+00 -1.618034e+00
      vertex   1.338261e+00  2.000000e+01 -1.486290e+00
      vertex   1.338261e+00  0.000000e+00 -1.486290e+00
    endloop
  endfacet
  facet normal  7.071068e-01  0.000000e+00 -7.071068e-01
    outer loop
      vertex   1.338261e+00  0.000000e+00 -1.486290e+00
      vertex   1.338261e+00  2.000000e+01 -1.486290e+00
      vertex   1.486290e+00  2.000000e+01 -1.338261e+00
    endloop
  endfacet
  facet normal  7.071068e-01  0.000000e+00 -7.071068e-01
    outer loop
      vertex   1.338261e+00  0.000000e+00 -1.486290e+00
      vertex   1.486290e+00  2.000000e+01 -1.338261e+00
      vertex   1.486290e+00  0.000000e+00 -1.338261e+00
    endloop
  endfacet
  facet normal  7.771459e-01  0.000000e+00 -6.293204e-01
    outer loop
      vertex   1.486290e+00  0.000000e+00 -1.338261e+00
      vertex   1.486290e+00  2.000000e+01 -1.338261e+00
      vertex   1.618034e+00  2.000000e+01 -1.175570e+00
    endloop
  endfacet
  facet normal  7.771459e-01  0.000000e+00 -6.293204e-01
    outer loop
      vertex   1.486290e+00  0.000000e+00 -1.338261e+00
      vertex   1.618034e+00  2.000000e+01 -1.175570e+00
      vertex   1.618034e+00  0.000000e+00 -1.175570e+00
    endloop
  endfacet
  facet normal  8.386706e-01  0.000000e+00 -5.446389e-01
    outer loop
      vertex   1.618034e+00  0.000000e+00 -1.175570e+00
      vertex   1.618034e+00  2.000000e+01 -1.175570e+00
      vertex   1.732051e+00  2.000000e+01 -1.000000e+00
    endloop
  endfacet
  facet normal  8.386706e-01  0.000000e+00 -5.446389e-01
    outer loop
      vertex   1.618034e+00  0.000000e+00 -1.175570e+00
      vertex   1.732051e+00  2.000000e+01 -1.000000e+00
      vertex   1.732051e+00  0.000000e+00 -1.000000e+00
    endloop
  endfacet
  facet normal  8.910066e-01  0.000000e+00 -4.539904e-01
    outer loop
      vertex   1.732051e+00  0.000000e+00 -1.000000e+00
      vertex   1.732051e+00  2.000000e+01 -1.000000e+00
      vertex   1.827091e+00  2.000000e+01 -8.134733e-01
    endloop
  endfacet
  facet normal  8.910066e-01  0.000000e+00 -4.539904e-01
    outer loop
      vertex   1.732051e+00  0.000000e+00 -1.000000e+00
      vertex   1.827091e+00  2.000000e+01 -8.134733e-01
      vertex   1.827091e+00  0.000000e+00 -8.134733e-01
    endloop
  endfacet
  facet normal  9.335803e-01  0.000000e+00 -3.583684e-01
    outer loop
      vertex   1.827091e+00  0.000000e+00 -8.134733e-01
      vertex   1.827091e+00  2.000000e+01 -8.134733e-01
      vertex   1.902113e+00  2.000000e+01 -6.180340e-01
    endloop
  endfacet
  facet normal  9.335803e-01  0.000000e+00 -3.583684e-01
    outer loop
      vertex   1.827091e+00  0.000000e+00 -8.134733e-01
      vertex   1.902113e+00  2.000000e+01 -6.180340e-01
      vertex   1.902113e+00  0.000000e+00 -6.180340e-01
    endloop
  endfacet
  facet normal  9.659258e-01  0.000000e+00 -2.588190e-01
    outer loop
      vertex   1.902113e+00  0.000000e+00 -6.180340e-01
      vertex   1.902113e+00  2.000000e+01 -6.180340e-01
      vertex   1.956295e+00  2.000000e+01 -4.158234e-01
    endloop
  endfacet
  facet normal  9.659258e-01  0.000000e+00 -2.588190e-01
    outer loop
      vertex   1.902113e+00  0.000000e+00 -6.180340e-01
      vertex   1.956295e+00  2.000000e+01 -4.158234e-01
      vertex   1.956295e+00  0.000000e+00 -4.158234e-01
    endloop
  endfacet
  facet normal  9.876883e-01  0.000000e+00 -1.564344e-01
    outer loop
      vertex   1.956295e+00  0.000000e+00 -4.158234e-01
      vertex   1.956295e+00  2.000000e+01 -4.158234e-01
      vertex   1.989044e+00  2.000000e+01 -2.090569e-01
    endloop
  endfacet
  facet normal  9.876883e-01  0.000000e+00 -1.564344e-01
    outer loop
      vertex   1.956295e+00  0.000000e+00 -4.158234e-01
      vertex   1.989044e+00  2.000000e+01 -2.090569e-01
      vertex   1.989044e+00  0.000000e+00 -2.090569e-01
    endloop
  endfacet
  facet normal  9.986296e-01  0.000000e+00 -5.233576e-02
    outer loop
      vertex   1.989044e+00  0.000000e+00 -2.090569e-01
      vertex   1.989044e+00  2.000000e+01 -2.090569e-01
      vertex   2.000000e+00  2.000000e+01  0.000000e+00
    endloop
  endfacet
  facet normal  9.986296e-01  0.000000e+00 -5.233576e-02
    outer loop
      vertex   1.989044e+00  0.000000e+00 -2.090569e-01
      vertex   2.000000e+00  2.000000e+01  0.000000e+00
      vertex   2.000000e+00  0.000000e+00  0.000000e+00
    endloop
  endfacet
  facet normal  0.000000e+00 -1.000000e+00  0.000000e+00
    outer loop
      vertex   0.000000e+00  1.800000e+01  0.000000e+00
      vertex  -3.939231e+00  1.800000e+01  6.945927e-01
      vertex  -4.000000e+00  1.800000e+01  0.000000e+00
    endloop
  endfacet
  facet normal  0.000000e+00 -1.000000e+00  0.000000e+00
    outer loop
      vertex   0.000000e+00  1.800000e+01  0.000000e+00
      vertex  -3.758770e+00  1.800000e+01  1.368081e+00
      vertex  -3.939231e+00  1.800000e+01  6.945927e-01
    endloop
  endfacet
  facet normal  0.000000e+00 -1.000000e+00  0.000000e+00
    outer loop
      vertex   0.000000e+00  1.800000e+01  0.000000e+00
      vertex  -3.464102e+00  1.800000e+01  2.000000e+00
      vertex  -3.758770e+00  1.800000e+01  1.368081e+00
    endloop
  endfacet
  facet normal  0.000000e+00 -1.000000e+00  0.000000e+00
    outer loop
      vertex   0.000000e+00  1.800000e+01  0.000000e+00
      vertex  -3.064178e+00  1.800000e+01  2.571151e+00
      vertex  -3.464102e+00  1.800000e+01  2.000000e+00
    endloop
  endfacet
  facet normal  0.000000e+00 -1.000000e+00  0.000000e+00
    outer loop
      vertex   0.000000e+00  1.800000e+01  0.000000e+00
      vertex  -2.571151e+00  1.800000e+01  3.064178e+00
      vertex  -3.064178e+00  1.800000e+01  2.571151e+00
    endloop
  endfacet
  facet normal  0.000000e+00 -1.000000e+00  0.000000e+00
    outer loop
      vertex   0.000000e+00  1.800000e+01  0.000000e+00
      vertex  -2.000000e+00  1.800000e+01  3.464102e+00
      vertex  -2.571151e+00  1.800000e+01  3.064178e+00
    endloop
  endfacet
  facet normal  0.000000e+00 -1.000000e+00  0.000000e+00
    outer loop
      vertex   0.000000e+00  1.800000e+01  0.000000e+00
      vertex  -1.368081e+00  1.800000e+01  3.758770e+00
      vertex  -2.000000e+00  1.800000e+01  3.464102e+00
    endloop
  endfacet
  facet normal  0.000000e+00 -1.000000e+00  0.000000e+00
    outer loop
      vertex   0.000000e+00  1.800000e+01  0.000000e+00
      vertex  -6.945927e-01  1.800000e+01  3.939231e+00
      vertex  -1.368081e+00  1.800000e+01  3.758770e+00
    endloop
  endfacet
  facet normal  0.000000e+00 -1.000000e+00  0.000000e+00
    outer loop
      vertex   0.000000e+00  1.800000e+01  0.000000e+00
      vertex  -2.449294e-16  1.800000e+01  4.000000e+00
      vertex  -6.945927e-01  1.800000e+01  3.939231e+00
    endloop
  endfacet
  facet normal  0.000000e+00 -1.000000e+00  0.000000e+00
    outer loop
      vertex   0.000000e+00  1.800000e+01  0.000000e+00
      vertex   6.945927e-01  1.800000e+01  3.939231e+00
      vertex  -2.449294e-16  1.800000e+01  4.000000e+00
    endloop
  endfacet
  facet normal  0.000000e+00 -1.000000e+00  0.000000e+00
    outer loop
      vertex   0.000000e+00  1.800000e+01  0.000000e+00
      vertex   1.368081e+00  1.800000e+01  3.758770e+00
      vertex   6.945927e-01  1.800000e+01  3.939231e+00
    endloop
  endfacet
  facet normal  0.000000e+00 -1.000000e+00  0.000000e+00
    outer loop
      vertex   0.000000e+00  1.800000e+01  0.000000e+00
      vertex   2.000000e+00  1.800000e+01  3.464102e+00
      vertex   1.368081e+00  1.800000e+01  3.758770e+00
    endloop
  endfacet
  facet normal  0.000000e+00 -1.000000e+00  0.000000e+00
    outer loop
      vertex   0.000000e+00  1.800000e+01  0.000000e+00
      vertex   2.571151e+00  1.800000e+01  3.064178e+00
      vertex   2.000000e+00  1.800000e+01  3.464102e+00
    endloop
  endfacet
  facet normal  0.000000e+00 -1.000000e+00  0.000000e+00
    outer loop
      vertex   0.000000e+00  1.800000e+01  0.000000e+00
      vertex   3.064178e+00  1.800000e+01  2.571151e+00
      vertex   2.571151e+00  1.800000e+01  3.064178e+00
    endloop
  endfacet
  facet normal  0.000000e+00 -1.000000e+00  0.000000e+00
    outer loop
      vertex   0.000000e+00  1.800000e+01  0.000000e+00
      vertex   3.464102e+00  1.800000e+01  2.000000e+00
      vertex   3.064178e+00  1.800000e+01  2.571151e+00
    endloop
  endfacet
  facet normal  0.000000e+00 -1.000000e+00  0.000000e+00
    outer loop
      vertex   0.000000e+00  1.800000e+01  0.000000e+00
      vertex   3.758770e+00  1.800000e+01  1.368081e+00
      vertex   3.464102e+00  1.800000e+01  2.000000e+00
    endloop
  endfacet
  facet normal  0.000000e+00 -1.000000e+00  0.000000e+00
    outer loop
      vertex   0.000000e+00  1.800000e+01  0.000000e+00
      vertex   3.939231e+00  1.800000e+01  6.945927e-01
      vertex   3.758770e+00  1.800000e+01  1.368081e+00
    endloop
  endfacet
  facet normal  0.000000e+00 -1.000000e+00  0.000000e+00
    outer loop
      vertex   0.000000e+00  1.800000e+01  0.000000e+00
      vertex   4.000000e+00  1.800000e+01  4.898587e-16
      vertex   3.939231e+00  1.800000e+01  6.945927e-01
    endloop
  endfacet
  facet normal  0.000000e+00 -1.000000e+00  0.000000e+00
    outer loop
      vertex   0.000000e+00  1.800000e+01  0.000000e+00
      vertex   3.939231e+00  1.800000e+01 -6.945927e-01
      vertex   4.000000e+00  1.800000e+01  4.898587e-16
    endloop
  endfacet
  facet normal  0.000000e+00 -1.000000e+00  0.000000e+00
    outer loop
      vertex   0.000000e+00  1.800000e+01  0.000000e+00
      vertex   3.758770e+00  1.800000e+01 -1.368081e+00
      vertex   3.939231e+00  1.800000e+01 -6.945927e-01
    endloop
  endfacet
  facet normal  0.000000e+00 -1.000000e+00  0.000000e+00
    outer loop
      vertex   0.000000e+00  1.800000e+01  0.000000e+00
      vertex   3.464102e+00  1.800000e+01 -2.000000e+00
      vertex   3.758770e+00  1.800000e+01 -1.368081e+00
    endloop
  endfacet
  facet normal  0.000000e+00 -1.000000e+00  0.000000e+00
    outer loop
      vertex   0.000000e+00  1.800000e+01  0.000000e+00
      vertex   3.064178e+00  1.800000e+01 -2.571151e+00
      vertex   3.464102e+00  1.800000e+01 -2.000000e+00
    endloop
  endfacet
  facet normal  0.000000e+00 -1.000000e+00  0.000000e+00
    outer loop
      vertex   0.000000e+00  1.800000e+01  0.000000e+00
      vertex   2.571151e+00  1.800000e+01 -3.064178e+00
      vertex   3.064178e+00  1.800000e+01 -2.571151e+00
    endloop
  endfacet
  facet normal  0.000000e+00 -1.000000e+00  0.000000e+00
    outer loop
      vertex   0.000000e+00  1.800000e+01  0.000000e+00
      vertex   2.000000e+00  1.800000e+01 -3.464102e+00
      vertex   2.571151e+00  1.800000e+01 -3.064178e+00
    endloop
  endfacet
  facet normal  0.000000e+00 -1.000000e+00  0.000000e+00
    outer loop
      vertex   0.000000e+00  1.800000e+01  0.000000e+00
      vertex   1.368081e+00  1.800000e+01 -3.758770e+00
      vertex   2.000000e+00  1.800000e+01 -3.464102e+00
    endloop
  endfacet
  facet normal  0.000000e+00 -1.000000e+00  0.000000e+00
    outer loop
      vertex   0.000000e+00  1.800000e+01  0.000000e+00
      vertex   6.945927e-01  1.800000e+01 -3.939231e+00
      vertex   1.368081e+00  1.800000e+01 -3.758770e+00
    endloop
  endfacet
  facet normal  0.000000e+00 -1.000000e+00  0.000000e+00
    outer loop
      vertex   0.000000e+00  1.800000e+01  0.000000e+00
      vertex   7.347881e-16  1.800000e+01 -4.000000e+00
      vertex   6.945927e-01  1.800000e+01 -3.939231e+00
    endloop
  endfacet
  facet normal  0.000000e+00 -1.000000e+00 -0.000000e+00
    outer loop
      vertex   0.000000e+00  1.800000e+01  0.000000e+00
      vertex  -6.945927e-01  1.800000e+01 -3.939231e+00
      vertex   7.347881e-16  1.800000e+01 -4.000000e+00
    endloop
  endfacet
  facet normal  0.000000e+00 -1.000000e+00  0.000000e+00
    outer loop
      vertex   0.000000e+00  1.800000e+01  0.000000e+00
      vertex  -1.368081e+00  1.800000e+01 -3.758770e+00
      vertex  -6.945927e-01  1.800000e+01 -3.939231e+00
    endloop
  endfacet
  facet normal  0.000000e+00 -1.000000e+00  0.000000e+00
    outer loop
      vertex   0.000000e+00  1.800000e+01  0.000000e+00
      vertex  -2.000000e+00  1.800000e+01 -3.464102e+00
      vertex  -1.368081e+00  1.800000e+01 -3.758770e+00
    endloop
  endfacet
  facet normal  0.000000e+00 -1.000000e+00  0.000000e+00
    outer loop
      vertex   0.000000e+00  1.800000e+01  0.000000e+00
      vertex  -2.571151e+00  1.800000e+01 -3.064178e+00
      vertex  -2.000000e+00  1.800000e+01 -3.464102e+00
    endloop
  endfacet
  facet normal  0.000000e+00 -1.000000e+00  0.000000e+00
    outer loop
      vertex   0.000000e+00  1.800000e+01  0.000000e+00
      vertex  -3.064178e+00  1.800000e+01 -2.571151e+00
      vertex  -2.571151e+00  1.800000e+01 -3.064178e+00
    endloop
  endfacet
  facet normal  0.000000e+00 -1.000000e+00  0.000000e+00
    outer loop
      vertex   0.000000e+00  1.800000e+01  0.000000e+00
      vertex  -3.464102e+00  1.800000e+01 -2.000000e+00
      vertex  -3.064178e+00  1.800000e+01 -2.571151e+00
    endloop
  endfacet
  facet normal  0.000000e+00 -1.000000e+00  0.000000e+00
    outer loop
      vertex   0.000000e+00  1.800000e+01  0.000000e+00
      vertex  -3.758770e+00  1.800000e+01 -1.368081e+00
      vertex  -3.464102e+00  1.800000e+01 -2.000000e+00
    endloop
  endfacet
  facet normal  0.000000e+00 -1.000000e+00  0.000000e+00
    outer loop
      vertex   0.000000e+00  1.800000e+01  0.000000e+00
      vertex  -3.939231e+00  1.800000e+01 -6.945927e-01
      vertex  -3.758770e+00  1.800000e+01 -1.368081e+00
    endloop
  endfacet
  facet normal -0.000000e+00 -1.000000e+00  0.000000e+00
    outer loop
      vertex   0.000000e+00  1.800000e+01  0.000000e+00
      vertex  -4.000000e+00  1.800000e+01  0.000000e+00
      vertex  -3.939231e+00  1.800000e+01 -6.945927e-01
    endloop
  endfacet
  facet normal -8.917012e-01  4.458506e-01  7.801387e-02
    outer loop
      vertex   0.000000e+00  2.600000e+01  0.000000e+00
      vertex  -4.000000e+00  1.800000e+01  0.000000e+00
      vertex  -3.939231e+00  1.800000e+01  6.945927e-01
    endloop
  endfacet
  facet normal -8.646074e-01  4.458506e-01  2.316707e-01
    outer loop
      vertex   0.000000e+00  2.600000e+01  0.000000e+00
      vertex  -3.939231e+00  1.800000e+01  6.945927e-01
      vertex  -3.758770e+00  1.800000e+01  1.368081e+00
    endloop
  endfacet
  facet normal -8.112427e-01  4.458506e-01  3.782888e-01
    outer loop
      vertex   0.000000e+00  2.600000e+01  0.000000e+00
      vertex  -3.758770e+00  1.800000e+01  1.368081e+00
      vertex  -3.464102e+00  1.800000e+01  2.000000e+00
    endloop
  endfacet
  facet normal -7.332291e-01  4.458506e-01  5.134124e-01
    outer loop
      vertex   0.000000e+00  2.600000e+01  0.000000e+00
      vertex  -3.464102e+00  1.800000e+01  2.000000e+00
      vertex  -3.064178e+00  1.800000e+01  2.571151e+00
    endloop
  endfacet
  facet normal -6.329365e-01  4.458506e-01  6.329365e-01
    outer loop
      vertex   0.000000e+00  2.600000e+01  0.000000e+00
      vertex  -3.064178e+00  1.800000e+01  2.571151e+00
      vertex  -2.571151e+00  1.800000e+01  3.064178e+00
    endloop
  endfacet
  facet normal -5.134124e-01  4.458506e-01  7.332291e-01
    outer loop
      vertex   0.000000e+00  2.600000e+01  0.000000e+00
      vertex  -2.571151e+00  1.800000e+01  3.064178e+00
      vertex  -2.000000e+00  1.800000e+01  3.464102e+00
    endloop
  endfacet
  facet normal -3.782888e-01  4.458506e-01  8.112427e-01
    outer loop
      vertex   0.000000e+00  2.600000e+01  0.000000e+00
      vertex  -2.000000e+00  1.800000e+01  3.464102e+00
      vertex  -1.368081e+00  1.800000e+01  3.758770e+00
    endloop
  endfacet
  facet normal -2.316707e-01  4.458506e-01  8.646074e-01
    outer loop
      vertex   0.000000e+00  2.600000e+01  0.000000e+00
      vertex  -1.368081e+00  1.800000e+01  3.758770e+00
      vertex  -6.945927e-01  1.800000e+01  3.939231e+00
    endloop
  endfacet
  facet normal -7.801387e-02  4.458506e-01  8.917012e-01
    outer loop
      vertex   0.000000e+00  2.600000e+01  0.000000e+00
      vertex  -6.945927e-01  1.800000e+01  3.939231e+00
      vertex  -2.449294e-16  1.800000e+01  4.000000e+00
    endloop
  endfacet
  facet normal  7.801387e-02  4.458506e-01  8.917012e-01
    outer loop
      vertex   0.000000e+00  2.600000e+01  0.000000e+00
      vertex  -2.449294e-16  1.800000e+01  4.000000e+00
      vertex   6.945927e-01  1.800000e+01  3.939231e+00
    endloop
  endfacet
  facet normal  2.316707e-01  4.458506e-01  8.646074e-01
    outer loop
      vertex   0.000000e+00  2.600000e+01  0.000000e+00
      vertex   6.945927e-01  1.800000e+01  3.939231e+00
      vertex   1.368081e+00  1.800000e+01  3.758770e+00
    endloop
  endfacet
  facet normal  3.782888e-01  4.458506e-01  8.112427e-01
    outer loop
      vertex   0.000000e+00  2.600000e+01  0.000000e+00
      vertex   1.368081e+00  1.800000e+01  3.758770e+00
      vertex   2.000000e+00  1.800000e+01  3.464102e+00
    endloop
  endfacet
  facet normal  5.134124e-01  4.458506e-01  7.332291e-01
    outer loop
      vertex   0.000000e+00  2.600000e+01  0.000000e+00
      vertex   2.000000e+00  1.800000e+01  3.464102e+00
      vertex   2.571151e+00  1.800000e+01  3.064178e+00
    endloop
  endfacet
  facet normal  6.329365e-01  4.458506e-01  6.329365e-01
    outer loop
      vertex   0.000000e+00  2.600000e+01  0.000000e+00
      vertex   2.571151e+00  1.800000e+01  3.064178e+00
      vertex   3.064178e+00  1.800000e+01  2.571151e+00
    endloop
  endfacet
  facet normal  7.332291e-01  4.458506e-01  5.134124e-01
    outer loop
      vertex   0.000000e+00  2.600000e+01  0.000000e+00
      vertex   3.064178e+00  1.800000e+01  2.571151e+00
      vertex   3.464102e+00  1.800000e+01  2.000000e+00
    endloop
  endfacet
  facet normal  8.112427e-01  4.458506e-01  3.782888e-01
    outer loop
      vertex   0.000000e+00  2.600000e+01  0.000000e+00
      vertex   3.464102e+00  1.800000e+01  2.000000e+00
      vertex   3.758770e+00  1.800000e+01  1.368081e+00
    endloop
  endfacet
  facet normal  8.646074e-01  4.458506e-01  2.316707e-01
    outer loop
      vertex   0.000000e+00  2.600000e+01  0.000000e+00
      vertex   3.758770e+00  1.800000e+01  1.368081e+00
      vertex   3.939231e+00  1.800000e+01  6.945927e-01
    endloop
  endfacet
  facet normal  8.917012e-01  4.458506e-01  7.801387e-02
    outer loop
      vertex   0.000000e+00  2.600000e+01  0.000000e+00
      vertex   3.939231e+00  1.800000e+01  6.945927e-01
      vertex   4.000000e+00  1.800000e+01  4.898587e-16
    endloop
  endfacet
  facet normal  8.917012e-01  4.458506e-01 -7.801387e-02
    outer loop
      vertex   0.000000e+00  2.600000e+01  0.000000e+00
      vertex   4.000000e+00  1.800000e+01  4.898587e-16
      vertex   3.939231e+00  1.800000e+01 -6.945927e-01
    endloop
  endfacet
  facet normal  8.646074e-01  4.458506e-01 -2.316707e-01
    outer loop
      vertex   0.000000e+00  2.600000e+01  0.000000e+00
      vertex   3.939231e+00  1.800000e+01 -6.945927e-01
      vertex   3.758770e+00  1.800000e+01 -1.368081e+00
    endloop
  endfacet
  facet normal  8.112427e-01  4.458506e-01 -3.782888e-01
    outer loop
      vertex   0.000000e+00  2.600000e+01  0.000000e+00
      vertex   3.758770e+00  1.800000e+01 -1.368081e+00
      vertex   3.464102e+00  1.800000e+01 -2.000000e+00
    endloop
  endfacet
  facet normal  7.332291e-01  4.458506e-01 -5.134124e-01
    outer loop
      vertex   0.000000e+00  2.600000e+01  0.000000e+00
      vertex   3.464102e+00  1.800000e+01 -2.000000e+00
      vertex   3.064178e+00  1.800000e+01 -2.571151e+00
    endloop
  endfacet
  facet normal  6.329365e-01  4.458506e-01 -6.329365e-01
    outer loop
      vertex   0.000000e+00  2.600000e+01  0.000000e+00
      vertex   3.064178e+00  1.800000e+01 -2.571151e+00
      vertex   2.571151e+00  1.800000e+01 -3.064178e+00
    endloop
  endfacet
  facet normal  5.134124e-01  4.458506e-01 -7.332291e-01
    outer loop
      vertex   0.000000e+00  2.600000e+01  0.000000e+00
      vertex   2.571151e+00  1.800000e+01 -3.064178e+00
      vertex   2.000000e+00  1.800000e+01 -3.464102e+00
    endloop
  endfacet
  facet normal  3.782888e-01  4.458506e-01 -8.112427e-01
    outer loop
      vertex   0.000000e+00  2.600000e+01  0.000000e+00
      vertex   2.000000e+00  1.800000e+01 -3.464102e+00
      vertex   1.368081e+00  1.800000e+01 -3.758770e+00
    endloop
  endfacet
  facet normal  2.316707e-01  4.458506e-01 -8.646074e-01
    outer loop
      vertex   0.000000e+00  2.600000e+01  0.000000e+00
      vertex   1.368081e+00  1.800000e+01 -3.758770e+00
      vertex   6.945927e-01  1.800000e+01 -3.939231e+00
    endloop
  endfacet
  facet normal  7.801387e-02  4.458506e-01 -8.917012e-01
    outer loop
      vertex   0.000000e+00  2.600000e+01  0.000000e+00
      vertex   6.945927e-01  1.800000e+01 -3.939231e+00
      vertex   7.347881e-16  1.800000e+01 -4.000000e+00
    endloop
  endfacet
  facet normal -7.801387e-02  4.458506e-01 -8.917012e-01
    outer loop
      vertex   0.000000e+00  2.600000e+01  0.000000e+00
      vertex   7.347881e-16  1.800000e+01 -4.000000e+00
      vertex  -6.945927e-01  1.800000e+01 -3.939231e+00
    endloop
  endfacet
  facet normal -2.316707e-01  4.458506e-01 -8.646074e-01
    outer loop
      vertex   0.000000e+00  2.600000e+01  0.000000e+00
      vertex  -6.945927e-01  1.800000e+01 -3.939231e+00
      vertex  -1.368081e+00  1.800000e+01 -3.758770e+00
    endloop
  endfacet
  facet normal -3.782888e-01  4.458506e-01 -8.112427e-01
    outer loop
      vertex   0.000000e+00  2.600000e+01  0.000000e+00
      vertex  -1.368081e+00  1.800000e+01 -3.758770e+00
      vertex  -2.000000e+00  1.800000e+01 -3.464102e+00
    endloop
  endfacet
  facet normal -5.134124e-01  4.458506e-01 -7.332291e-01
    outer loop
      vertex   0.000000e+00  2.600000e+01  0.000000e+00
      vertex  -2.000000e+00  1.800000e+01 -3.464102e+00
      vertex  -2.571151e+00  1.800000e+01 -3.064178e+00
    endloop
  endfacet
  facet normal -6.329365e-01  4.458506e-01 -6.329365e-01
    outer loop
      vertex   0.000000e+00  2.600000e+01  0.000000e+00
      vertex  -2.571151e+00  1.800000e+01 -3.064178e+00
      vertex  -3.064178e+00  1.800000e+01 -2.571151e+00
    endloop
  endfacet
  facet normal -7.332291e-01  4.458506e-01 -5.134124e-01
    outer loop
      vertex   0.000000e+00  2.600000e+01  0.000000e+00
      vertex  -3.064178e+00  1.800000e+01 -2.571151e+00
      vertex  -3.464102e+00  1.800000e+01 -2.000000e+00
    endloop
  endfacet
  facet normal -8.112427e-01  4.458506e-01 -3.782888e-01
    outer loop
      vertex   0.000000e+00  2.600000e+01  0.000000e+00
      vertex  -3.464102e+00  1.800000e+01 -2.000000e+00
      vertex  -3.758770e+00  1.800000e+01 -1.368081e+00
    endloop
  endfacet
  facet normal -8.646074e-01  4.458506e-01 -2.316707e-01
    outer loop
      vertex   0.000000e+00  2.600000e+01  0.000000e+00
      vertex  -3.758770e+00  1.800000e+01 -1.368081e+00
      vertex  -3.939231e+00  1.800000e+01 -6.945927e-01
    endloop
  endfacet
  facet normal -8.917012e-01  4.458506e-01 -7.801387e-02
    outer loop
      vertex   0.000000e+00  2.600000e+01  0.000000e+00
      vertex  -3.939231e+00  1.800000e+01 -6.945927e-01
      vertex  -4.000000e+00  1.800000e+01  0.000000e+00
    endloop
  endfacet
endsolid vcg
