solid STL generated by MeshLab
  facet normal  0.000000e+00  0.000000e+00 -1.000000e+00
    outer loop
      vertex   0.000000e+00  4.371139e-07  0.000000e+00
      vertex   2.000000e+00  4.371139e-07  0.000000e+00
      vertex   1.989044e+00 -2.090565e-01  0.000000e+00
    endloop
  endfacet
  facet normal  0.000000e+00  0.000000e+00 -1.000000e+00
    outer loop
      vertex   0.000000e+00  4.371139e-07  0.000000e+00
      vertex   1.989044e+00 -2.090565e-01  0.000000e+00
      vertex   1.956295e+00 -4.158229e-01  0.000000e+00
    endloop
  endfacet
  facet normal  0.000000e+00  0.000000e+00 -1.000000e+00
    outer loop
      vertex   0.000000e+00  4.371139e-07  0.000000e+00
      vertex   1.956295e+00 -4.158229e-01  0.000000e+00
      vertex   1.902113e+00 -6.180336e-01  0.000000e+00
    endloop
  endfacet
  facet normal  0.000000e+00  0.000000e+00 -1.000000e+00
    outer loop
      vertex   0.000000e+00  4.371139e-07  0.000000e+00
      vertex   1.902113e+00 -6.180336e-01  0.000000e+00
      vertex   1.827091e+00 -8.134729e-01  0.000000e+00
    endloop
  endfacet
  facet normal  0.000000e+00  0.000000e+00 -1.000000e+00
    outer loop
      vertex   0.000000e+00  4.371139e-07  0.000000e+00
      vertex   1.827091e+00 -8.134729e-01  0.000000e+00
      vertex   1.732051e+00 -9.999996e-01  0.000000e+00
    endloop
  endfacet
  facet normal  0.000000e+00  0.000000e+00 -1.000000e+00
    outer loop
      vertex   0.000000e+00  4.371139e-07  0.000000e+00
      vertex   1.732051e+00 -9.999996e-01  0.000000e+00
      vertex   1.618034e+00 -1.175570e+00  0.000000e+00
    endloop
  endfacet
  facet normal  0.000000e+00  0.000000e+00 -1.000000e+00
    outer loop
      vertex   0.000000e+00  4.371139e-07  0.000000e+00
      vertex   1.618034e+00 -1.175570e+00  0.000000e+00
      vertex   1.486290e+00 -1.338261e+00  0.000000e+00
    endloop
  endfacet
  facet normal  0.000000e+00  0.000000e+00 -1.000000e+00
    outer loop
      vertex   0.000000e+00  4.371139e-07  0.000000e+00
      vertex   1.486290e+00 -1.338261e+00  0.000000e+00
      vertex   1.338261e+00 -1.486289e+00  0.000000e+00
    endloop
  endfacet
  facet normal  0.000000e+00  0.000000e+00 -1.000000e+00
    outer loop
      vertex   0.000000e+00  4.371139e-07  0.000000e+00
      vertex   1.338261e+00 -1.486289e+00  0.000000e+00
      vertex   1.175570e+00 -1.618034e+00  0.000000e+00
    endloop
  endfacet
  facet normal  0.000000e+00  0.000000e+00 -1.000000e+00
    outer loop
      vertex   0.000000e+00  4.371139e-07  0.000000e+00
      vertex   1.175570e+00 -1.618034e+00  0.000000e+00
      vertex   9.999999e-01 -1.732050e+00  0.000000e+00
    endloop
  endfacet
  facet normal  0.000000e+00  0.000000e+00 -1.000000e+00
    outer loop
      vertex   0.000000e+00  4.371139e-07  0.000000e+00
      vertex   9.999999e-01 -1.732050e+00  0.000000e+00
      vertex   8.134732e-01 -1.827090e+00  0.000000e+00
    endloop
  endfacet
  facet normal  0.000000e+00  0.000000e+00 -1.000000e+00
    outer loop
      vertex   0.000000e+00  4.371139e-07  0.000000e+00
      vertex   8.134732e-01 -1.827090e+00  0.000000e+00
      vertex   6.180339e-01 -1.902113e+00  0.000000e+00
    endloop
  endfacet
  facet normal  0.000000e+00  0.000000e+00 -1.000000e+00
    outer loop
      vertex   0.000000e+00  4.371139e-07  0.000000e+00
      vertex   6.180339e-01 -1.902113e+00  0.000000e+00
      vertex   4.158233e-01 -1.956295e+00  0.000000e+00
    endloop
  endfacet
  facet normal  0.000000e+00  0.000000e+00 -1.000000e+00
    outer loop
      vertex   0.000000e+00  4.371139e-07  0.000000e+00
      vertex   4.158233e-01 -1.956295e+00  0.000000e+00
      vertex   2.090569e-01 -1.989043e+00  0.000000e+00
    endloop
  endfacet
  facet normal  0.000000e+00  0.000000e+00 -1.000000e+00
    outer loop
      vertex   0.000000e+00  4.371139e-07  0.000000e+00
      vertex   2.090569e-01 -1.989043e+00  0.000000e+00
      vertex   1.224647e-16 -2.000000e+00  0.000000e+00
    endloop
  endfacet
  facet normal  0.000000e+00 -0.000000e+00 -1.000000e+00
    outer loop
      vertex   0.000000e+00  4.371139e-07  0.000000e+00
      vertex   1.224647e-16 -2.000000e+00  0.000000e+00
      vertex  -2.090569e-01 -1.989043e+00  0.000000e+00
    endloop
  endfacet
  facet normal  0.000000e+00  0.000000e+00 -1.000000e+00
    outer loop
      vertex   0.000000e+00  4.371139e-07  0.000000e+00
      vertex  -2.090569e-01 -1.989043e+00  0.000000e+00
      vertex  -4.158233e-01 -1.956295e+00  0.000000e+00
    endloop
  endfacet
  facet normal  0.000000e+00  0.000000e+00 -1.000000e+00
    outer loop
      vertex   0.000000e+00  4.371139e-07  0.000000e+00
      vertex  -4.158233e-01 -1.956295e+00  0.000000e+00
      vertex  -6.180339e-01 -1.902113e+00  0.000000e+00
    endloop
  endfacet
  facet normal  0.000000e+00  0.000000e+00 -1.000000e+00
    outer loop
      vertex   0.000000e+00  4.371139e-07  0.000000e+00
      vertex  -6.180339e-01 -1.902113e+00  0.000000e+00
      vertex  -8.134732e-01 -1.827090e+00  0.000000e+00
    endloop
  endfacet
  facet normal  0.000000e+00  0.000000e+00 -1.000000e+00
    outer loop
      vertex   0.000000e+00  4.371139e-07  0.000000e+00
      vertex  -8.134732e-01 -1.827090e+00  0.000000e+00
      vertex  -9.999999e-01 -1.732050e+00  0.000000e+00
    endloop
  endfacet
  facet normal  0.000000e+00  0.000000e+00 -1.000000e+00
    outer loop
      vertex   0.000000e+00  4.371139e-07  0.000000e+00
      vertex  -9.999999e-01 -1.732050e+00  0.000000e+00
      vertex  -1.175570e+00 -1.618034e+00  0.000000e+00
    endloop
  endfacet
  facet normal  0.000000e+00  0.000000e+00 -1.000000e+00
    outer loop
      vertex   0.000000e+00  4.371139e-07  0.000000e+00
      vertex  -1.175570e+00 -1.618034e+00  0.000000e+00
      vertex  -1.338261e+00 -1.486289e+00  0.000000e+00
    endloop
  endfacet
  facet normal  0.000000e+00  0.000000e+00 -1.000000e+00
    outer loop
      vertex   0.000000e+00  4.371139e-07  0.000000e+00
      vertex  -1.338261e+00 -1.486289e+00  0.000000e+00
      vertex  -1.486290e+00 -1.338261e+00  0.000000e+00
    endloop
  endfacet
  facet normal  0.000000e+00  0.000000e+00 -1.000000e+00
    outer loop
      vertex   0.000000e+00  4.371139e-07  0.000000e+00
      vertex  -1.486290e+00 -1.338261e+00  0.000000e+00
      vertex  -1.618034e+00 -1.175570e+00  0.000000e+00
    endloop
  endfacet
  facet normal  0.000000e+00  0.000000e+00 -1.000000e+00
    outer loop
      vertex   0.000000e+00  4.371139e-07  0.000000e+00
      vertex  -1.618034e+00 -1.175570e+00  0.000000e+00
      vertex  -1.732051e+00 -9.999996e-01  0.000000e+00
    endloop
  endfacet
  facet normal  0.000000e+00  0.000000e+00 -1.000000e+00
    outer loop
      vertex   0.000000e+00  4.371139e-07  0.000000e+00
      vertex  -1.732051e+00 -9.999996e-01  0.000000e+00
      vertex  -1.827091e+00 -8.134729e-01  0.000000e+00
    endloop
  endfacet
  facet normal  0.000000e+00  0.000000e+00 -1.000000e+00
    outer loop
      vertex   0.000000e+00  4.371139e-07  0.000000e+00
      vertex  -1.827091e+00 -8.134729e-01  0.000000e+00
      vertex  -1.902113e+00 -6.180336e-01  0.000000e+00
    endloop
  endfacet
  facet normal  0.000000e+00  0.000000e+00 -1.000000e+00
    outer loop
      vertex   0.000000e+00  4.371139e-07  0.000000e+00
      vertex  -1.902113e+00 -6.180336e-01  0.000000e+00
      vertex  -1.956295e+00 -4.158229e-01  0.000000e+00
    endloop
  endfacet
  facet normal  0.000000e+00  0.000000e+00 -1.000000e+00
    outer loop
      vertex   0.000000e+00  4.371139e-07  0.000000e+00
      vertex  -1.956295e+00 -4.158229e-01  0.000000e+00
      vertex  -1.989044e+00 -2.090565e-01  0.000000e+00
    endloop
  endfacet
  facet normal -0.000000e+00  0.000000e+00 -1.000000e+00
    outer loop
      vertex   0.000000e+00  4.371139e-07  0.000000e+00
      vertex  -1.989044e+00 -2.090565e-01  0.000000e+00
      vertex  -2.000000e+00  4.371139e-07  0.000000e+00
    endloop
  endfacet
  facet normal  0.000000e+00  0.000000e+00 -1.000000e+00
    outer loop
      vertex   0.000000e+00  4.371139e-07  0.000000e+00
      vertex  -2.000000e+00  4.371139e-07  0.000000e+00
      vertex  -1.989044e+00  2.090574e-01  0.000000e+00
    endloop
  endfacet
  facet normal  0.000000e+00  0.000000e+00 -1.000000e+00
    outer loop
      vertex   0.000000e+00  4.371139e-07  0.000000e+00
      vertex  -1.989044e+00  2.090574e-01  0.000000e+00
      vertex  -1.956295e+00  4.158238e-01  0.000000e+00
    endloop
  endfacet
  facet normal  0.000000e+00  0.000000e+00 -1.000000e+00
    outer loop
      vertex   0.000000e+00  4.371139e-07  0.000000e+00
      vertex  -1.956295e+00  4.158238e-01  0.000000e+00
      vertex  -1.902113e+00  6.180344e-01  0.000000e+00
    endloop
  endfacet
  facet normal  0.000000e+00  0.000000e+00 -1.000000e+00
    outer loop
      vertex   0.000000e+00  4.371139e-07  0.000000e+00
      vertex  -1.902113e+00  6.180344e-01  0.000000e+00
      vertex  -1.827091e+00  8.134737e-01  0.000000e+00
    endloop
  endfacet
  facet normal  0.000000e+00  0.000000e+00 -1.000000e+00
    outer loop
      vertex   0.000000e+00  4.371139e-07  0.000000e+00
      vertex  -1.827091e+00  8.134737e-01  0.000000e+00
      vertex  -1.732051e+00  1.000000e+00  0.000000e+00
    endloop
  endfacet
  facet normal  0.000000e+00  0.000000e+00 -1.000000e+00
    outer loop
      vertex   0.000000e+00  4.371139e-07  0.000000e+00
      vertex  -1.732051e+00  1.000000e+00  0.000000e+00
      vertex  -1.618034e+00  1.175571e+00  0.000000e+00
    endloop
  endfacet
  facet normal  0.000000e+00  0.000000e+00 -1.000000e+00
    outer loop
      vertex   0.000000e+00  4.371139e-07  0.000000e+00
      vertex  -1.618034e+00  1.175571e+00  0.000000e+00
      vertex  -1.486290e+00  1.338262e+00  0.000000e+00
    endloop
  endfacet
  facet normal  0.000000e+00  0.000000e+00 -1.000000e+00
    outer loop
      vertex   0.000000e+00  4.371139e-07  0.000000e+00
      vertex  -1.486290e+00  1.338262e+00  0.000000e+00
      vertex  -1.338261e+00  1.486290e+00  0.000000e+00
    endloop
  endfacet
  facet normal  0.000000e+00  0.000000e+00 -1.000000e+00
    outer loop
      vertex   0.000000e+00  4.371139e-07  0.000000e+00
      vertex  -1.338261e+00  1.486290e+00  0.000000e+00
      vertex  -1.175570e+00  1.618034e+00  0.000000e+00
    endloop
  endfacet
  facet normal  0.000000e+00  0.000000e+00 -1.000000e+00
    outer loop
      vertex   0.000000e+00  4.371139e-07  0.000000e+00
      vertex  -1.175570e+00  1.618034e+00  0.000000e+00
      vertex  -9.999999e-01  1.732051e+00  0.000000e+00
    endloop
  endfacet
  facet normal  0.000000e+00  0.000000e+00 -1.000000e+00
    outer loop
      vertex   0.000000e+00  4.371139e-07  0.000000e+00
      vertex  -9.999999e-01  1.732051e+00  0.000000e+00
      vertex  -8.134732e-01  1.827091e+00  0.000000e+00
    endloop
  endfacet
  facet normal  0.000000e+00  0.000000e+00 -1.000000e+00
    outer loop
      vertex   0.000000e+00  4.371139e-07  0.000000e+00
      vertex  -8.134732e-01  1.827091e+00  0.000000e+00
      vertex  -6.180339e-01  1.902114e+00  0.000000e+00
    endloop
  endfacet
  facet normal  0.000000e+00  0.000000e+00 -1.000000e+00
    outer loop
      vertex   0.000000e+00  4.371139e-07  0.000000e+00
      vertex  -6.180339e-01  1.902114e+00  0.000000e+00
      vertex  -4.158233e-01  1.956296e+00  0.000000e+00
    endloop
  endfacet
  facet normal  0.000000e+00  0.000000e+00 -1.000000e+00
    outer loop
      vertex   0.000000e+00  4.371139e-07  0.000000e+00
      vertex  -4.158233e-01  1.956296e+00  0.000000e+00
      vertex  -2.090569e-01  1.989044e+00  0.000000e+00
    endloop
  endfacet
  facet normal  0.000000e+00  0.000000e+00 -1.000000e+00
    outer loop
      vertex   0.000000e+00  4.371139e-07  0.000000e+00
      vertex  -2.090569e-01  1.989044e+00  0.000000e+00
      vertex  -3.673940e-16  2.000000e+00  0.000000e+00
    endloop
  endfacet
  facet normal  0.000000e+00  0.000000e+00 -1.000000e+00
    outer loop
      vertex   0.000000e+00  4.371139e-07  0.000000e+00
      vertex  -3.673940e-16  2.000000e+00  0.000000e+00
      vertex   2.090569e-01  1.989044e+00  0.000000e+00
    endloop
  endfacet
  facet normal  0.000000e+00  0.000000e+00 -1.000000e+00
    outer loop
      vertex   0.000000e+00  4.371139e-07  0.000000e+00
      vertex   2.090569e-01  1.989044e+00  0.000000e+00
      vertex   4.158233e-01  1.956296e+00  0.000000e+00
    endloop
  endfacet
  facet normal  0.000000e+00  0.000000e+00 -1.000000e+00
    outer loop
      vertex   0.000000e+00  4.371139e-07  0.000000e+00
      vertex   4.158233e-01  1.956296e+00  0.000000e+00
      vertex   6.180339e-01  1.902114e+00  0.000000e+00
    endloop
  endfacet
  facet normal  0.000000e+00  0.000000e+00 -1.000000e+00
    outer loop
      vertex   0.000000e+00  4.371139e-07  0.000000e+00
      vertex   6.180339e-01  1.902114e+00  0.000000e+00
      vertex   8.134732e-01  1.827091e+00  0.000000e+00
    endloop
  endfacet
  facet normal  0.000000e+00  0.000000e+00 -1.000000e+00
    outer loop
      vertex   0.000000e+00  4.371139e-07  0.000000e+00
      vertex   8.134732e-01  1.827091e+00  0.000000e+00
      vertex   9.999999e-01  1.732051e+00  0.000000e+00
    endloop
  endfacet
  facet normal  0.000000e+00  0.000000e+00 -1.000000e+00
    outer loop
      vertex   0.000000e+00  4.371139e-07  0.000000e+00
      vertex   9.999999e-01  1.732051e+00  0.000000e+00
      vertex   1.175570e+00  1.618034e+00  0.000000e+00
    endloop
  endfacet
  facet normal  0.000000e+00  0.000000e+00 -1.000000e+00
    outer loop
      vertex   0.000000e+00  4.371139e-07  0.000000e+00
      vertex   1.175570e+00  1.618034e+00  0.000000e+00
      vertex   1.338261e+00  1.486290e+00  0.000000e+00
    endloop
  endfacet
  facet normal  0.000000e+00  0.000000e+00 -1.000000e+00
    outer loop
      vertex   0.000000e+00  4.371139e-07  0.000000e+00
      vertex   1.338261e+00  1.486290e+00  0.000000e+00
      vertex   1.486290e+00  1.338262e+00  0.000000e+00
    endloop
  endfacet
  facet normal  0.000000e+00  0.000000e+00 -1.000000e+00
    outer loop
      vertex   0.000000e+00  4.371139e-07  0.000000e+00
      vertex   1.486290e+00  1.338262e+00  0.000000e+00
      vertex   1.618034e+00  1.175571e+00  0.000000e+00
    endloop
  endfacet
  facet normal  0.000000e+00  0.000000e+00 -1.000000e+00
    outer loop
      vertex   0.000000e+00  4.371139e-07  0.000000e+00
      vertex   1.618034e+00  1.175571e+00  0.000000e+00
      vertex   1.732051e+00  1.000000e+00  0.000000e+00
    endloop
  endfacet
  facet normal  0.000000e+00  0.000000e+00 -1.000000e+00
    outer loop
      vertex   0.000000e+00  4.371139e-07  0.000000e+00
      vertex   1.732051e+00  1.000000e+00  0.000000e+00
      vertex   1.827091e+00  8.134737e-01  0.000000e+00
    endloop
  endfacet
  facet normal  0.000000e+00  0.000000e+00 -1.000000e+00
    outer loop
      vertex   0.000000e+00  4.371139e-07  0.000000e+00
      vertex   1.827091e+00  8.134737e-01  0.000000e+00
      vertex   1.902113e+00  6.180344e-01  0.000000e+00
    endloop
  endfacet
  facet normal  0.000000e+00  0.000000e+00 -1.000000e+00
    outer loop
      vertex   0.000000e+00  4.371139e-07  0.000000e+00
      vertex   1.902113e+00  6.180344e-01  0.000000e+00
      vertex   1.956295e+00  4.158238e-01  0.000000e+00
    endloop
  endfacet
  facet normal  0.000000e+00  0.000000e+00 -1.000000e+00
    outer loop
      vertex   0.000000e+00  4.371139e-07  0.000000e+00
      vertex   1.956295e+00  4.158238e-01  0.000000e+00
      vertex   1.989044e+00  2.090574e-01  0.000000e+00
    endloop
  endfacet
  facet normal  0.000000e+00  0.000000e+00 -1.000000e+00
    outer loop
      vertex   0.000000e+00  4.371139e-07  0.000000e+00
      vertex   1.989044e+00  2.090574e-01  0.000000e+00
      vertex   2.000000e+00  4.371139e-07  0.000000e+00
    endloop
  endfacet
  facet normal -0.000000e+00  0.000000e+00  1.000000e+00
    outer loop
      vertex   0.000000e+00 -4.371139e-07  2.000000e+01
      vertex   1.989044e+00 -2.090574e-01  2.000000e+01
      vertex   2.000000e+00 -4.371139e-07  2.000000e+01
    endloop
  endfacet
  facet normal  0.000000e+00  0.000000e+00  1.000000e+00
    outer loop
      vertex   0.000000e+00 -4.371139e-07  2.000000e+01
      vertex   1.956295e+00 -4.158238e-01  2.000000e+01
      vertex   1.989044e+00 -2.090574e-01  2.000000e+01
    endloop
  endfacet
  facet normal  0.000000e+00  0.000000e+00  1.000000e+00
    outer loop
      vertex   0.000000e+00 -4.371139e-07  2.000000e+01
      vertex   1.902113e+00 -6.180344e-01  2.000000e+01
      vertex   1.956295e+00 -4.158238e-01  2.000000e+01
    endloop
  endfacet
  facet normal  0.000000e+00  0.000000e+00  1.000000e+00
    outer loop
      vertex   0.000000e+00 -4.371139e-07  2.000000e+01
      vertex   1.827091e+00 -8.134737e-01  2.000000e+01
      vertex   1.902113e+00 -6.180344e-01  2.000000e+01
    endloop
  endfacet
  facet normal  0.000000e+00  0.000000e+00  1.000000e+00
    outer loop
      vertex   0.000000e+00 -4.371139e-07  2.000000e+01
      vertex   1.732051e+00 -1.000000e+00  2.000000e+01
      vertex   1.827091e+00 -8.134737e-01  2.000000e+01
    endloop
  endfacet
  facet normal  0.000000e+00  0.000000e+00  1.000000e+00
    outer loop
      vertex   0.000000e+00 -4.371139e-07  2.000000e+01
      vertex   1.618034e+00 -1.175571e+00  2.000000e+01
      vertex   1.732051e+00 -1.000000e+00  2.000000e+01
    endloop
  endfacet
  facet normal  0.000000e+00  0.000000e+00  1.000000e+00
    outer loop
      vertex   0.000000e+00 -4.371139e-07  2.000000e+01
      vertex   1.486290e+00 -1.338262e+00  2.000000e+01
      vertex   1.618034e+00 -1.175571e+00  2.000000e+01
    endloop
  endfacet
  facet normal  0.000000e+00  0.000000e+00  1.000000e+00
    outer loop
      vertex   0.000000e+00 -4.371139e-07  2.000000e+01
      vertex   1.338261e+00 -1.486290e+00  2.000000e+01
      vertex   1.486290e+00 -1.338262e+00  2.000000e+01
    endloop
  endfacet
  facet normal  0.000000e+00  0.000000e+00  1.000000e+00
    outer loop
      vertex   0.000000e+00 -4.371139e-07  2.000000e+01
      vertex   1.175570e+00 -1.618034e+00  2.000000e+01
      vertex   1.338261e+00 -1.486290e+00  2.000000e+01
    endloop
  endfacet
  facet normal  0.000000e+00  0.000000e+00  1.000000e+00
    outer loop
      vertex   0.000000e+00 -4.371139e-07  2.000000e+01
      vertex   9.999999e-01 -1.732051e+00  2.000000e+01
      vertex   1.175570e+00 -1.618034e+00  2.000000e+01
    endloop
  endfacet
  facet normal  0.000000e+00  0.000000e+00  1.000000e+00
    outer loop
      vertex   0.000000e+00 -4.371139e-07  2.000000e+01
      vertex   8.134732e-01 -1.827091e+00  2.000000e+01
      vertex   9.999999e-01 -1.732051e+00  2.000000e+01
    endloop
  endfacet
  facet normal  0.000000e+00  0.000000e+00  1.000000e+00
    outer loop
      vertex   0.000000e+00 -4.371139e-07  2.000000e+01
      vertex   6.180339e-01 -1.902114e+00  2.000000e+01
      vertex   8.134732e-01 -1.827091e+00  2.000000e+01
    endloop
  endfacet
  facet normal  0.000000e+00  0.000000e+00  1.000000e+00
    outer loop
      vertex   0.000000e+00 -4.371139e-07  2.000000e+01
      vertex   4.158233e-01 -1.956296e+00  2.000000e+01
      vertex   6.180339e-01 -1.902114e+00  2.000000e+01
    endloop
  endfacet
  facet normal  0.000000e+00  0.000000e+00  1.000000e+00
    outer loop
      vertex   0.000000e+00 -4.371139e-07  2.000000e+01
      vertex   2.090569e-01 -1.989044e+00  2.000000e+01
      vertex   4.158233e-01 -1.956296e+00  2.000000e+01
    endloop
  endfacet
  facet normal  0.000000e+00  0.000000e+00  1.000000e+00
    outer loop
      vertex   0.000000e+00 -4.371139e-07  2.000000e+01
      vertex   1.224647e-16 -2.000000e+00  2.000000e+01
      vertex   2.090569e-01 -1.989044e+00  2.000000e+01
    endloop
  endfacet
  facet normal  0.000000e+00  0.000000e+00  1.000000e+00
    outer loop
      vertex   0.000000e+00 -4.371139e-07  2.000000e+01
      vertex  -2.090569e-01 -1.989044e+00  2.000000e+01
      vertex   1.224647e-16 -2.000000e+00  2.000000e+01
    endloop
  endfacet
  facet normal  0.000000e+00  0.000000e+00  1.000000e+00
    outer loop
      vertex   0.000000e+00 -4.371139e-07  2.000000e+01
      vertex  -4.158233e-01 -1.956296e+00  2.000000e+01
      vertex  -2.090569e-01 -1.989044e+00  2.000000e+01
    endloop
  endfacet
  facet normal  0.000000e+00  0.000000e+00  1.000000e+00
    outer loop
      vertex   0.000000e+00 -4.371139e-07  2.000000e+01
      vertex  -6.180339e-01 -1.902114e+00  2.000000e+01
      vertex  -4.158233e-01 -1.956296e+00  2.000000e+01
    endloop
  endfacet
  facet normal  0.000000e+00  0.000000e+00  1.000000e+00
    outer loop
      vertex   0.000000e+00 -4.371139e-07  2.000000e+01
      vertex  -8.134732e-01 -1.827091e+00  2.000000e+01
      vertex  -6.180339e-01 -1.902114e+00  2.000000e+01
    endloop
  endfacet
  facet normal  0.000000e+00  0.000000e+00  1.000000e+00
    outer loop
      vertex   0.000000e+00 -4.371139e-07  2.000000e+01
      vertex  -9.999999e-01 -1.732051e+00  2.000000e+01
      vertex  -8.134732e-01 -1.827091e+00  2.000000e+01
    endloop
  endfacet
  facet normal  0.000000e+00  0.000000e+00  1.000000e+00
    outer loop
      vertex   0.000000e+00 -4.371139e-07  2.000000e+01
      vertex  -1.175570e+00 -1.618034e+00  2.000000e+01
      vertex  -9.999999e-01 -1.732051e+00  2.000000e+01
    endloop
  endfacet
  facet normal  0.000000e+00  0.000000e+00  1.000000e+00
    outer loop
      vertex   0.000000e+00 -4.371139e-07  2.000000e+01
      vertex  -1.338261e+00 -1.486290e+00  2.000000e+01
      vertex  -1.175570e+00 -1.618034e+00  2.000000e+01
    endloop
  endfacet
  facet normal  0.000000e+00  0.000000e+00  1.000000e+00
    outer loop
      vertex   0.000000e+00 -4.371139e-07  2.000000e+01
      vertex  -1.486290e+00 -1.338262e+00  2.000000e+01
      vertex  -1.338261e+00 -1.486290e+00  2.000000e+01
    endloop
  endfacet
  facet normal  0.000000e+00  0.000000e+00  1.000000e+00
    outer loop
      vertex   0.000000e+00 -4.371139e-07  2.000000e+01
      vertex  -1.618034e+00 -1.175571e+00  2.000000e+01
      vertex  -1.486290e+00 -1.338262e+00  2.000000e+01
    endloop
  endfacet
  facet normal  0.000000e+00  0.000000e+00  1.000000e+00
    outer loop
      vertex   0.000000e+00 -4.371139e-07  2.000000e+01
      vertex  -1.732051e+00 -1.000000e+00  2.000000e+01
      vertex  -1.618034e+00 -1.175571e+00  2.000000e+01
    endloop
  endfacet
  facet normal  0.000000e+00  0.000000e+00  1.000000e+00
    outer loop
      vertex   0.000000e+00 -4.371139e-07  2.000000e+01
      vertex  -1.827091e+00 -8.134737e-01  2.000000e+01
      vertex  -1.732051e+00 -1.000000e+00  2.000000e+01
    endloop
  endfacet
  facet normal  0.000000e+00  0.000000e+00  1.000000e+00
    outer loop
      vertex   0.000000e+00 -4.371139e-07  2.000000e+01
      vertex  -1.902113e+00 -6.180344e-01  2.000000e+01
      vertex  -1.827091e+00 -8.134737e-01  2.000000e+01
    endloop
  endfacet
  facet normal  0.000000e+00  0.000000e+00  1.000000e+00
    outer loop
      vertex   0.000000e+00 -4.371139e-07  2.000000e+01
      vertex  -1.956295e+00 -4.158238e-01  2.000000e+01
      vertex  -1.902113e+00 -6.180344e-01  2.000000e+01
    endloop
  endfacet
  facet normal  0.000000e+00  0.000000e+00  1.000000e+00
    outer loop
      vertex   0.000000e+00 -4.371139e-07  2.000000e+01
      vertex  -1.989044e+00 -2.090574e-01  2.000000e+01
      vertex  -1.956295e+00 -4.158238e-01  2.000000e+01
    endloop
  endfacet
  facet normal  0.000000e+00  0.000000e+00  1.000000e+00
    outer loop
      vertex   0.000000e+00 -4.371139e-07  2.000000e+01
      vertex  -2.000000e+00 -4.371139e-07  2.000000e+01
      vertex  -1.989044e+00 -2.090574e-01  2.000000e+01
    endloop
  endfacet
  facet normal  0.000000e+00  0.000000e+00  1.000000e+00
    outer loop
      vertex   0.000000e+00 -4.371139e-07  2.000000e+01
      vertex  -1.989044e+00  2.090565e-01  2.000000e+01
      vertex  -2.000000e+00 -4.371139e-07  2.000000e+01
    endloop
  endfacet
  facet normal  0.000000e+00  0.000000e+00  1.000000e+00
    outer loop
      vertex   0.000000e+00 -4.371139e-07  2.000000e+01
      vertex  -1.956295e+00  4.158229e-01  2.000000e+01
      vertex  -1.989044e+00  2.090565e-01  2.000000e+01
    endloop
  endfacet
  facet normal  0.000000e+00  0.000000e+00  1.000000e+00
    outer loop
      vertex   0.000000e+00 -4.371139e-07  2.000000e+01
      vertex  -1.902113e+00  6.180336e-01  2.000000e+01
      vertex  -1.956295e+00  4.158229e-01  2.000000e+01
    endloop
  endfacet
  facet normal  0.000000e+00  0.000000e+00  1.000000e+00
    outer loop
      vertex   0.000000e+00 -4.371139e-07  2.000000e+01
      vertex  -1.827091e+00  8.134729e-01  2.000000e+01
      vertex  -1.902113e+00  6.180336e-01  2.000000e+01
    endloop
  endfacet
  facet normal  0.000000e+00  0.000000e+00  1.000000e+00
    outer loop
      vertex   0.000000e+00 -4.371139e-07  2.000000e+01
      vertex  -1.732051e+00  9.999996e-01  2.000000e+01
      vertex  -1.827091e+00  8.134729e-01  2.000000e+01
    endloop
  endfacet
  facet normal  0.000000e+00  0.000000e+00  1.000000e+00
    outer loop
      vertex   0.000000e+00 -4.371139e-07  2.000000e+01
      vertex  -1.618034e+00  1.175570e+00  2.000000e+01
      vertex  -1.732051e+00  9.999996e-01  2.000000e+01
    endloop
  endfacet
  facet normal  0.000000e+00  0.000000e+00  1.000000e+00
    outer loop
      vertex   0.000000e+00 -4.371139e-07  2.000000e+01
      vertex  -1.486290e+00  1.338261e+00  2.000000e+01
      vertex  -1.618034e+00  1.175570e+00  2.000000e+01
    endloop
  endfacet
  facet normal  0.000000e+00  0.000000e+00  1.000000e+00
    outer loop
      vertex   0.000000e+00 -4.371139e-07  2.000000e+01
      vertex  -1.338261e+00  1.486289e+00  2.000000e+01
      vertex  -1.486290e+00  1.338261e+00  2.000000e+01
    endloop
  endfacet
  facet normal  0.000000e+00  0.000000e+00  1.000000e+00
    outer loop
      vertex   0.000000e+00 -4.371139e-07  2.000000e+01
      vertex  -1.175570e+00  1.618034e+00  2.000000e+01
      vertex  -1.338261e+00  1.486289e+00  2.000000e+01
    endloop
  endfacet
  facet normal  0.000000e+00  0.000000e+00  1.000000e+00
    outer loop
      vertex   0.000000e+00 -4.371139e-07  2.000000e+01
      vertex  -9.999999e-01  1.732050e+00  2.000000e+01
      vertex  -1.175570e+00  1.618034e+00  2.000000e+01
    endloop
  endfacet
  facet normal  0.000000e+00  0.000000e+00  1.000000e+00
    outer loop
      vertex   0.000000e+00 -4.371139e-07  2.000000e+01
      vertex  -8.134732e-01  1.827090e+00  2.000000e+01
      vertex  -9.999999e-01  1.732050e+00  2.000000e+01
    endloop
  endfacet
  facet normal  0.000000e+00  0.000000e+00  1.000000e+00
    outer loop
      vertex   0.000000e+00 -4.371139e-07  2.000000e+01
      vertex  -6.180339e-01  1.902113e+00  2.000000e+01
      vertex  -8.134732e-01  1.827090e+00  2.000000e+01
    endloop
  endfacet
  facet normal  0.000000e+00  0.000000e+00  1.000000e+00
    outer loop
      vertex   0.000000e+00 -4.371139e-07  2.000000e+01
      vertex  -4.158233e-01  1.956295e+00  2.000000e+01
      vertex  -6.180339e-01  1.902113e+00  2.000000e+01
    endloop
  endfacet
  facet normal  0.000000e+00  0.000000e+00  1.000000e+00
    outer loop
      vertex   0.000000e+00 -4.371139e-07  2.000000e+01
      vertex  -2.090569e-01  1.989043e+00  2.000000e+01
      vertex  -4.158233e-01  1.956295e+00  2.000000e+01
    endloop
  endfacet
  facet normal  0.000000e+00  0.000000e+00  1.000000e+00
    outer loop
      vertex   0.000000e+00 -4.371139e-07  2.000000e+01
      vertex  -3.673940e-16  2.000000e+00  2.000000e+01
      vertex  -2.090569e-01  1.989043e+00  2.000000e+01
    endloop
  endfacet
  facet normal  0.000000e+00 -0.000000e+00  1.000000e+00
    outer loop
      vertex   0.000000e+00 -4.371139e-07  2.000000e+01
      vertex   2.090569e-01  1.989043e+00  2.000000e+01
      vertex  -3.673940e-16  2.000000e+00  2.000000e+01
    endloop
  endfacet
  facet normal  0.000000e+00  0.000000e+00  1.000000e+00
    outer loop
      vertex   0.000000e+00 -4.371139e-07  2.000000e+01
      vertex   4.158233e-01  1.956295e+00  2.000000e+01
      vertex   2.090569e-01  1.989043e+00  2.000000e+01
    endloop
  endfacet
  facet normal  0.000000e+00  0.000000e+00  1.000000e+00
    outer loop
      vertex   0.000000e+00 -4.371139e-07  2.000000e+01
      vertex   6.180339e-01  1.902113e+00  2.000000e+01
      vertex   4.158233e-01  1.956295e+00  2.000000e+01
    endloop
  endfacet
  facet normal  0.000000e+00  0.000000e+00  1.000000e+00
    outer loop
      vertex   0.000000e+00 -4.371139e-07  2.000000e+01
      vertex   8.134732e-01  1.827090e+00  2.000000e+01
      vertex   6.180339e-01  1.902113e+00  2.000000e+01
    endloop
  endfacet
  facet normal  0.000000e+00  0.000000e+00  1.000000e+00
    outer loop
      vertex   0.000000e+00 -4.371139e-07  2.000000e+01
      vertex   9.999999e-01  1.732050e+00  2.000000e+01
      vertex   8.134732e-01  1.827090e+00  2.000000e+01
    endloop
  endfacet
  facet normal  0.000000e+00  0.000000e+00  1.000000e+00
    outer loop
      vertex   0.000000e+00 -4.371139e-07  2.000000e+01
      vertex   1.175570e+00  1.618034e+00  2.000000e+01
      vertex   9.999999e-01  1.732050e+00  2.000000e+01
    endloop
  endfacet
  facet normal  0.000000e+00  0.000000e+00  1.000000e+00
    outer loop
      vertex   0.000000e+00 -4.371139e-07  2.000000e+01
      vertex   1.338261e+00  1.486289e+00  2.000000e+01
      vertex   1.175570e+00  1.618034e+00  2.000000e+01
    endloop
  endfacet
  facet normal  0.000000e+00  0.000000e+00  1.000000e+00
    outer loop
      vertex   0.000000e+00 -4.371139e-07  2.000000e+01
      vertex   1.486290e+00  1.338261e+00  2.000000e+01
      vertex   1.338261e+00  1.486289e+00  2.000000e+01
    endloop
  endfacet
  facet normal  0.000000e+00  0.000000e+00  1.000000e+00
    outer loop
      vertex   0.000000e+00 -4.371139e-07  2.000000e+01
      vertex   1.618034e+00  1.175570e+00  2.000000e+01
      vertex   1.486290e+00  1.338261e+00  2.000000e+01
    endloop
  endfacet
  facet normal  0.000000e+00  0.000000e+00  1.000000e+00
    outer loop
      vertex   0.000000e+00 -4.371139e-07  2.000000e+01
      vertex   1.732051e+00  9.999996e-01  2.000000e+01
      vertex   1.618034e+00  1.175570e+00  2.000000e+01
    endloop
  endfacet
  facet normal  0.000000e+00  0.000000e+00  1.000000e+00
    outer loop
      vertex   0.000000e+00 -4.371139e-07  2.000000e+01
      vertex   1.827091e+00  8.134729e-01  2.000000e+01
      vertex   1.732051e+00  9.999996e-01  2.000000e+01
    endloop
  endfacet
  facet normal  0.000000e+00  0.000000e+00  1.000000e+00
    outer loop
      vertex   0.000000e+00 -4.371139e-07  2.000000e+01
      vertex   1.902113e+00  6.180336e-01  2.000000e+01
      vertex   1.827091e+00  8.134729e-01  2.000000e+01
    endloop
  endfacet
  facet normal  0.000000e+00  0.000000e+00  1.000000e+00
    outer loop
      vertex   0.000000e+00 -4.371139e-07  2.000000e+01
      vertex   1.956295e+00  4.158229e-01  2.000000e+01
      vertex   1.902113e+00  6.180336e-01  2.000000e+01
    endloop
  endfacet
  facet normal  0.000000e+00  0.000000e+00  1.000000e+00
    outer loop
      vertex   0.000000e+00 -4.371139e-07  2.000000e+01
      vertex   1.989044e+00  2.090565e-01  2.000000e+01
      vertex   1.956295e+00  4.158229e-01  2.000000e+01
    endloop
  endfacet
  facet normal  0.000000e+00  0.000000e+00  1.000000e+00
    outer loop
      vertex   0.000000e+00 -4.371139e-07  2.000000e+01
      vertex   2.000000e+00 -4.371139e-07  2.000000e+01
      vertex   1.989044e+00  2.090565e-01  2.000000e+01
    endloop
  endfacet
  facet normal  9.986296e-01 -5.233577e-02 -2.287669e-09
    outer loop
      vertex   2.000000e+00  4.371139e-07  0.000000e+00
      vertex   2.000000e+00 -4.371139e-07  2.000000e+01
      vertex   1.989044e+00 -2.090574e-01  2.000000e+01
    endloop
  endfacet
  facet normal  9.986296e-01 -5.233576e-02 -2.279995e-09
    outer loop
      vertex   2.000000e+00  4.371139e-07  0.000000e+00
      vertex   1.989044e+00 -2.090574e-01  2.000000e+01
      vertex   1.989044e+00 -2.090565e-01  0.000000e+00
    endloop
  endfacet
  facet normal  9.876883e-01 -1.564344e-01 -6.760058e-09
    outer loop
      vertex   1.989044e+00 -2.090565e-01  0.000000e+00
      vertex   1.989044e+00 -2.090574e-01  2.000000e+01
      vertex   1.956295e+00 -4.158238e-01  2.000000e+01
    endloop
  endfacet
  facet normal  9.876883e-01 -1.564344e-01 -7.006814e-09
    outer loop
      vertex   1.989044e+00 -2.090565e-01  0.000000e+00
      vertex   1.956295e+00 -4.158238e-01  2.000000e+01
      vertex   1.956295e+00 -4.158229e-01  0.000000e+00
    endloop
  endfacet
  facet normal  9.659258e-01 -2.588190e-01 -1.157011e-08
    outer loop
      vertex   1.956295e+00 -4.158229e-01  0.000000e+00
      vertex   1.956295e+00 -4.158238e-01  2.000000e+01
      vertex   1.902113e+00 -6.180344e-01  2.000000e+01
    endloop
  endfacet
  facet normal  9.659258e-01 -2.588190e-01 -1.089948e-08
    outer loop
      vertex   1.956295e+00 -4.158229e-01  0.000000e+00
      vertex   1.902113e+00 -6.180344e-01  2.000000e+01
      vertex   1.902113e+00 -6.180336e-01  0.000000e+00
    endloop
  endfacet
  facet normal  9.335803e-01 -3.583684e-01 -1.495230e-08
    outer loop
      vertex   1.902113e+00 -6.180336e-01  0.000000e+00
      vertex   1.902113e+00 -6.180344e-01  2.000000e+01
      vertex   1.827091e+00 -8.134737e-01  2.000000e+01
    endloop
  endfacet
  facet normal  9.335803e-01 -3.583684e-01 -1.490338e-08
    outer loop
      vertex   1.902113e+00 -6.180336e-01  0.000000e+00
      vertex   1.827091e+00 -8.134737e-01  2.000000e+01
      vertex   1.827091e+00 -8.134729e-01  0.000000e+00
    endloop
  endfacet
  facet normal  8.910066e-01 -4.539903e-01 -1.894195e-08
    outer loop
      vertex   1.827091e+00 -8.134729e-01  0.000000e+00
      vertex   1.827091e+00 -8.134737e-01  2.000000e+01
      vertex   1.732051e+00 -1.000000e+00  2.000000e+01
    endloop
  endfacet
  facet normal  8.910066e-01 -4.539904e-01 -2.046434e-08
    outer loop
      vertex   1.827091e+00 -8.134729e-01  0.000000e+00
      vertex   1.732051e+00 -1.000000e+00  2.000000e+01
      vertex   1.732051e+00 -9.999996e-01  0.000000e+00
    endloop
  endfacet
  facet normal  8.386706e-01 -5.446389e-01 -2.434726e-08
    outer loop
      vertex   1.732051e+00 -9.999996e-01  0.000000e+00
      vertex   1.732051e+00 -1.000000e+00  2.000000e+01
      vertex   1.618034e+00 -1.175571e+00  2.000000e+01
    endloop
  endfacet
  facet normal  8.386706e-01 -5.446390e-01 -2.580288e-08
    outer loop
      vertex   1.732051e+00 -9.999996e-01  0.000000e+00
      vertex   1.618034e+00 -1.175571e+00  2.000000e+01
      vertex   1.618034e+00 -1.175570e+00  0.000000e+00
    endloop
  endfacet
  facet normal  7.771459e-01 -6.293204e-01 -3.000833e-08
    outer loop
      vertex   1.618034e+00 -1.175570e+00  0.000000e+00
      vertex   1.618034e+00 -1.175571e+00  2.000000e+01
      vertex   1.486290e+00 -1.338262e+00  2.000000e+01
    endloop
  endfacet
  facet normal  7.771459e-01 -6.293204e-01 -3.025162e-08
    outer loop
      vertex   1.618034e+00 -1.175570e+00  0.000000e+00
      vertex   1.486290e+00 -1.338262e+00  2.000000e+01
      vertex   1.486290e+00 -1.338261e+00  0.000000e+00
    endloop
  endfacet
  facet normal  7.071068e-01 -7.071068e-01 -3.371748e-08
    outer loop
      vertex   1.486290e+00 -1.338261e+00  0.000000e+00
      vertex   1.486290e+00 -1.338262e+00  2.000000e+01
      vertex   1.338261e+00 -1.486290e+00  2.000000e+01
    endloop
  endfacet
  facet normal  7.071068e-01 -7.071068e-01 -3.381067e-08
    outer loop
      vertex   1.486290e+00 -1.338261e+00  0.000000e+00
      vertex   1.338261e+00 -1.486290e+00  2.000000e+01
      vertex   1.338261e+00 -1.486289e+00  0.000000e+00
    endloop
  endfacet
  facet normal  6.293204e-01 -7.771459e-01 -3.705721e-08
    outer loop
      vertex   1.338261e+00 -1.486289e+00  0.000000e+00
      vertex   1.338261e+00 -1.486290e+00  2.000000e+01
      vertex   1.175570e+00 -1.618034e+00  2.000000e+01
    endloop
  endfacet
  facet normal  6.293204e-01 -7.771459e-01 -3.692478e-08
    outer loop
      vertex   1.338261e+00 -1.486289e+00  0.000000e+00
      vertex   1.175570e+00 -1.618034e+00  2.000000e+01
      vertex   1.175570e+00 -1.618034e+00  0.000000e+00
    endloop
  endfacet
  facet normal  5.446390e-01 -8.386706e-01 -3.999093e-08
    outer loop
      vertex   1.175570e+00 -1.618034e+00  0.000000e+00
      vertex   1.175570e+00 -1.618034e+00  2.000000e+01
      vertex   9.999999e-01 -1.732051e+00  2.000000e+01
    endloop
  endfacet
  facet normal  5.446390e-01 -8.386706e-01 -4.003895e-08
    outer loop
      vertex   1.175570e+00 -1.618034e+00  0.000000e+00
      vertex   9.999999e-01 -1.732051e+00  2.000000e+01
      vertex   9.999999e-01 -1.732050e+00  0.000000e+00
    endloop
  endfacet
  facet normal  4.539904e-01 -8.910066e-01 -4.248650e-08
    outer loop
      vertex   9.999999e-01 -1.732050e+00  0.000000e+00
      vertex   9.999999e-01 -1.732051e+00  2.000000e+01
      vertex   8.134732e-01 -1.827091e+00  2.000000e+01
    endloop
  endfacet
  facet normal  4.539904e-01 -8.910066e-01 -4.226332e-08
    outer loop
      vertex   9.999999e-01 -1.732050e+00  0.000000e+00
      vertex   8.134732e-01 -1.827091e+00  2.000000e+01
      vertex   8.134732e-01 -1.827090e+00  0.000000e+00
    endloop
  endfacet
  facet normal  3.583684e-01 -9.335803e-01 -4.451658e-08
    outer loop
      vertex   8.134732e-01 -1.827090e+00  0.000000e+00
      vertex   8.134732e-01 -1.827091e+00  2.000000e+01
      vertex   6.180339e-01 -1.902114e+00  2.000000e+01
    endloop
  endfacet
  facet normal  3.583684e-01 -9.335803e-01 -4.448770e-08
    outer loop
      vertex   8.134732e-01 -1.827090e+00  0.000000e+00
      vertex   6.180339e-01 -1.902114e+00  2.000000e+01
      vertex   6.180339e-01 -1.902113e+00  0.000000e+00
    endloop
  endfacet
  facet normal  2.588190e-01 -9.659258e-01 -4.605893e-08
    outer loop
      vertex   6.180339e-01 -1.902113e+00  0.000000e+00
      vertex   6.180339e-01 -1.902114e+00  2.000000e+01
      vertex   4.158233e-01 -1.956296e+00  2.000000e+01
    endloop
  endfacet
  facet normal  2.588190e-01 -9.659258e-01 -4.604477e-08
    outer loop
      vertex   6.180339e-01 -1.902113e+00  0.000000e+00
      vertex   4.158233e-01 -1.956296e+00  2.000000e+01
      vertex   4.158233e-01 -1.956295e+00  0.000000e+00
    endloop
  endfacet
  facet normal  1.564344e-01 -9.876883e-01 -4.709665e-08
    outer loop
      vertex   4.158233e-01 -1.956295e+00  0.000000e+00
      vertex   4.158233e-01 -1.956296e+00  2.000000e+01
      vertex   2.090569e-01 -1.989044e+00  2.000000e+01
    endloop
  endfacet
  facet normal  1.564344e-01 -9.876883e-01 -4.704575e-08
    outer loop
      vertex   4.158233e-01 -1.956295e+00  0.000000e+00
      vertex   2.090569e-01 -1.989044e+00  2.000000e+01
      vertex   2.090569e-01 -1.989043e+00  0.000000e+00
    endloop
  endfacet
  facet normal  5.233577e-02 -9.986296e-01 -4.761837e-08
    outer loop
      vertex   2.090569e-01 -1.989043e+00  0.000000e+00
      vertex   2.090569e-01 -1.989044e+00  2.000000e+01
      vertex   1.224647e-16 -2.000000e+00  2.000000e+01
    endloop
  endfacet
  facet normal  5.233577e-02 -9.986296e-01 -4.765746e-08
    outer loop
      vertex   2.090569e-01 -1.989043e+00  0.000000e+00
      vertex   1.224647e-16 -2.000000e+00  2.000000e+01
      vertex   1.224647e-16 -2.000000e+00  0.000000e+00
    endloop
  endfacet
  facet normal -5.233577e-02 -9.986296e-01 -4.761837e-08
    outer loop
      vertex   1.224647e-16 -2.000000e+00  0.000000e+00
      vertex   1.224647e-16 -2.000000e+00  2.000000e+01
      vertex  -2.090569e-01 -1.989044e+00  2.000000e+01
    endloop
  endfacet
  facet normal -5.233577e-02 -9.986296e-01 -4.760185e-08
    outer loop
      vertex   1.224647e-16 -2.000000e+00  0.000000e+00
      vertex  -2.090569e-01 -1.989044e+00  2.000000e+01
      vertex  -2.090569e-01 -1.989043e+00  0.000000e+00
    endloop
  endfacet
  facet normal -1.564344e-01 -9.876883e-01 -4.709665e-08
    outer loop
      vertex  -2.090569e-01 -1.989043e+00  0.000000e+00
      vertex  -2.090569e-01 -1.989044e+00  2.000000e+01
      vertex  -4.158233e-01 -1.956296e+00  2.000000e+01
    endloop
  endfacet
  facet normal -1.564344e-01 -9.876883e-01 -4.715697e-08
    outer loop
      vertex  -2.090569e-01 -1.989043e+00  0.000000e+00
      vertex  -4.158233e-01 -1.956296e+00  2.000000e+01
      vertex  -4.158233e-01 -1.956295e+00  0.000000e+00
    endloop
  endfacet
  facet normal -2.588190e-01 -9.659258e-01 -4.605893e-08
    outer loop
      vertex  -4.158233e-01 -1.956295e+00  0.000000e+00
      vertex  -4.158233e-01 -1.956296e+00  2.000000e+01
      vertex  -6.180339e-01 -1.902114e+00  2.000000e+01
    endloop
  endfacet
  facet normal -2.588190e-01 -9.659258e-01 -4.604477e-08
    outer loop
      vertex  -4.158233e-01 -1.956295e+00  0.000000e+00
      vertex  -6.180339e-01 -1.902114e+00  2.000000e+01
      vertex  -6.180339e-01 -1.902113e+00  0.000000e+00
    endloop
  endfacet
  facet normal -3.583684e-01 -9.335803e-01 -4.451658e-08
    outer loop
      vertex  -6.180339e-01 -1.902113e+00  0.000000e+00
      vertex  -6.180339e-01 -1.902114e+00  2.000000e+01
      vertex  -8.134732e-01 -1.827091e+00  2.000000e+01
    endloop
  endfacet
  facet normal -3.583684e-01 -9.335803e-01 -4.471014e-08
    outer loop
      vertex  -6.180339e-01 -1.902113e+00  0.000000e+00
      vertex  -8.134732e-01 -1.827091e+00  2.000000e+01
      vertex  -8.134732e-01 -1.827090e+00  0.000000e+00
    endloop
  endfacet
  facet normal -4.539904e-01 -8.910066e-01 -4.248650e-08
    outer loop
      vertex  -8.134732e-01 -1.827090e+00  0.000000e+00
      vertex  -8.134732e-01 -1.827091e+00  2.000000e+01
      vertex  -9.999999e-01 -1.732051e+00  2.000000e+01
    endloop
  endfacet
  facet normal -4.539904e-01 -8.910066e-01 -4.270820e-08
    outer loop
      vertex  -8.134732e-01 -1.827090e+00  0.000000e+00
      vertex  -9.999999e-01 -1.732051e+00  2.000000e+01
      vertex  -9.999999e-01 -1.732050e+00  0.000000e+00
    endloop
  endfacet
  facet normal -5.446390e-01 -8.386706e-01 -3.999093e-08
    outer loop
      vertex  -9.999999e-01 -1.732050e+00  0.000000e+00
      vertex  -9.999999e-01 -1.732051e+00  2.000000e+01
      vertex  -1.175570e+00 -1.618034e+00  2.000000e+01
    endloop
  endfacet
  facet normal -5.446390e-01 -8.386706e-01 -4.003895e-08
    outer loop
      vertex  -9.999999e-01 -1.732050e+00  0.000000e+00
      vertex  -1.175570e+00 -1.618034e+00  2.000000e+01
      vertex  -1.175570e+00 -1.618034e+00  0.000000e+00
    endloop
  endfacet
  facet normal -6.293204e-01 -7.771459e-01 -3.705721e-08
    outer loop
      vertex  -1.175570e+00 -1.618034e+00  0.000000e+00
      vertex  -1.175570e+00 -1.618034e+00  2.000000e+01
      vertex  -1.338261e+00 -1.486290e+00  2.000000e+01
    endloop
  endfacet
  facet normal -6.293204e-01 -7.771459e-01 -3.692478e-08
    outer loop
      vertex  -1.175570e+00 -1.618034e+00  0.000000e+00
      vertex  -1.338261e+00 -1.486290e+00  2.000000e+01
      vertex  -1.338261e+00 -1.486289e+00  0.000000e+00
    endloop
  endfacet
  facet normal -7.071068e-01 -7.071068e-01 -3.371748e-08
    outer loop
      vertex  -1.338261e+00 -1.486289e+00  0.000000e+00
      vertex  -1.338261e+00 -1.486290e+00  2.000000e+01
      vertex  -1.486290e+00 -1.338262e+00  2.000000e+01
    endloop
  endfacet
  facet normal -7.071068e-01 -7.071068e-01 -3.381067e-08
    outer loop
      vertex  -1.338261e+00 -1.486289e+00  0.000000e+00
      vertex  -1.486290e+00 -1.338262e+00  2.000000e+01
      vertex  -1.486290e+00 -1.338261e+00  0.000000e+00
    endloop
  endfacet
  facet normal -7.771459e-01 -6.293204e-01 -3.000833e-08
    outer loop
      vertex  -1.486290e+00 -1.338261e+00  0.000000e+00
      vertex  -1.486290e+00 -1.338262e+00  2.000000e+01
      vertex  -1.618034e+00 -1.175571e+00  2.000000e+01
    endloop
  endfacet
  facet normal -7.771459e-01 -6.293204e-01 -2.980675e-08
    outer loop
      vertex  -1.486290e+00 -1.338261e+00  0.000000e+00
      vertex  -1.618034e+00 -1.175571e+00  2.000000e+01
      vertex  -1.618034e+00 -1.175570e+00  0.000000e+00
    endloop
  endfacet
  facet normal -8.386706e-01 -5.446389e-01 -2.597041e-08
    outer loop
      vertex  -1.618034e+00 -1.175570e+00  0.000000e+00
      vertex  -1.618034e+00 -1.175571e+00  2.000000e+01
      vertex  -1.732051e+00 -1.000000e+00  2.000000e+01
    endloop
  endfacet
  facet normal -8.386706e-01 -5.446390e-01 -2.446825e-08
    outer loop
      vertex  -1.618034e+00 -1.175570e+00  0.000000e+00
      vertex  -1.732051e+00 -1.000000e+00  2.000000e+01
      vertex  -1.732051e+00 -9.999996e-01  0.000000e+00
    endloop
  endfacet
  facet normal -8.910066e-01 -4.539903e-01 -2.029495e-08
    outer loop
      vertex  -1.732051e+00 -9.999996e-01  0.000000e+00
      vertex  -1.732051e+00 -1.000000e+00  2.000000e+01
      vertex  -1.827091e+00 -8.134737e-01  2.000000e+01
    endloop
  endfacet
  facet normal -8.910066e-01 -4.539904e-01 -1.912971e-08
    outer loop
      vertex  -1.732051e+00 -9.999996e-01  0.000000e+00
      vertex  -1.827091e+00 -8.134737e-01  2.000000e+01
      vertex  -1.827091e+00 -8.134729e-01  0.000000e+00
    endloop
  endfacet
  facet normal -9.335803e-01 -3.583684e-01 -1.495230e-08
    outer loop
      vertex  -1.827091e+00 -8.134729e-01  0.000000e+00
      vertex  -1.827091e+00 -8.134737e-01  2.000000e+01
      vertex  -1.902113e+00 -6.180344e-01  2.000000e+01
    endloop
  endfacet
  facet normal -9.335803e-01 -3.583684e-01 -1.512582e-08
    outer loop
      vertex  -1.827091e+00 -8.134729e-01  0.000000e+00
      vertex  -1.902113e+00 -6.180344e-01  2.000000e+01
      vertex  -1.902113e+00 -6.180336e-01  0.000000e+00
    endloop
  endfacet
  facet normal -9.659258e-01 -2.588191e-01 -1.079877e-08
    outer loop
      vertex  -1.902113e+00 -6.180336e-01  0.000000e+00
      vertex  -1.902113e+00 -6.180344e-01  2.000000e+01
      vertex  -1.956295e+00 -4.158238e-01  2.000000e+01
    endloop
  endfacet
  facet normal -9.659258e-01 -2.588190e-01 -1.156680e-08
    outer loop
      vertex  -1.902113e+00 -6.180336e-01  0.000000e+00
      vertex  -1.956295e+00 -4.158238e-01  2.000000e+01
      vertex  -1.956295e+00 -4.158229e-01  0.000000e+00
    endloop
  endfacet
  facet normal -9.876883e-01 -1.564344e-01 -6.993163e-09
    outer loop
      vertex  -1.956295e+00 -4.158229e-01  0.000000e+00
      vertex  -1.956295e+00 -4.158238e-01  2.000000e+01
      vertex  -1.989044e+00 -2.090574e-01  2.000000e+01
    endloop
  endfacet
  facet normal -9.876883e-01 -1.564344e-01 -6.784376e-09
    outer loop
      vertex  -1.956295e+00 -4.158229e-01  0.000000e+00
      vertex  -1.989044e+00 -2.090574e-01  2.000000e+01
      vertex  -1.989044e+00 -2.090565e-01  0.000000e+00
    endloop
  endfacet
  facet normal -9.986296e-01 -5.233576e-02 -2.261604e-09
    outer loop
      vertex  -1.989044e+00 -2.090565e-01  0.000000e+00
      vertex  -1.989044e+00 -2.090574e-01  2.000000e+01
      vertex  -2.000000e+00 -4.371139e-07  2.000000e+01
    endloop
  endfacet
  facet normal -9.986296e-01 -5.233576e-02 -2.279995e-09
    outer loop
      vertex  -1.989044e+00 -2.090565e-01  0.000000e+00
      vertex  -2.000000e+00 -4.371139e-07  2.000000e+01
      vertex  -2.000000e+00  4.371139e-07  0.000000e+00
    endloop
  endfacet
  facet normal -9.986295e-01  5.233575e-02  2.287668e-09
    outer loop
      vertex  -2.000000e+00  4.371139e-07  0.000000e+00
      vertex  -2.000000e+00 -4.371139e-07  2.000000e+01
      vertex  -1.989044e+00  2.090565e-01  2.000000e+01
    endloop
  endfacet
  facet normal -9.986296e-01  5.233576e-02  2.279995e-09
    outer loop
      vertex  -2.000000e+00  4.371139e-07  0.000000e+00
      vertex  -1.989044e+00  2.090565e-01  2.000000e+01
      vertex  -1.989044e+00  2.090574e-01  0.000000e+00
    endloop
  endfacet
  facet normal -9.876883e-01  1.564344e-01  6.760059e-09
    outer loop
      vertex  -1.989044e+00  2.090574e-01  0.000000e+00
      vertex  -1.989044e+00  2.090565e-01  2.000000e+01
      vertex  -1.956295e+00  4.158229e-01  2.000000e+01
    endloop
  endfacet
  facet normal -9.876883e-01  1.564344e-01  7.006812e-09
    outer loop
      vertex  -1.989044e+00  2.090574e-01  0.000000e+00
      vertex  -1.956295e+00  4.158229e-01  2.000000e+01
      vertex  -1.956295e+00  4.158238e-01  0.000000e+00
    endloop
  endfacet
  facet normal -9.659258e-01  2.588190e-01  1.157011e-08
    outer loop
      vertex  -1.956295e+00  4.158238e-01  0.000000e+00
      vertex  -1.956295e+00  4.158229e-01  2.000000e+01
      vertex  -1.902113e+00  6.180336e-01  2.000000e+01
    endloop
  endfacet
  facet normal -9.659258e-01  2.588190e-01  1.089949e-08
    outer loop
      vertex  -1.956295e+00  4.158238e-01  0.000000e+00
      vertex  -1.902113e+00  6.180336e-01  2.000000e+01
      vertex  -1.902113e+00  6.180344e-01  0.000000e+00
    endloop
  endfacet
  facet normal -9.335803e-01  3.583684e-01  1.495230e-08
    outer loop
      vertex  -1.902113e+00  6.180344e-01  0.000000e+00
      vertex  -1.902113e+00  6.180336e-01  2.000000e+01
      vertex  -1.827091e+00  8.134729e-01  2.000000e+01
    endloop
  endfacet
  facet normal -9.335803e-01  3.583684e-01  1.512582e-08
    outer loop
      vertex  -1.902113e+00  6.180344e-01  0.000000e+00
      vertex  -1.827091e+00  8.134729e-01  2.000000e+01
      vertex  -1.827091e+00  8.134737e-01  0.000000e+00
    endloop
  endfacet
  facet normal -8.910066e-01  4.539904e-01  1.894196e-08
    outer loop
      vertex  -1.827091e+00  8.134737e-01  0.000000e+00
      vertex  -1.827091e+00  8.134729e-01  2.000000e+01
      vertex  -1.732051e+00  9.999996e-01  2.000000e+01
    endloop
  endfacet
  facet normal -8.910066e-01  4.539903e-01  2.046434e-08
    outer loop
      vertex  -1.827091e+00  8.134737e-01  0.000000e+00
      vertex  -1.732051e+00  9.999996e-01  2.000000e+01
      vertex  -1.732051e+00  1.000000e+00  0.000000e+00
    endloop
  endfacet
  facet normal -8.386706e-01  5.446390e-01  2.434726e-08
    outer loop
      vertex  -1.732051e+00  1.000000e+00  0.000000e+00
      vertex  -1.732051e+00  9.999996e-01  2.000000e+01
      vertex  -1.618034e+00  1.175570e+00  2.000000e+01
    endloop
  endfacet
  facet normal -8.386706e-01  5.446389e-01  2.580287e-08
    outer loop
      vertex  -1.732051e+00  1.000000e+00  0.000000e+00
      vertex  -1.618034e+00  1.175570e+00  2.000000e+01
      vertex  -1.618034e+00  1.175571e+00  0.000000e+00
    endloop
  endfacet
  facet normal -7.771459e-01  6.293204e-01  3.000833e-08
    outer loop
      vertex  -1.618034e+00  1.175571e+00  0.000000e+00
      vertex  -1.618034e+00  1.175570e+00  2.000000e+01
      vertex  -1.486290e+00  1.338261e+00  2.000000e+01
    endloop
  endfacet
  facet normal -7.771459e-01  6.293204e-01  2.980675e-08
    outer loop
      vertex  -1.618034e+00  1.175571e+00  0.000000e+00
      vertex  -1.486290e+00  1.338261e+00  2.000000e+01
      vertex  -1.486290e+00  1.338262e+00  0.000000e+00
    endloop
  endfacet
  facet normal -7.071068e-01  7.071068e-01  3.371748e-08
    outer loop
      vertex  -1.486290e+00  1.338262e+00  0.000000e+00
      vertex  -1.486290e+00  1.338261e+00  2.000000e+01
      vertex  -1.338261e+00  1.486289e+00  2.000000e+01
    endloop
  endfacet
  facet normal -7.071068e-01  7.071068e-01  3.381067e-08
    outer loop
      vertex  -1.486290e+00  1.338262e+00  0.000000e+00
      vertex  -1.338261e+00  1.486289e+00  2.000000e+01
      vertex  -1.338261e+00  1.486290e+00  0.000000e+00
    endloop
  endfacet
  facet normal -6.293204e-01  7.771459e-01  3.705721e-08
    outer loop
      vertex  -1.338261e+00  1.486290e+00  0.000000e+00
      vertex  -1.338261e+00  1.486289e+00  2.000000e+01
      vertex  -1.175570e+00  1.618034e+00  2.000000e+01
    endloop
  endfacet
  facet normal -6.293204e-01  7.771459e-01  3.692478e-08
    outer loop
      vertex  -1.338261e+00  1.486290e+00  0.000000e+00
      vertex  -1.175570e+00  1.618034e+00  2.000000e+01
      vertex  -1.175570e+00  1.618034e+00  0.000000e+00
    endloop
  endfacet
  facet normal -5.446390e-01  8.386706e-01  3.999093e-08
    outer loop
      vertex  -1.175570e+00  1.618034e+00  0.000000e+00
      vertex  -1.175570e+00  1.618034e+00  2.000000e+01
      vertex  -9.999999e-01  1.732050e+00  2.000000e+01
    endloop
  endfacet
  facet normal -5.446390e-01  8.386706e-01  4.003895e-08
    outer loop
      vertex  -1.175570e+00  1.618034e+00  0.000000e+00
      vertex  -9.999999e-01  1.732050e+00  2.000000e+01
      vertex  -9.999999e-01  1.732051e+00  0.000000e+00
    endloop
  endfacet
  facet normal -4.539904e-01  8.910066e-01  4.248650e-08
    outer loop
      vertex  -9.999999e-01  1.732051e+00  0.000000e+00
      vertex  -9.999999e-01  1.732050e+00  2.000000e+01
      vertex  -8.134732e-01  1.827090e+00  2.000000e+01
    endloop
  endfacet
  facet normal -4.539904e-01  8.910066e-01  4.270820e-08
    outer loop
      vertex  -9.999999e-01  1.732051e+00  0.000000e+00
      vertex  -8.134732e-01  1.827090e+00  2.000000e+01
      vertex  -8.134732e-01  1.827091e+00  0.000000e+00
    endloop
  endfacet
  facet normal -3.583684e-01  9.335803e-01  4.451658e-08
    outer loop
      vertex  -8.134732e-01  1.827091e+00  0.000000e+00
      vertex  -8.134732e-01  1.827090e+00  2.000000e+01
      vertex  -6.180339e-01  1.902113e+00  2.000000e+01
    endloop
  endfacet
  facet normal -3.583684e-01  9.335803e-01  4.471014e-08
    outer loop
      vertex  -8.134732e-01  1.827091e+00  0.000000e+00
      vertex  -6.180339e-01  1.902113e+00  2.000000e+01
      vertex  -6.180339e-01  1.902114e+00  0.000000e+00
    endloop
  endfacet
  facet normal -2.588190e-01  9.659258e-01  4.605893e-08
    outer loop
      vertex  -6.180339e-01  1.902114e+00  0.000000e+00
      vertex  -6.180339e-01  1.902113e+00  2.000000e+01
      vertex  -4.158233e-01  1.956295e+00  2.000000e+01
    endloop
  endfacet
  facet normal -2.588190e-01  9.659258e-01  4.604477e-08
    outer loop
      vertex  -6.180339e-01  1.902114e+00  0.000000e+00
      vertex  -4.158233e-01  1.956295e+00  2.000000e+01
      vertex  -4.158233e-01  1.956296e+00  0.000000e+00
    endloop
  endfacet
  facet normal -1.564344e-01  9.876883e-01  4.709665e-08
    outer loop
      vertex  -4.158233e-01  1.956296e+00  0.000000e+00
      vertex  -4.158233e-01  1.956295e+00  2.000000e+01
      vertex  -2.090569e-01  1.989043e+00  2.000000e+01
    endloop
  endfacet
  facet normal -1.564344e-01  9.876883e-01  4.715697e-08
    outer loop
      vertex  -4.158233e-01  1.956296e+00  0.000000e+00
      vertex  -2.090569e-01  1.989043e+00  2.000000e+01
      vertex  -2.090569e-01  1.989044e+00  0.000000e+00
    endloop
  endfacet
  facet normal -5.233577e-02  9.986296e-01  4.761837e-08
    outer loop
      vertex  -2.090569e-01  1.989044e+00  0.000000e+00
      vertex  -2.090569e-01  1.989043e+00  2.000000e+01
      vertex  -3.673940e-16  2.000000e+00  2.000000e+01
    endloop
  endfacet
  facet normal -5.233577e-02  9.986296e-01  4.760185e-08
    outer loop
      vertex  -2.090569e-01  1.989044e+00  0.000000e+00
      vertex  -3.673940e-16  2.000000e+00  2.000000e+01
      vertex  -3.673940e-16  2.000000e+00  0.000000e+00
    endloop
  endfacet
  facet normal  5.233577e-02  9.986296e-01  4.761837e-08
    outer loop
      vertex  -3.673940e-16  2.000000e+00  0.000000e+00
      vertex  -3.673940e-16  2.000000e+00  2.000000e+01
      vertex   2.090569e-01  1.989043e+00  2.000000e+01
    endloop
  endfacet
  facet normal  5.233577e-02  9.986296e-01  4.765746e-08
    outer loop
      vertex  -3.673940e-16  2.000000e+00  0.000000e+00
      vertex   2.090569e-01  1.989043e+00  2.000000e+01
      vertex   2.090569e-01  1.989044e+00  0.000000e+00
    endloop
  endfacet
  facet normal  1.564344e-01  9.876883e-01  4.709665e-08
    outer loop
      vertex   2.090569e-01  1.989044e+00  0.000000e+00
      vertex   2.090569e-01  1.989043e+00  2.000000e+01
      vertex   4.158233e-01  1.956295e+00  2.000000e+01
    endloop
  endfacet
  facet normal  1.564344e-01  9.876883e-01  4.704575e-08
    outer loop
      vertex   2.090569e-01  1.989044e+00  0.000000e+00
      vertex   4.158233e-01  1.956295e+00  2.000000e+01
      vertex   4.158233e-01  1.956296e+00  0.000000e+00
    endloop
  endfacet
  facet normal  2.588190e-01  9.659258e-01  4.605893e-08
    outer loop
      vertex   4.158233e-01  1.956296e+00  0.000000e+00
      vertex   4.158233e-01  1.956295e+00  2.000000e+01
      vertex   6.180339e-01  1.902113e+00  2.000000e+01
    endloop
  endfacet
  facet normal  2.588190e-01  9.659258e-01  4.604477e-08
    outer loop
      vertex   4.158233e-01  1.956296e+00  0.000000e+00
      vertex   6.180339e-01  1.902113e+00  2.000000e+01
      vertex   6.180339e-01  1.902114e+00  0.000000e+00
    endloop
  endfacet
  facet normal  3.583684e-01  9.335803e-01  4.451658e-08
    outer loop
      vertex   6.180339e-01  1.902114e+00  0.000000e+00
      vertex   6.180339e-01  1.902113e+00  2.000000e+01
      vertex   8.134732e-01  1.827090e+00  2.000000e+01
    endloop
  endfacet
  facet normal  3.583684e-01  9.335803e-01  4.448770e-08
    outer loop
      vertex   6.180339e-01  1.902114e+00  0.000000e+00
      vertex   8.134732e-01  1.827090e+00  2.000000e+01
      vertex   8.134732e-01  1.827091e+00  0.000000e+00
    endloop
  endfacet
  facet normal  4.539904e-01  8.910066e-01  4.248650e-08
    outer loop
      vertex   8.134732e-01  1.827091e+00  0.000000e+00
      vertex   8.134732e-01  1.827090e+00  2.000000e+01
      vertex   9.999999e-01  1.732050e+00  2.000000e+01
    endloop
  endfacet
  facet normal  4.539904e-01  8.910066e-01  4.226332e-08
    outer loop
      vertex   8.134732e-01  1.827091e+00  0.000000e+00
      vertex   9.999999e-01  1.732050e+00  2.000000e+01
      vertex   9.999999e-01  1.732051e+00  0.000000e+00
    endloop
  endfacet
  facet normal  5.446390e-01  8.386706e-01  3.999093e-08
    outer loop
      vertex   9.999999e-01  1.732051e+00  0.000000e+00
      vertex   9.999999e-01  1.732050e+00  2.000000e+01
      vertex   1.175570e+00  1.618034e+00  2.000000e+01
    endloop
  endfacet
  facet normal  5.446390e-01  8.386706e-01  4.003895e-08
    outer loop
      vertex   9.999999e-01  1.732051e+00  0.000000e+00
      vertex   1.175570e+00  1.618034e+00  2.000000e+01
      vertex   1.175570e+00  1.618034e+00  0.000000e+00
    endloop
  endfacet
  facet normal  6.293204e-01  7.771459e-01  3.705721e-08
    outer loop
      vertex   1.175570e+00  1.618034e+00  0.000000e+00
      vertex   1.175570e+00  1.618034e+00  2.000000e+01
      vertex   1.338261e+00  1.486289e+00  2.000000e+01
    endloop
  endfacet
  facet normal  6.293204e-01  7.771459e-01  3.692478e-08
    outer loop
      vertex   1.175570e+00  1.618034e+00  0.000000e+00
      vertex   1.338261e+00  1.486289e+00  2.000000e+01
      vertex   1.338261e+00  1.486290e+00  0.000000e+00
    endloop
  endfacet
  facet normal  7.071068e-01  7.071068e-01  3.371748e-08
    outer loop
      vertex   1.338261e+00  1.486290e+00  0.000000e+00
      vertex   1.338261e+00  1.486289e+00  2.000000e+01
      vertex   1.486290e+00  1.338261e+00  2.000000e+01
    endloop
  endfacet
  facet normal  7.071068e-01  7.071068e-01  3.381067e-08
    outer loop
      vertex   1.338261e+00  1.486290e+00  0.000000e+00
      vertex   1.486290e+00  1.338261e+00  2.000000e+01
      vertex   1.486290e+00  1.338262e+00  0.000000e+00
    endloop
  endfacet
  facet normal  7.771459e-01  6.293204e-01  3.000833e-08
    outer loop
      vertex   1.486290e+00  1.338262e+00  0.000000e+00
      vertex   1.486290e+00  1.338261e+00  2.000000e+01
      vertex   1.618034e+00  1.175570e+00  2.000000e+01
    endloop
  endfacet
  facet normal  7.771459e-01  6.293204e-01  3.025162e-08
    outer loop
      vertex   1.486290e+00  1.338262e+00  0.000000e+00
      vertex   1.618034e+00  1.175570e+00  2.000000e+01
      vertex   1.618034e+00  1.175571e+00  0.000000e+00
    endloop
  endfacet
  facet normal  8.386706e-01  5.446390e-01  2.597041e-08
    outer loop
      vertex   1.618034e+00  1.175571e+00  0.000000e+00
      vertex   1.618034e+00  1.175570e+00  2.000000e+01
      vertex   1.732051e+00  9.999996e-01  2.000000e+01
    endloop
  endfacet
  facet normal  8.386706e-01  5.446389e-01  2.446824e-08
    outer loop
      vertex   1.618034e+00  1.175571e+00  0.000000e+00
      vertex   1.732051e+00  9.999996e-01  2.000000e+01
      vertex   1.732051e+00  1.000000e+00  0.000000e+00
    endloop
  endfacet
  facet normal  8.910066e-01  4.539904e-01  2.029495e-08
    outer loop
      vertex   1.732051e+00  1.000000e+00  0.000000e+00
      vertex   1.732051e+00  9.999996e-01  2.000000e+01
      vertex   1.827091e+00  8.134729e-01  2.000000e+01
    endloop
  endfacet
  facet normal  8.910066e-01  4.539903e-01  1.912971e-08
    outer loop
      vertex   1.732051e+00  1.000000e+00  0.000000e+00
      vertex   1.827091e+00  8.134729e-01  2.000000e+01
      vertex   1.827091e+00  8.134737e-01  0.000000e+00
    endloop
  endfacet
  facet normal  9.335803e-01  3.583684e-01  1.495230e-08
    outer loop
      vertex   1.827091e+00  8.134737e-01  0.000000e+00
      vertex   1.827091e+00  8.134729e-01  2.000000e+01
      vertex   1.902113e+00  6.180336e-01  2.000000e+01
    endloop
  endfacet
  facet normal  9.335803e-01  3.583684e-01  1.490338e-08
    outer loop
      vertex   1.827091e+00  8.134737e-01  0.000000e+00
      vertex   1.902113e+00  6.180336e-01  2.000000e+01
      vertex   1.902113e+00  6.180344e-01  0.000000e+00
    endloop
  endfacet
  facet normal  9.659258e-01  2.588190e-01  1.079877e-08
    outer loop
      vertex   1.902113e+00  6.180344e-01  0.000000e+00
      vertex   1.902113e+00  6.180336e-01  2.000000e+01
      vertex   1.956295e+00  4.158229e-01  2.000000e+01
    endloop
  endfacet
  facet normal  9.659258e-01  2.588190e-01  1.156680e-08
    outer loop
      vertex   1.902113e+00  6.180344e-01  0.000000e+00
      vertex   1.956295e+00  4.158229e-01  2.000000e+01
      vertex   1.956295e+00  4.158238e-01  0.000000e+00
    endloop
  endfacet
  facet normal  9.876883e-01  1.564344e-01  6.993165e-09
    outer loop
      vertex   1.956295e+00  4.158238e-01  0.000000e+00
      vertex   1.956295e+00  4.158229e-01  2.000000e+01
      vertex   1.989044e+00  2.090565e-01  2.000000e+01
    endloop
  endfacet
  facet normal  9.876883e-01  1.564344e-01  6.784374e-09
    outer loop
      vertex   1.956295e+00  4.158238e-01  0.000000e+00
      vertex   1.989044e+00  2.090565e-01  2.000000e+01
      vertex   1.989044e+00  2.090574e-01  0.000000e+00
    endloop
  endfacet
  facet normal  9.986296e-01  5.233576e-02  2.261604e-09
    outer loop
      vertex   1.989044e+00  2.090574e-01  0.000000e+00
      vertex   1.989044e+00  2.090565e-01  2.000000e+01
      vertex   2.000000e+00 -4.371139e-07  2.000000e+01
    endloop
  endfacet
  facet normal  9.986296e-01  5.233576e-02  2.279995e-09
    outer loop
      vertex   1.989044e+00  2.090574e-01  0.000000e+00
      vertex   2.000000e+00 -4.371139e-07  2.000000e+01
      vertex   2.000000e+00  4.371139e-07  0.000000e+00
    endloop
  endfacet
  facet normal -0.000000e+00  0.000000e+00 -1.000000e+00
    outer loop
      vertex   0.000000e+00 -7.868050e-07  1.800000e+01
      vertex  -3.939231e+00 -6.945935e-01  1.800000e+01
      vertex  -4.000000e+00 -7.868050e-07  1.800000e+01
    endloop
  endfacet
  facet normal  0.000000e+00  0.000000e+00 -1.000000e+00
    outer loop
      vertex   0.000000e+00 -7.868050e-07  1.800000e+01
      vertex  -3.758770e+00 -1.368081e+00  1.800000e+01
      vertex  -3.939231e+00 -6.945935e-01  1.800000e+01
    endloop
  endfacet
  facet normal  0.000000e+00  0.000000e+00 -1.000000e+00
    outer loop
      vertex   0.000000e+00 -7.868050e-07  1.800000e+01
      vertex  -3.464101e+00 -2.000001e+00  1.800000e+01
      vertex  -3.758770e+00 -1.368081e+00  1.800000e+01
    endloop
  endfacet
  facet normal  0.000000e+00  0.000000e+00 -1.000000e+00
    outer loop
      vertex   0.000000e+00 -7.868050e-07  1.800000e+01
      vertex  -3.064178e+00 -2.571151e+00  1.800000e+01
      vertex  -3.464101e+00 -2.000001e+00  1.800000e+01
    endloop
  endfacet
  facet normal  0.000000e+00  0.000000e+00 -1.000000e+00
    outer loop
      vertex   0.000000e+00 -7.868050e-07  1.800000e+01
      vertex  -2.571150e+00 -3.064178e+00  1.800000e+01
      vertex  -3.064178e+00 -2.571151e+00  1.800000e+01
    endloop
  endfacet
  facet normal  0.000000e+00  0.000000e+00 -1.000000e+00
    outer loop
      vertex   0.000000e+00 -7.868050e-07  1.800000e+01
      vertex  -2.000000e+00 -3.464102e+00  1.800000e+01
      vertex  -2.571150e+00 -3.064178e+00  1.800000e+01
    endloop
  endfacet
  facet normal  0.000000e+00  0.000000e+00 -1.000000e+00
    outer loop
      vertex   0.000000e+00 -7.868050e-07  1.800000e+01
      vertex  -1.368080e+00 -3.758771e+00  1.800000e+01
      vertex  -2.000000e+00 -3.464102e+00  1.800000e+01
    endloop
  endfacet
  facet normal  0.000000e+00  0.000000e+00 -1.000000e+00
    outer loop
      vertex   0.000000e+00 -7.868050e-07  1.800000e+01
      vertex  -6.945927e-01 -3.939232e+00  1.800000e+01
      vertex  -1.368080e+00 -3.758771e+00  1.800000e+01
    endloop
  endfacet
  facet normal  0.000000e+00  0.000000e+00 -1.000000e+00
    outer loop
      vertex   0.000000e+00 -7.868050e-07  1.800000e+01
      vertex  -2.449293e-16 -4.000001e+00  1.800000e+01
      vertex  -6.945927e-01 -3.939232e+00  1.800000e+01
    endloop
  endfacet
  facet normal  0.000000e+00 -0.000000e+00 -1.000000e+00
    outer loop
      vertex   0.000000e+00 -7.868050e-07  1.800000e+01
      vertex   6.945927e-01 -3.939232e+00  1.800000e+01
      vertex  -2.449293e-16 -4.000001e+00  1.800000e+01
    endloop
  endfacet
  facet normal  0.000000e+00  0.000000e+00 -1.000000e+00
    outer loop
      vertex   0.000000e+00 -7.868050e-07  1.800000e+01
      vertex   1.368080e+00 -3.758771e+00  1.800000e+01
      vertex   6.945927e-01 -3.939232e+00  1.800000e+01
    endloop
  endfacet
  facet normal  0.000000e+00  0.000000e+00 -1.000000e+00
    outer loop
      vertex   0.000000e+00 -7.868050e-07  1.800000e+01
      vertex   2.000000e+00 -3.464102e+00  1.800000e+01
      vertex   1.368080e+00 -3.758771e+00  1.800000e+01
    endloop
  endfacet
  facet normal  0.000000e+00  0.000000e+00 -1.000000e+00
    outer loop
      vertex   0.000000e+00 -7.868050e-07  1.800000e+01
      vertex   2.571150e+00 -3.064178e+00  1.800000e+01
      vertex   2.000000e+00 -3.464102e+00  1.800000e+01
    endloop
  endfacet
  facet normal  0.000000e+00  0.000000e+00 -1.000000e+00
    outer loop
      vertex   0.000000e+00 -7.868050e-07  1.800000e+01
      vertex   3.064178e+00 -2.571151e+00  1.800000e+01
      vertex   2.571150e+00 -3.064178e+00  1.800000e+01
    endloop
  endfacet
  facet normal  0.000000e+00  0.000000e+00 -1.000000e+00
    outer loop
      vertex   0.000000e+00 -7.868050e-07  1.800000e+01
      vertex   3.464101e+00 -2.000001e+00  1.800000e+01
      vertex   3.064178e+00 -2.571151e+00  1.800000e+01
    endloop
  endfacet
  facet normal  0.000000e+00  0.000000e+00 -1.000000e+00
    outer loop
      vertex   0.000000e+00 -7.868050e-07  1.800000e+01
      vertex   3.758770e+00 -1.368081e+00  1.800000e+01
      vertex   3.464101e+00 -2.000001e+00  1.800000e+01
    endloop
  endfacet
  facet normal  0.000000e+00  0.000000e+00 -1.000000e+00
    outer loop
      vertex   0.000000e+00 -7.868050e-07  1.800000e+01
      vertex   3.939231e+00 -6.945935e-01  1.800000e+01
      vertex   3.758770e+00 -1.368081e+00  1.800000e+01
    endloop
  endfacet
  facet normal  0.000000e+00  0.000000e+00 -1.000000e+00
    outer loop
      vertex   0.000000e+00 -7.868050e-07  1.800000e+01
      vertex   4.000000e+00 -7.868050e-07  1.800000e+01
      vertex   3.939231e+00 -6.945935e-01  1.800000e+01
    endloop
  endfacet
  facet normal  0.000000e+00  0.000000e+00 -1.000000e+00
    outer loop
      vertex   0.000000e+00 -7.868050e-07  1.800000e+01
      vertex   3.939231e+00  6.945919e-01  1.800000e+01
      vertex   4.000000e+00 -7.868050e-07  1.800000e+01
    endloop
  endfacet
  facet normal  0.000000e+00  0.000000e+00 -1.000000e+00
    outer loop
      vertex   0.000000e+00 -7.868050e-07  1.800000e+01
      vertex   3.758770e+00  1.368080e+00  1.800000e+01
      vertex   3.939231e+00  6.945919e-01  1.800000e+01
    endloop
  endfacet
  facet normal  0.000000e+00  0.000000e+00 -1.000000e+00
    outer loop
      vertex   0.000000e+00 -7.868050e-07  1.800000e+01
      vertex   3.464101e+00  1.999999e+00  1.800000e+01
      vertex   3.758770e+00  1.368080e+00  1.800000e+01
    endloop
  endfacet
  facet normal  0.000000e+00  0.000000e+00 -1.000000e+00
    outer loop
      vertex   0.000000e+00 -7.868050e-07  1.800000e+01
      vertex   3.064178e+00  2.571150e+00  1.800000e+01
      vertex   3.464101e+00  1.999999e+00  1.800000e+01
    endloop
  endfacet
  facet normal  0.000000e+00  0.000000e+00 -1.000000e+00
    outer loop
      vertex   0.000000e+00 -7.868050e-07  1.800000e+01
      vertex   2.571150e+00  3.064177e+00  1.800000e+01
      vertex   3.064178e+00  2.571150e+00  1.800000e+01
    endloop
  endfacet
  facet normal  0.000000e+00  0.000000e+00 -1.000000e+00
    outer loop
      vertex   0.000000e+00 -7.868050e-07  1.800000e+01
      vertex   2.000000e+00  3.464101e+00  1.800000e+01
      vertex   2.571150e+00  3.064177e+00  1.800000e+01
    endloop
  endfacet
  facet normal  0.000000e+00  0.000000e+00 -1.000000e+00
    outer loop
      vertex   0.000000e+00 -7.868050e-07  1.800000e+01
      vertex   1.368080e+00  3.758770e+00  1.800000e+01
      vertex   2.000000e+00  3.464101e+00  1.800000e+01
    endloop
  endfacet
  facet normal  0.000000e+00  0.000000e+00 -1.000000e+00
    outer loop
      vertex   0.000000e+00 -7.868050e-07  1.800000e+01
      vertex   6.945927e-01  3.939230e+00  1.800000e+01
      vertex   1.368080e+00  3.758770e+00  1.800000e+01
    endloop
  endfacet
  facet normal  0.000000e+00  0.000000e+00 -1.000000e+00
    outer loop
      vertex   0.000000e+00 -7.868050e-07  1.800000e+01
      vertex   7.347880e-16  3.999999e+00  1.800000e+01
      vertex   6.945927e-01  3.939230e+00  1.800000e+01
    endloop
  endfacet
  facet normal  0.000000e+00  0.000000e+00 -1.000000e+00
    outer loop
      vertex   0.000000e+00 -7.868050e-07  1.800000e+01
      vertex  -6.945927e-01  3.939230e+00  1.800000e+01
      vertex   7.347880e-16  3.999999e+00  1.800000e+01
    endloop
  endfacet
  facet normal  0.000000e+00  0.000000e+00 -1.000000e+00
    outer loop
      vertex   0.000000e+00 -7.868050e-07  1.800000e+01
      vertex  -1.368080e+00  3.758770e+00  1.800000e+01
      vertex  -6.945927e-01  3.939230e+00  1.800000e+01
    endloop
  endfacet
  facet normal  0.000000e+00  0.000000e+00 -1.000000e+00
    outer loop
      vertex   0.000000e+00 -7.868050e-07  1.800000e+01
      vertex  -2.000000e+00  3.464101e+00  1.800000e+01
      vertex  -1.368080e+00  3.758770e+00  1.800000e+01
    endloop
  endfacet
  facet normal  0.000000e+00  0.000000e+00 -1.000000e+00
    outer loop
      vertex   0.000000e+00 -7.868050e-07  1.800000e+01
      vertex  -2.571150e+00  3.064177e+00  1.800000e+01
      vertex  -2.000000e+00  3.464101e+00  1.800000e+01
    endloop
  endfacet
  facet normal  0.000000e+00  0.000000e+00 -1.000000e+00
    outer loop
      vertex   0.000000e+00 -7.868050e-07  1.800000e+01
      vertex  -3.064178e+00  2.571150e+00  1.800000e+01
      vertex  -2.571150e+00  3.064177e+00  1.800000e+01
    endloop
  endfacet
  facet normal  0.000000e+00  0.000000e+00 -1.000000e+00
    outer loop
      vertex   0.000000e+00 -7.868050e-07  1.800000e+01
      vertex  -3.464101e+00  1.999999e+00  1.800000e+01
      vertex  -3.064178e+00  2.571150e+00  1.800000e+01
    endloop
  endfacet
  facet normal  0.000000e+00  0.000000e+00 -1.000000e+00
    outer loop
      vertex   0.000000e+00 -7.868050e-07  1.800000e+01
      vertex  -3.758770e+00  1.368080e+00  1.800000e+01
      vertex  -3.464101e+00  1.999999e+00  1.800000e+01
    endloop
  endfacet
  facet normal  0.000000e+00  0.000000e+00 -1.000000e+00
    outer loop
      vertex   0.000000e+00 -7.868050e-07  1.800000e+01
      vertex  -3.939231e+00  6.945919e-01  1.800000e+01
      vertex  -3.758770e+00  1.368080e+00  1.800000e+01
    endloop
  endfacet
  facet normal  0.000000e+00  0.000000e+00 -1.000000e+00
    outer loop
      vertex   0.000000e+00 -7.868050e-07  1.800000e+01
      vertex  -4.000000e+00 -7.868050e-07  1.800000e+01
      vertex  -3.939231e+00  6.945919e-01  1.800000e+01
    endloop
  endfacet
  facet normal -8.917012e-01 -7.801387e-02  4.458506e-01
    outer loop
      vertex   0.000000e+00 -1.136496e-06  2.600000e+01
      vertex  -4.000000e+00 -7.868050e-07  1.800000e+01
      vertex  -3.939231e+00 -6.945935e-01  1.800000e+01
    endloop
  endfacet
  facet normal -8.646074e-01 -2.316707e-01  4.458505e-01
    outer loop
      vertex   0.000000e+00 -1.136496e-06  2.600000e+01
      vertex  -3.939231e+00 -6.945935e-01  1.800000e+01
      vertex  -3.758770e+00 -1.368081e+00  1.800000e+01
    endloop
  endfacet
  facet normal -8.112428e-01 -3.782889e-01  4.458506e-01
    outer loop
      vertex   0.000000e+00 -1.136496e-06  2.600000e+01
      vertex  -3.758770e+00 -1.368081e+00  1.800000e+01
      vertex  -3.464101e+00 -2.000001e+00  1.800000e+01
    endloop
  endfacet
  facet normal -7.332292e-01 -5.134124e-01  4.458505e-01
    outer loop
      vertex   0.000000e+00 -1.136496e-06  2.600000e+01
      vertex  -3.464101e+00 -2.000001e+00  1.800000e+01
      vertex  -3.064178e+00 -2.571151e+00  1.800000e+01
    endloop
  endfacet
  facet normal -6.329365e-01 -6.329365e-01  4.458506e-01
    outer loop
      vertex   0.000000e+00 -1.136496e-06  2.600000e+01
      vertex  -3.064178e+00 -2.571151e+00  1.800000e+01
      vertex  -2.571150e+00 -3.064178e+00  1.800000e+01
    endloop
  endfacet
  facet normal -5.134125e-01 -7.332290e-01  4.458506e-01
    outer loop
      vertex   0.000000e+00 -1.136496e-06  2.600000e+01
      vertex  -2.571150e+00 -3.064178e+00  1.800000e+01
      vertex  -2.000000e+00 -3.464102e+00  1.800000e+01
    endloop
  endfacet
  facet normal -3.782888e-01 -8.112428e-01  4.458506e-01
    outer loop
      vertex   0.000000e+00 -1.136496e-06  2.600000e+01
      vertex  -2.000000e+00 -3.464102e+00  1.800000e+01
      vertex  -1.368080e+00 -3.758771e+00  1.800000e+01
    endloop
  endfacet
  facet normal -2.316708e-01 -8.646073e-01  4.458506e-01
    outer loop
      vertex   0.000000e+00 -1.136496e-06  2.600000e+01
      vertex  -1.368080e+00 -3.758771e+00  1.800000e+01
      vertex  -6.945927e-01 -3.939232e+00  1.800000e+01
    endloop
  endfacet
  facet normal -7.801418e-02 -8.917012e-01  4.458506e-01
    outer loop
      vertex   0.000000e+00 -1.136496e-06  2.600000e+01
      vertex  -6.945927e-01 -3.939232e+00  1.800000e+01
      vertex  -2.449293e-16 -4.000001e+00  1.800000e+01
    endloop
  endfacet
  facet normal  7.801418e-02 -8.917012e-01  4.458506e-01
    outer loop
      vertex   0.000000e+00 -1.136496e-06  2.600000e+01
      vertex  -2.449293e-16 -4.000001e+00  1.800000e+01
      vertex   6.945927e-01 -3.939232e+00  1.800000e+01
    endloop
  endfacet
  facet normal  2.316708e-01 -8.646073e-01  4.458506e-01
    outer loop
      vertex   0.000000e+00 -1.136496e-06  2.600000e+01
      vertex   6.945927e-01 -3.939232e+00  1.800000e+01
      vertex   1.368080e+00 -3.758771e+00  1.800000e+01
    endloop
  endfacet
  facet normal  3.782888e-01 -8.112428e-01  4.458506e-01
    outer loop
      vertex   0.000000e+00 -1.136496e-06  2.600000e+01
      vertex   1.368080e+00 -3.758771e+00  1.800000e+01
      vertex   2.000000e+00 -3.464102e+00  1.800000e+01
    endloop
  endfacet
  facet normal  5.134125e-01 -7.332290e-01  4.458506e-01
    outer loop
      vertex   0.000000e+00 -1.136496e-06  2.600000e+01
      vertex   2.000000e+00 -3.464102e+00  1.800000e+01
      vertex   2.571150e+00 -3.064178e+00  1.800000e+01
    endloop
  endfacet
  facet normal  6.329365e-01 -6.329365e-01  4.458506e-01
    outer loop
      vertex   0.000000e+00 -1.136496e-06  2.600000e+01
      vertex   2.571150e+00 -3.064178e+00  1.800000e+01
      vertex   3.064178e+00 -2.571151e+00  1.800000e+01
    endloop
  endfacet
  facet normal  7.332292e-01 -5.134124e-01  4.458505e-01
    outer loop
      vertex   0.000000e+00 -1.136496e-06  2.600000e+01
      vertex   3.064178e+00 -2.571151e+00  1.800000e+01
      vertex   3.464101e+00 -2.000001e+00  1.800000e+01
    endloop
  endfacet
  facet normal  8.112428e-01 -3.782889e-01  4.458506e-01
    outer loop
      vertex   0.000000e+00 -1.136496e-06  2.600000e+01
      vertex   3.464101e+00 -2.000001e+00  1.800000e+01
      vertex   3.758770e+00 -1.368081e+00  1.800000e+01
    endloop
  endfacet
  facet normal  8.646074e-01 -2.316707e-01  4.458505e-01
    outer loop
      vertex   0.000000e+00 -1.136496e-06  2.600000e+01
      vertex   3.758770e+00 -1.368081e+00  1.800000e+01
      vertex   3.939231e+00 -6.945935e-01  1.800000e+01
    endloop
  endfacet
  facet normal  8.917012e-01 -7.801387e-02  4.458506e-01
    outer loop
      vertex   0.000000e+00 -1.136496e-06  2.600000e+01
      vertex   3.939231e+00 -6.945935e-01  1.800000e+01
      vertex   4.000000e+00 -7.868050e-07  1.800000e+01
    endloop
  endfacet
  facet normal  8.917012e-01  7.801387e-02  4.458506e-01
    outer loop
      vertex   0.000000e+00 -1.136496e-06  2.600000e+01
      vertex   4.000000e+00 -7.868050e-07  1.800000e+01
      vertex   3.939231e+00  6.945919e-01  1.800000e+01
    endloop
  endfacet
  facet normal  8.646074e-01  2.316707e-01  4.458506e-01
    outer loop
      vertex   0.000000e+00 -1.136496e-06  2.600000e+01
      vertex   3.939231e+00  6.945919e-01  1.800000e+01
      vertex   3.758770e+00  1.368080e+00  1.800000e+01
    endloop
  endfacet
  facet normal  8.112428e-01  3.782889e-01  4.458506e-01
    outer loop
      vertex   0.000000e+00 -1.136496e-06  2.600000e+01
      vertex   3.758770e+00  1.368080e+00  1.800000e+01
      vertex   3.464101e+00  1.999999e+00  1.800000e+01
    endloop
  endfacet
  facet normal  7.332292e-01  5.134122e-01  4.458506e-01
    outer loop
      vertex   0.000000e+00 -1.136496e-06  2.600000e+01
      vertex   3.464101e+00  1.999999e+00  1.800000e+01
      vertex   3.064178e+00  2.571150e+00  1.800000e+01
    endloop
  endfacet
  facet normal  6.329365e-01  6.329365e-01  4.458506e-01
    outer loop
      vertex   0.000000e+00 -1.136496e-06  2.600000e+01
      vertex   3.064178e+00  2.571150e+00  1.800000e+01
      vertex   2.571150e+00  3.064177e+00  1.800000e+01
    endloop
  endfacet
  facet normal  5.134125e-01  7.332290e-01  4.458506e-01
    outer loop
      vertex   0.000000e+00 -1.136496e-06  2.600000e+01
      vertex   2.571150e+00  3.064177e+00  1.800000e+01
      vertex   2.000000e+00  3.464101e+00  1.800000e+01
    endloop
  endfacet
  facet normal  3.782888e-01  8.112427e-01  4.458506e-01
    outer loop
      vertex   0.000000e+00 -1.136496e-06  2.600000e+01
      vertex   2.000000e+00  3.464101e+00  1.800000e+01
      vertex   1.368080e+00  3.758770e+00  1.800000e+01
    endloop
  endfacet
  facet normal  2.316708e-01  8.646073e-01  4.458506e-01
    outer loop
      vertex   0.000000e+00 -1.136496e-06  2.600000e+01
      vertex   1.368080e+00  3.758770e+00  1.800000e+01
      vertex   6.945927e-01  3.939230e+00  1.800000e+01
    endloop
  endfacet
  facet normal  7.801387e-02  8.917012e-01  4.458506e-01
    outer loop
      vertex   0.000000e+00 -1.136496e-06  2.600000e+01
      vertex   6.945927e-01  3.939230e+00  1.800000e+01
      vertex   7.347880e-16  3.999999e+00  1.800000e+01
    endloop
  endfacet
  facet normal -7.801387e-02  8.917012e-01  4.458506e-01
    outer loop
      vertex   0.000000e+00 -1.136496e-06  2.600000e+01
      vertex   7.347880e-16  3.999999e+00  1.800000e+01
      vertex  -6.945927e-01  3.939230e+00  1.800000e+01
    endloop
  endfacet
  facet normal -2.316708e-01  8.646073e-01  4.458506e-01
    outer loop
      vertex   0.000000e+00 -1.136496e-06  2.600000e+01
      vertex  -6.945927e-01  3.939230e+00  1.800000e+01
      vertex  -1.368080e+00  3.758770e+00  1.800000e+01
    endloop
  endfacet
  facet normal -3.782888e-01  8.112427e-01  4.458506e-01
    outer loop
      vertex   0.000000e+00 -1.136496e-06  2.600000e+01
      vertex  -1.368080e+00  3.758770e+00  1.800000e+01
      vertex  -2.000000e+00  3.464101e+00  1.800000e+01
    endloop
  endfacet
  facet normal -5.134125e-01  7.332290e-01  4.458506e-01
    outer loop
      vertex   0.000000e+00 -1.136496e-06  2.600000e+01
      vertex  -2.000000e+00  3.464101e+00  1.800000e+01
      vertex  -2.571150e+00  3.064177e+00  1.800000e+01
    endloop
  endfacet
  facet normal -6.329365e-01  6.329365e-01  4.458506e-01
    outer loop
      vertex   0.000000e+00 -1.136496e-06  2.600000e+01
      vertex  -2.571150e+00  3.064177e+00  1.800000e+01
      vertex  -3.064178e+00  2.571150e+00  1.800000e+01
    endloop
  endfacet
  facet normal -7.332292e-01  5.134122e-01  4.458506e-01
    outer loop
      vertex   0.000000e+00 -1.136496e-06  2.600000e+01
      vertex  -3.064178e+00  2.571150e+00  1.800000e+01
      vertex  -3.464101e+00  1.999999e+00  1.800000e+01
    endloop
  endfacet
  facet normal -8.112428e-01  3.782889e-01  4.458506e-01
    outer loop
      vertex   0.000000e+00 -1.136496e-06  2.600000e+01
      vertex  -3.464101e+00  1.999999e+00  1.800000e+01
      vertex  -3.758770e+00  1.368080e+00  1.800000e+01
    endloop
  endfacet
  facet normal -8.646074e-01  2.316707e-01  4.458506e-01
    outer loop
      vertex   0.000000e+00 -1.136496e-06  2.600000e+01
      vertex  -3.758770e+00  1.368080e+00  1.800000e+01
      vertex  -3.939231e+00  6.945919e-01  1.800000e+01
    endloop
  endfacet
  facet normal -8.917012e-01  7.801387e-02  4.458506e-01
    outer loop
      vertex   0.000000e+00 -1.136496e-06  2.600000e+01
      vertex  -3.939231e+00  6.945919e-01  1.800000e+01
      vertex  -4.000000e+00 -7.868050e-07  1.800000e+01
    endloop
  endfacet
endsolid vcg
